<?xml version="1.0" encoding="UTF-8"?>
<!--Generator: Apple Native CoreSVG 149-->
<!DOCTYPE svg
PUBLIC "-//W3C//DTD SVG 1.1//EN"
       "http://www.w3.org/Graphics/SVG/1.1/DTD/svg11.dtd">
<svg version="1.1" xmlns="http://www.w3.org/2000/svg" xmlns:xlink="http://www.w3.org/1999/xlink" width="3300" height="2200">
 <!--glyph: "uni1009DA.medium", point size: 100.000000, font version: "Version 16.0d18e1", template writer version: "8"-->
 <g id="Notes">
  <rect height="2200" id="artboard" style="fill:white;opacity:1" width="3300" x="0" y="0"/>
  <line id="" style="fill:none;stroke:black;opacity:1;stroke-width:0.5;" x1="263" x2="3036" y1="292" y2="292"/>
  <text style="stroke:none;fill:black;font-family:-apple-system,&quot;SF Pro Display&quot;,&quot;SF Pro Text&quot;,Helvetica,sans-serif;font-weight:bold;" transform="matrix(1 0 0 1 263 322)">Weight/Scale Variations</text>
  <text style="stroke:none;fill:black;font-family:-apple-system,&quot;SF Pro Display&quot;,&quot;SF Pro Text&quot;,Helvetica,sans-serif;text-anchor:middle;" transform="matrix(1 0 0 1 559.711 322)">Ultralight</text>
  <text style="stroke:none;fill:black;font-family:-apple-system,&quot;SF Pro Display&quot;,&quot;SF Pro Text&quot;,Helvetica,sans-serif;text-anchor:middle;" transform="matrix(1 0 0 1 856.422 322)">Thin</text>
  <text style="stroke:none;fill:black;font-family:-apple-system,&quot;SF Pro Display&quot;,&quot;SF Pro Text&quot;,Helvetica,sans-serif;text-anchor:middle;" transform="matrix(1 0 0 1 1153.13 322)">Light</text>
  <text style="stroke:none;fill:black;font-family:-apple-system,&quot;SF Pro Display&quot;,&quot;SF Pro Text&quot;,Helvetica,sans-serif;text-anchor:middle;" transform="matrix(1 0 0 1 1449.84 322)">Regular</text>
  <text style="stroke:none;fill:black;font-family:-apple-system,&quot;SF Pro Display&quot;,&quot;SF Pro Text&quot;,Helvetica,sans-serif;text-anchor:middle;" transform="matrix(1 0 0 1 1746.56 322)">Medium</text>
  <text style="stroke:none;fill:black;font-family:-apple-system,&quot;SF Pro Display&quot;,&quot;SF Pro Text&quot;,Helvetica,sans-serif;text-anchor:middle;" transform="matrix(1 0 0 1 2043.27 322)">Semibold</text>
  <text style="stroke:none;fill:black;font-family:-apple-system,&quot;SF Pro Display&quot;,&quot;SF Pro Text&quot;,Helvetica,sans-serif;text-anchor:middle;" transform="matrix(1 0 0 1 2339.98 322)">Bold</text>
  <text style="stroke:none;fill:black;font-family:-apple-system,&quot;SF Pro Display&quot;,&quot;SF Pro Text&quot;,Helvetica,sans-serif;text-anchor:middle;" transform="matrix(1 0 0 1 2636.69 322)">Heavy</text>
  <text style="stroke:none;fill:black;font-family:-apple-system,&quot;SF Pro Display&quot;,&quot;SF Pro Text&quot;,Helvetica,sans-serif;text-anchor:middle;" transform="matrix(1 0 0 1 2933.4 322)">Black</text>
  <line id="" style="fill:none;stroke:black;opacity:1;stroke-width:0.5;" x1="263" x2="3036" y1="1903" y2="1903"/>
  <g id="" transform="matrix(1 0 0 1 263 1933)">
   <path d="M9.24805 0.830078C13.5547 0.830078 17.1387-2.74414 17.1387-7.05078C17.1387-11.3574 13.5449-14.9316 9.23828-14.9316C4.94141-14.9316 1.36719-11.3574 1.36719-7.05078C1.36719-2.74414 4.95117 0.830078 9.24805 0.830078ZM9.24805-0.654297C5.70312-0.654297 2.87109-3.49609 2.87109-7.05078C2.87109-10.6055 5.69336-13.4473 9.23828-13.4473C12.793-13.4473 15.6348-10.6055 15.6445-7.05078C15.6543-3.49609 12.8027-0.654297 9.24805-0.654297ZM6.39648-6.31836L8.50586-6.31836L8.50586-4.19922C8.50586-3.75977 8.79883-3.45703 9.22852-3.45703C9.67773-3.45703 9.9707-3.75977 9.9707-4.19922L9.9707-6.31836L12.0996-6.31836C12.5391-6.31836 12.8418-6.61133 12.8418-7.04102C12.8418-7.48047 12.5391-7.7832 12.0996-7.7832L9.9707-7.7832L9.9707-9.89258C9.9707-10.3418 9.67773-10.6445 9.22852-10.6445C8.79883-10.6445 8.50586-10.3418 8.50586-9.89258L8.50586-7.7832L6.39648-7.7832C5.94727-7.7832 5.64453-7.48047 5.64453-7.04102C5.64453-6.61133 5.94727-6.31836 6.39648-6.31836Z"/>
  </g>
  <g id="" transform="matrix(1 0 0 1 281.506 1933)">
   <path d="M11.709 2.91016C17.1582 2.91016 21.6699-1.61133 21.6699-7.05078C21.6699-12.5 17.1484-17.0117 11.6992-17.0117C6.25977-17.0117 1.74805-12.5 1.74805-7.05078C1.74805-1.61133 6.26953 2.91016 11.709 2.91016ZM11.709 1.25C7.09961 1.25 3.41797-2.44141 3.41797-7.05078C3.41797-11.6602 7.08984-15.3516 11.6992-15.3516C16.3086-15.3516 20-11.6602 20.0098-7.05078C20.0195-2.44141 16.3184 1.25 11.709 1.25ZM7.98828-6.23047L10.8789-6.23047L10.8789-3.32031C10.8789-2.83203 11.2109-2.5 11.6895-2.5C12.1777-2.5 12.5195-2.83203 12.5195-3.32031L12.5195-6.23047L15.4297-6.23047C15.918-6.23047 16.25-6.5625 16.25-7.04102C16.25-7.5293 15.918-7.87109 15.4297-7.87109L12.5195-7.87109L12.5195-10.7617C12.5195-11.2695 12.1777-11.6016 11.6895-11.6016C11.2109-11.6016 10.8789-11.2598 10.8789-10.7617L10.8789-7.87109L7.98828-7.87109C7.48047-7.87109 7.14844-7.5293 7.14844-7.04102C7.14844-6.5625 7.49023-6.23047 7.98828-6.23047Z"/>
  </g>
  <g id="" transform="matrix(1 0 0 1 304.924 1933)">
   <path d="M14.9707 5.66406C21.9336 5.66406 27.6953-0.0976562 27.6953-7.05078C27.6953-14.0137 21.9238-19.7754 14.9609-19.7754C8.00781-19.7754 2.25586-14.0137 2.25586-7.05078C2.25586-0.0976562 8.01758 5.66406 14.9707 5.66406ZM14.9707 3.84766C8.93555 3.84766 4.08203-1.01562 4.08203-7.05078C4.08203-13.0957 8.92578-17.9492 14.9609-17.9492C21.0059-17.9492 25.8594-13.0957 25.8691-7.05078C25.8789-1.01562 21.0156 3.84766 14.9707 3.84766ZM10.0586-6.14258L14.0625-6.14258L14.0625-2.12891C14.0625-1.5918 14.4336-1.2207 14.9512-1.2207C15.4883-1.2207 15.8594-1.5918 15.8594-2.12891L15.8594-6.14258L19.8828-6.14258C20.4102-6.14258 20.791-6.51367 20.791-7.03125C20.791-7.56836 20.4199-7.94922 19.8828-7.94922L15.8594-7.94922L15.8594-11.9531C15.8594-12.5098 15.4883-12.8809 14.9512-12.8809C14.4336-12.8809 14.0625-12.5 14.0625-11.9531L14.0625-7.94922L10.0586-7.94922C9.50195-7.94922 9.13086-7.56836 9.13086-7.03125C9.13086-6.51367 9.51172-6.14258 10.0586-6.14258Z"/>
  </g>
  <text style="stroke:none;fill:black;font-family:-apple-system,&quot;SF Pro Display&quot;,&quot;SF Pro Text&quot;,Helvetica,sans-serif;font-weight:bold;" transform="matrix(1 0 0 1 263 1953)">Design Variations</text>
  <text style="stroke:none;fill:black;font-family:-apple-system,&quot;SF Pro Display&quot;,&quot;SF Pro Text&quot;,Helvetica,sans-serif;" transform="matrix(1 0 0 1 263 1971)">Symbols are supported in up to nine weights and three scales.</text>
  <text style="stroke:none;fill:black;font-family:-apple-system,&quot;SF Pro Display&quot;,&quot;SF Pro Text&quot;,Helvetica,sans-serif;" transform="matrix(1 0 0 1 263 1989)">For optimal layout with text and other symbols, vertically align</text>
  <text style="stroke:none;fill:black;font-family:-apple-system,&quot;SF Pro Display&quot;,&quot;SF Pro Text&quot;,Helvetica,sans-serif;" transform="matrix(1 0 0 1 263 2007)">symbols with the adjacent text.</text>
  <line id="" style="fill:none;stroke:#00AEEF;stroke-width:0.5;opacity:1.0;" x1="776" x2="776" y1="1919" y2="1933"/>
  <g id="" transform="matrix(1 0 0 1 776 1933)">
   <path d="M3.31055 0.126953C3.82812 0.126953 4.08203-0.0683594 4.26758-0.605469L5.52734-4.0625L11.2891-4.0625L12.5488-0.605469C12.7344-0.0683594 12.9883 0.126953 13.4961 0.126953C14.0137 0.126953 14.3457-0.185547 14.3457-0.673828C14.3457-0.839844 14.3164-0.986328 14.2383-1.20117L9.6582-13.3887C9.43359-13.9941 9.0332-14.2871 8.4082-14.2871C7.80273-14.2871 7.39258-13.9941 7.17773-13.3984L2.59766-1.19141C2.51953-0.976562 2.49023-0.830078 2.49023-0.664062C2.49023-0.175781 2.80273 0.126953 3.31055 0.126953ZM6.00586-5.53711L8.37891-12.1094L8.42773-12.1094L10.8008-5.53711Z"/>
  </g>
  <line id="" style="fill:none;stroke:#00AEEF;stroke-width:0.5;opacity:1.0;" x1="792.836" x2="792.836" y1="1919" y2="1933"/>
  <text style="stroke:none;fill:black;font-family:-apple-system,&quot;SF Pro Display&quot;,&quot;SF Pro Text&quot;,Helvetica,sans-serif;font-weight:bold;" transform="matrix(1 0 0 1 776 1953)">Margins</text>
  <text style="stroke:none;fill:black;font-family:-apple-system,&quot;SF Pro Display&quot;,&quot;SF Pro Text&quot;,Helvetica,sans-serif;" transform="matrix(1 0 0 1 776 1971)">Leading and trailing margins on the left and right side of each symbol</text>
  <text style="stroke:none;fill:black;font-family:-apple-system,&quot;SF Pro Display&quot;,&quot;SF Pro Text&quot;,Helvetica,sans-serif;" transform="matrix(1 0 0 1 776 1989)">can be adjusted by modifying the x-location of the margin guidelines.</text>
  <text style="stroke:none;fill:black;font-family:-apple-system,&quot;SF Pro Display&quot;,&quot;SF Pro Text&quot;,Helvetica,sans-serif;" transform="matrix(1 0 0 1 776 2007)">Modifications are automatically applied proportionally to all</text>
  <text style="stroke:none;fill:black;font-family:-apple-system,&quot;SF Pro Display&quot;,&quot;SF Pro Text&quot;,Helvetica,sans-serif;" transform="matrix(1 0 0 1 776 2025)">scales and weights.</text>
  <g id="" transform="matrix(1 0 0 1 1289 1933)">
   <path d="M2.8418 1.86523L4.54102 3.57422C5.40039 4.44336 6.38672 4.38477 7.31445 3.35938L17.4902-7.85156C17.7539-7.76367 18.0273-7.7832 18.3398-7.8418L19.4043-8.03711L20.0684-7.36328L20.0293-6.80664C19.9902-6.30859 20.1172-5.92773 20.6055-5.44922L21.3672-4.70703C21.8457-4.22852 22.4609-4.19922 22.9297-4.66797L25.8398-7.58789C26.3086-8.05664 26.2891-8.65234 25.8105-9.13086L25.0391-9.89258C24.5605-10.3711 24.1895-10.5273 23.7109-10.4883L23.1348-10.4395L22.4902-11.0742L22.7344-12.1973C22.8613-12.7637 22.7051-13.2031 22.1191-13.7891L19.9219-15.9766C16.582-19.2969 12.1484-19.2188 9.25781-16.3281C8.83789-15.918 8.80859-15.3418 9.04297-14.9512C9.27734-14.5898 9.73633-14.3555 10.3809-14.5215C11.8457-14.8633 13.3691-14.9219 14.7949-13.9844L14.209-12.5293C14.0137-12.0508 13.9844-11.6504 14.1113-11.2891L3.04688-0.898438C2.06055 0.0195312 1.98242 0.996094 2.8418 1.86523ZM10.752-15.957C13.1836-17.7344 16.4746-17.4316 18.7012-15.2051L21.1328-12.793C21.3672-12.5586 21.4062-12.373 21.3379-12.0312L21.0156-10.5469L22.5195-9.0625L23.5059-9.12109C23.7598-9.13086 23.8379-9.11133 24.0332-8.91602L24.6094-8.33984L22.168-5.89844L21.5918-6.47461C21.3965-6.66992 21.3672-6.74805 21.377-7.01172L21.4453-7.98828L19.9512-9.47266L18.4277-9.21875C18.1055-9.15039 17.959-9.17969 17.7148-9.41406L15.7129-11.416C15.459-11.6504 15.4297-11.8164 15.5859-12.1875L16.4648-14.2773C14.9023-15.7324 12.8711-16.3574 10.8398-15.7617C10.6836-15.7227 10.625-15.8496 10.752-15.957ZM5.27344 2.30469L4.10156 1.14258C3.63281 0.683594 3.74023 0.341797 4.14062-0.0195312L14.9512-10.1953L16.416-8.71094L6.42578 2.27539C6.07422 2.67578 5.74219 2.77344 5.27344 2.30469Z"/>
  </g>
  <text style="stroke:none;fill:black;font-family:-apple-system,&quot;SF Pro Display&quot;,&quot;SF Pro Text&quot;,Helvetica,sans-serif;font-weight:bold;" transform="matrix(1 0 0 1 1289 1953)">Exporting</text>
  <text style="stroke:none;fill:black;font-family:-apple-system,&quot;SF Pro Display&quot;,&quot;SF Pro Text&quot;,Helvetica,sans-serif;" transform="matrix(1 0 0 1 1289 1971)">Symbols should be outlined when exporting to ensure the</text>
  <text style="stroke:none;fill:black;font-family:-apple-system,&quot;SF Pro Display&quot;,&quot;SF Pro Text&quot;,Helvetica,sans-serif;" transform="matrix(1 0 0 1 1289 1989)">design is preserved when submitting to Xcode.</text>
  <text id="template-version" style="stroke:none;fill:black;font-family:-apple-system,&quot;SF Pro Display&quot;,&quot;SF Pro Text&quot;,Helvetica,sans-serif;text-anchor:end;" transform="matrix(1 0 0 1 3036 1933)">Template v.2.0</text>
  <text style="stroke:none;fill:black;font-family:-apple-system,&quot;SF Pro Display&quot;,&quot;SF Pro Text&quot;,Helvetica,sans-serif;text-anchor:end;" transform="matrix(1 0 0 1 3036 1951)">Requires Xcode 12 or greater</text>
  <text style="stroke:none;fill:black;font-family:-apple-system,&quot;SF Pro Display&quot;,&quot;SF Pro Text&quot;,Helvetica,sans-serif;text-anchor:end;" transform="matrix(1 0 0 1 3036 1969)">Generated from pencil.tip.crop.circle.badge.arrow.forward</text>
  <text style="stroke:none;fill:black;font-family:-apple-system,&quot;SF Pro Display&quot;,&quot;SF Pro Text&quot;,Helvetica,sans-serif;text-anchor:end;" transform="matrix(1 0 0 1 3036 1987)">Typeset at 100 points</text>
  <text style="stroke:none;fill:black;font-family:-apple-system,&quot;SF Pro Display&quot;,&quot;SF Pro Text&quot;,Helvetica,sans-serif;" transform="matrix(1 0 0 1 263 726)">Small</text>
  <text style="stroke:none;fill:black;font-family:-apple-system,&quot;SF Pro Display&quot;,&quot;SF Pro Text&quot;,Helvetica,sans-serif;" transform="matrix(1 0 0 1 263 1156)">Medium</text>
  <text style="stroke:none;fill:black;font-family:-apple-system,&quot;SF Pro Display&quot;,&quot;SF Pro Text&quot;,Helvetica,sans-serif;" transform="matrix(1 0 0 1 263 1586)">Large</text>
 </g>
 <g id="Guides">
  <g id="H-reference" style="fill:#27AAE1;stroke:none;" transform="matrix(1 0 0 1 339 696)">
   <path d="M0.976562 0L3.66211 0L12.9883-24.4629L45.752-24.4629L55.127 0L57.7637 0L30.6152-70.459L28.125-70.459ZM29.3457-67.1387L29.4434-67.1387L44.873-26.709L13.8672-26.709Z"/>
  </g>
  <line id="Baseline-S" style="fill:none;stroke:#27AAE1;opacity:1;stroke-width:0.5;" x1="263" x2="3036" y1="696" y2="696"/>
  <line id="Capline-S" style="fill:none;stroke:#27AAE1;opacity:1;stroke-width:0.5;" x1="263" x2="3036" y1="625.541" y2="625.541"/>
  <g id="H-reference" style="fill:#27AAE1;stroke:none;" transform="matrix(1 0 0 1 339 1126)">
   <path d="M0.976562 0L3.66211 0L12.9883-24.4629L45.752-24.4629L55.127 0L57.7637 0L30.6152-70.459L28.125-70.459ZM29.3457-67.1387L29.4434-67.1387L44.873-26.709L13.8672-26.709Z"/>
  </g>
  <line id="Baseline-M" style="fill:none;stroke:#27AAE1;opacity:1;stroke-width:0.5;" x1="263" x2="3036" y1="1126" y2="1126"/>
  <line id="Capline-M" style="fill:none;stroke:#27AAE1;opacity:1;stroke-width:0.5;" x1="263" x2="3036" y1="1055.54" y2="1055.54"/>
  <g id="H-reference" style="fill:#27AAE1;stroke:none;" transform="matrix(1 0 0 1 339 1556)">
   <path d="M0.976562 0L3.66211 0L12.9883-24.4629L45.752-24.4629L55.127 0L57.7637 0L30.6152-70.459L28.125-70.459ZM29.3457-67.1387L29.4434-67.1387L44.873-26.709L13.8672-26.709Z"/>
  </g>
  <line id="Baseline-L" style="fill:none;stroke:#27AAE1;opacity:1;stroke-width:0.5;" x1="263" x2="3036" y1="1556" y2="1556"/>
  <line id="Capline-L" style="fill:none;stroke:#27AAE1;opacity:1;stroke-width:0.5;" x1="263" x2="3036" y1="1485.54" y2="1485.54"/>
  <line id="left-margin" style="fill:none;stroke:#00AEEF;stroke-width:0.5;opacity:1.0;" x1="1382.68" x2="1382.68" y1="1030.79" y2="1150.12"/>
  <line id="right-margin" style="fill:none;stroke:#00AEEF;stroke-width:0.5;opacity:1.0;" x1="1517.01" x2="1517.01" y1="1030.79" y2="1150.12"/>
 </g>
 <g id="Symbols">
  <g id="Black-L" transform="matrix(1 0 0 1 2844.17 1556)">
   <path d="M85.2051 32.8613C93.5059 32.8613 101.562 31.2988 108.984 28.5156C104.004 23.5352 100.293 17.334 98.291 10.5469C94.1895 11.7676 89.7461 12.4023 85.2051 12.4023C78.2715 12.4023 71.7285 10.9375 65.8203 8.34961L73.3887-22.2168L96.9727-22.2168L98.4863-15.3809C100.342-21.2891 103.516-26.709 107.568-31.2988L107.52-31.543C106.152-33.5449 104.053-35.1074 101.562-35.3516L101.514-35.3516L90.8691-63.8672C88.916-69.1406 81.3965-69.1406 79.4434-63.8672L68.7988-35.3516L68.75-35.3516C64.6484-34.8633 61.4746-31.2988 60.2539-27.0508L52.9297-0.146484C43.457-8.83789 37.5488-21.2891 37.5488-35.2051C37.5977-61.5723 58.8379-82.8125 85.2051-82.8125C108.105-82.8125 127.051-66.7969 131.689-45.3613C138.525-46.875 146.191-46.3867 152.637-44.5312C148.047-77.6367 119.482-103.271 85.2051-103.271C47.8027-103.271 17.1387-72.6074 17.1387-35.2051C17.1387 2.19727 47.7539 32.8613 85.2051 32.8613ZM140.479 31.8359C159.033 31.8359 174.463 16.3574 174.463-2.19727C174.463-20.752 159.082-36.1328 140.479-36.1328C121.875-36.1328 106.494-20.752 106.494-2.19727C106.494 16.3574 121.875 31.8359 140.479 31.8359ZM119.189-2.14844C119.189-6.10352 121.875-8.88672 125.732-8.88672L137.402-8.88672L142.725-8.54492L141.846-9.375L136.475-13.7695C135.303-14.6973 134.57-16.4062 134.57-18.0664C134.521-21.5332 137.256-24.2676 140.723-24.2676C142.334-24.2676 143.799-23.6328 144.922-22.5098L159.521-7.03125C161.084-5.41992 161.719-3.90625 161.719-2.14844C161.719-0.390625 161.133 1.12305 159.521 2.7832L144.922 18.1641C143.799 19.3848 142.334 20.0195 140.723 20.0195C137.305 20.0684 134.57 17.2852 134.57 13.8184C134.521 12.1582 135.254 10.4492 136.475 9.47266L141.846 5.07812L142.627 4.29688L137.402 4.58984L125.732 4.58984C121.875 4.58984 119.189 1.85547 119.189-2.14844Z"/>
  </g>
  <g id="Heavy-L" transform="matrix(1 0 0 1 2548.24 1556)">
   <path d="M84.082 31.7871C92.5781 31.7871 100.781 30.127 108.301 27.1484C104.053 22.8027 100.781 17.4805 98.9746 11.5723C94.3359 13.1836 89.3066 14.0137 84.082 14.0137C77.002 14.0137 70.3125 12.5488 64.209 9.86328L71.875-22.998L96.2891-22.998L98.2422-13.8184C99.8047-19.4336 102.637-24.6094 106.299-29.0039L105.957-30.6641C104.785-32.8125 102.637-34.5215 100.098-34.7168L99.8535-34.7168L89.3066-64.0137C87.5-68.8965 80.6152-68.8965 78.8086-64.0137L68.2129-34.7168L67.9688-34.7168C64.209-34.3262 61.2793-31.1035 60.2051-27.1973L52.5391 2.68555C41.6992-6.34766 34.8145-19.9707 34.8145-35.2051C34.8633-62.5 56.8359-84.4727 84.082-84.4727C108.203-84.4727 128.076-67.2852 132.373-44.4824C138.232-45.7031 144.971-45.2637 150.537-43.75C146.289-76.6113 118.018-102.246 84.082-102.246C47.3145-102.246 17.0898-72.0215 17.0898-35.2051C17.0898 1.5625 47.2656 31.7871 84.082 31.7871ZM139.502 31.2012C157.715 31.2012 172.9 15.9668 172.9-2.24609C172.9-20.5078 157.764-35.5957 139.502-35.5957C121.191-35.5957 106.055-20.5078 106.055-2.24609C106.055 16.0156 121.191 31.2012 139.502 31.2012ZM118.457-2.19727C118.457-5.71289 120.898-8.25195 124.268-8.25195L137.402-8.25195L143.457-7.91016L141.504-9.81445L136.084-14.4531C135.059-15.332 134.375-16.8457 134.375-18.3594C134.326-21.4844 136.768-23.9258 139.893-23.9258C141.406-23.9258 142.725-23.3398 143.75-22.2168L158.496-6.5918C159.912-5.12695 160.498-3.80859 160.498-2.19727C160.498-0.683594 159.961 0.683594 158.496 2.19727L143.75 17.7734C142.725 18.8965 141.406 19.4824 139.893 19.5312C136.816 19.5801 134.375 17.0898 134.375 13.9648C134.326 12.4512 135.01 10.8887 136.084 10.0098L141.504 5.37109L143.359 3.51562L137.402 3.80859L124.268 3.80859C120.898 3.80859 118.457 1.31836 118.457-2.19727Z"/>
  </g>
  <g id="Bold-L" transform="matrix(1 0 0 1 2252.4 1556)">
   <path d="M82.8125 30.5664C91.5527 30.5664 99.9023 28.8086 107.568 25.6348C104.102 22.0215 101.367 17.5781 99.7559 12.793C94.5312 14.7461 88.7695 15.8203 82.8125 15.8203C75.5859 15.8203 68.6523 14.3066 62.4512 11.6211L70.166-23.9258L95.5078-23.9258L97.9492-12.1094C99.2676-17.3828 101.709-22.2656 104.883-26.4648L104.199-29.6875C103.223-32.0312 101.074-33.8867 98.4863-33.9844L98.0469-33.9844L87.5-64.209C85.9375-68.7012 79.7363-68.6523 78.125-64.209L67.5293-33.9844L67.0898-33.9844C63.7207-33.7402 61.084-30.8594 60.2051-27.3926L52.2461 5.71289C39.7949-3.61328 31.7383-18.457 31.7871-35.2539C31.7871-63.5254 54.5898-86.2793 82.8613-86.2793C108.301-86.2793 129.199-67.7734 133.057-43.457C137.891-44.3848 143.652-44.043 148.193-42.8711C144.385-75.4395 116.406-101.074 82.8613-101.074C46.7773-101.074 16.9922-71.3379 16.9922-35.2539C16.9922 0.878906 46.7285 30.5664 82.8125 30.5664ZM138.379 30.4688C156.201 30.4688 171.143 15.5762 171.143-2.34375C171.143-20.2637 156.348-35.0586 138.379-35.0586C120.41-35.0586 105.615-20.2637 105.615-2.34375C105.615 15.6738 120.41 30.4688 138.379 30.4688ZM117.627-2.29492C117.627-5.32227 119.775-7.51953 122.705-7.51953L137.451-7.51953L144.287-7.22656L141.113-10.3027L135.693-15.1855C134.766-16.0156 134.18-17.334 134.131-18.6523C134.082-21.3867 136.23-23.4863 138.916-23.4863C140.283-23.4863 141.455-22.9492 142.432-21.9238L157.373-6.05469C158.594-4.78516 159.131-3.66211 159.131-2.29492C159.131-0.976562 158.643 0.195312 157.373 1.5625L142.432 17.334C141.455 18.4082 140.332 18.8965 138.916 18.9453C136.23 19.043 134.131 16.8457 134.131 14.1113C134.131 12.793 134.717 11.4258 135.693 10.6445L141.113 5.76172L144.238 2.63672L137.451 2.92969L122.705 2.92969C119.775 2.92969 117.627 0.732422 117.627-2.29492Z"/>
  </g>
  <g id="Semibold-L" transform="matrix(1 0 0 1 1956.28 1556)">
   <path d="M81.9824 29.7363C90.8203 29.7363 99.3164 27.8809 107.08 24.6094C104.102 21.4355 101.758 17.6758 100.293 13.5742C94.6289 15.8691 88.4277 17.041 81.9824 17.041C74.5605 17.041 67.5781 15.5273 61.1816 12.793L68.9941-24.5117L94.9707-24.5117L97.7539-10.8887C98.877-15.9668 101.025-20.6543 103.906-24.707L102.979-29.0039C102.148-31.4453 99.9512-33.4473 97.3633-33.4961L96.7773-33.4961L86.2793-64.3555C84.8633-68.5059 79.1016-68.5059 77.6855-64.3555L67.0898-33.4961L66.5039-33.4961C63.4277-33.3496 60.9375-30.7129 60.1562-27.4902L52.0508 7.71484C38.4766-1.70898 29.6387-17.4316 29.6875-35.2539C29.6875-64.209 53.0273-87.5488 82.0312-87.5488C108.398-87.5488 130.029-68.1641 133.594-42.7734C137.695-43.5059 142.676-43.1641 146.533-42.2363C143.066-74.6582 115.283-100.244 82.0312-100.244C46.3867-100.244 16.9434-70.8984 16.9434-35.2539C16.9434 0.390625 46.3379 29.7363 81.9824 29.7363ZM137.598 29.9805C155.176 29.9805 169.922 15.332 169.922-2.34375C169.922-20.0684 155.322-34.668 137.598-34.668C119.873-34.668 105.273-20.0684 105.273-2.34375C105.273 15.3809 119.873 29.9805 137.598 29.9805ZM117.041-2.34375C117.041-5.0293 119.043-7.03125 121.582-7.03125L137.451-7.03125L144.873-6.73828L140.82-10.6445L135.4-15.7227C134.57-16.5039 134.033-17.6758 133.984-18.8965C133.936-21.3379 135.84-23.1934 138.281-23.1934C139.551-23.1934 140.625-22.7051 141.504-21.7285L156.592-5.71289C157.715-4.58984 158.203-3.61328 158.203-2.34375C158.203-1.17188 157.764-0.0976562 156.592 1.07422L141.504 17.041C140.625 18.0664 139.6 18.5059 138.281 18.5547C135.84 18.6523 133.984 16.6504 133.984 14.209C133.984 13.0371 134.521 11.8164 135.4 11.0352L140.82 6.00586L144.824 2.05078L137.451 2.34375L121.582 2.34375C119.043 2.34375 117.041 0.292969 117.041-2.34375Z"/>
  </g>
  <g id="Medium-L" transform="matrix(1 0 0 1 1660.03 1556)">
   <path d="M81.3477 29.1504C90.2832 29.1504 98.877 27.1973 106.689 23.8281C104.15 20.9961 102.1 17.7246 100.684 14.209C94.7266 16.6504 88.1836 18.0176 81.3477 18.0176C73.8281 18.0176 66.6992 16.4551 60.2539 13.7207L68.0664-25L94.5801-25L97.6074-10.0098C98.584-14.8926 100.537-19.3848 103.174-23.3887L102.051-28.4668C101.367-31.0059 99.1211-33.1055 96.5332-33.1543L95.8496-33.1543L85.3516-64.4531C84.0332-68.4082 78.6621-68.3594 77.2949-64.4531L66.748-33.1543L66.0156-33.1543C63.1836-33.0566 60.8398-30.5664 60.1562-27.5879L51.9043 9.22852C37.5-0.292969 28.0273-16.6504 28.0762-35.2539C28.125-64.7461 51.8555-88.5254 81.3477-88.5254C108.447-88.5254 130.615-68.4082 133.936-42.2852C137.5-42.8223 141.992-42.5293 145.312-41.7969C142.041-74.0234 114.404-99.6582 81.3477-99.6582C46.0938-99.6582 16.9434-70.5078 16.9434-35.2539C16.9434 0 46.0449 29.1504 81.3477 29.1504ZM137.012 29.6387C154.443 29.6387 169.043 15.0879 169.043-2.39258C169.043-19.9707 154.59-34.4238 137.012-34.4238C119.482-34.4238 105.029-19.9219 105.029-2.39258C105.029 15.1855 119.482 29.6387 137.012 29.6387ZM116.602-2.39258C116.602-4.78516 118.457-6.64062 120.752-6.64062L137.5-6.64062L145.264-6.34766L140.625-10.8887L135.205-16.1133C134.424-16.8457 133.936-17.9199 133.887-19.043C133.789-21.2891 135.547-22.998 137.793-22.998C139.014-22.998 139.941-22.5586 140.82-21.582L156.006-5.46875C157.031-4.39453 157.52-3.51562 157.52-2.39258C157.52-1.31836 157.08-0.390625 156.006 0.732422L140.82 16.7969C139.941 17.7734 139.014 18.2129 137.793 18.2617C135.547 18.3594 133.887 16.5527 133.887 14.3066C133.838 13.1836 134.424 12.1094 135.205 11.3281L140.625 6.20117L145.264 1.61133L137.5 1.9043L120.752 1.9043C118.457 1.9043 116.602 0 116.602-2.39258Z"/>
  </g>
  <g id="Regular-L" transform="matrix(1 0 0 1 1363.91 1556)">
   <path d="M80.4688 28.3203C89.5996 28.3203 98.291 26.3184 106.152 22.8027C104.15 20.459 102.49 17.8223 101.221 15.0391C94.873 17.7246 87.8418 19.2383 80.4688 19.2383C72.8516 19.2383 65.625 17.6758 59.0332 14.8926L66.9434-25.5859L94.043-25.5859L97.4121-8.83789C98.1934-13.4766 99.8535-17.8223 102.197-21.6309L100.83-27.7832C100.293-30.4688 98.0469-32.666 95.4102-32.666L94.5801-32.666L84.1309-64.5996C82.959-68.2129 78.0762-68.2129 76.8555-64.5996L66.3086-32.666L65.4297-32.666C62.8418-32.666 60.6934-30.4199 60.1562-27.7344L51.7578 11.1328C36.2305 1.51367 25.9277-15.625 25.9766-35.2539C26.0254-65.4785 50.3418-89.7461 80.5176-89.7461C108.545-89.7461 131.396-68.7988 134.424-41.6016C137.305-41.8945 141.064-41.6504 143.701-41.1621C140.771-73.2422 113.281-98.877 80.5176-98.877C45.7031-98.877 16.8945-70.0684 16.8945-35.2539C16.8945-0.488281 45.6543 28.3203 80.4688 28.3203ZM136.279 29.1504C153.418 29.1504 167.871 14.8438 167.871-2.44141C167.871-19.7754 153.613-34.0332 136.279-34.0332C118.994-34.0332 104.688-19.7266 104.688-2.44141C104.688 14.9414 118.994 29.1504 136.279 29.1504ZM116.016-2.44141C116.016-4.49219 117.676-6.15234 119.678-6.15234L137.5-6.15234L145.85-5.9082L140.381-11.2305L134.912-16.6504C134.229-17.334 133.789-18.2617 133.74-19.2383C133.643-21.2402 135.156-22.7051 137.158-22.7051C138.232-22.7051 139.111-22.3145 139.941-21.3379L155.273-5.12695C156.152-4.19922 156.543-3.41797 156.543-2.44141C156.543-1.51367 156.201-0.732422 155.273 0.292969L139.941 16.5039C139.111 17.4316 138.281 17.8223 137.158 17.8711C135.156 17.9688 133.74 16.3574 133.74 14.4043C133.691 13.4277 134.229 12.4512 134.912 11.7676L140.381 6.44531L145.85 0.976562L137.5 1.31836L119.678 1.31836C117.676 1.31836 116.016-0.390625 116.016-2.44141Z"/>
  </g>
  <g id="Light-L" transform="matrix(1 0 0 1 1068.22 1556)">
   <path d="M79.541 27.3926C88.9648 27.3926 97.9492 25.2441 105.957 21.4355C104.443 19.6777 103.174 17.7246 102.148 15.625C95.2637 18.75 87.6465 20.5078 79.541 20.5078C71.3867 20.5078 63.623 18.75 56.6406 15.625L65.4297-26.8555L93.6523-26.8555L97.6074-8.30078C98.1934-12.1094 99.4629-15.7227 101.27-18.9941L99.1699-28.2227C98.6816-30.5664 96.6797-32.4707 94.3359-32.4707L93.1152-32.4707L82.5684-65.1367C81.5918-68.0664 77.5391-68.0176 76.6113-65.1367L65.9668-32.4707L64.6484-32.4707C62.3535-32.4707 60.4492-30.5664 59.9121-28.1738L50.9277 12.6465C34.6191 2.88086 23.7793-14.8926 23.7793-35.2539C23.8281-66.1133 48.7305-91.0156 79.5898-91.0156C108.74-91.0156 132.568-68.6523 134.961-40.0879C137.158-40.2832 139.941-40.0391 141.992-39.6484C139.746-71.9727 112.451-97.9492 79.5898-97.9492C45.2148-97.9492 16.8945-69.6289 16.8945-35.2539C16.8945-0.927734 45.2148 27.3926 79.541 27.3926ZM134.863 28.3691C151.709 28.3691 165.82 14.3555 165.82-2.63672C165.82-19.6289 151.855-33.5938 134.863-33.5938C117.871-33.5938 103.857-19.5801 103.857-2.63672C103.857 14.4043 117.871 28.3691 134.863 28.3691ZM114.648-2.63672C114.648-4.3457 116.016-5.76172 117.676-5.76172L137.061-5.76172L145.801-5.51758L138.623-12.5977L134.033-17.1387C133.447-17.6758 133.057-18.5059 133.008-19.3848C132.959-21.0938 134.277-22.3633 135.986-22.3633C136.963-22.3633 137.695-21.9238 138.574-21.0449L154.053-4.88281C154.785-4.19922 155.176-3.51562 155.176-2.63672C155.176-1.85547 154.834-1.17188 154.053-0.292969L138.574 15.8203C137.695 16.748 137.012 17.1387 135.986 17.1875C134.277 17.2363 133.008 15.8691 133.008 14.1602C133.008 13.2812 133.447 12.4512 134.033 11.8652L138.623 7.42188L145.801 0.292969L137.061 0.537109L117.676 0.537109C116.016 0.537109 114.648-0.878906 114.648-2.63672Z"/>
  </g>
  <g id="Thin-L" transform="matrix(1 0 0 1 772.828 1556)">
   <path d="M78.3203 26.1719C88.1348 26.1719 97.4609 23.8281 105.713 19.6289C104.834 18.6523 104.053 17.5293 103.418 16.4062C95.8008 20.1172 87.3535 22.168 78.3203 22.168C69.3848 22.168 60.9375 20.166 53.418 16.5039L63.4766-28.5645L93.1152-28.5645L97.9004-7.61719C98.2422-10.3516 98.9746-12.9883 100-15.4297L96.9238-28.7598C96.5332-30.7129 94.873-32.2754 92.9199-32.2754L91.1621-32.2754L80.4199-65.8203C79.7852-67.8711 76.9043-67.8223 76.2695-65.8203L65.5273-32.2754L63.623-32.2754C61.7188-32.2754 60.1074-30.7129 59.668-28.7598L49.8047 14.5996C32.5195 4.6875 20.8496-13.9648 20.8984-35.2539C20.8984-66.9922 46.6309-92.7246 78.3203-92.7246C109.033-92.7246 134.131-68.5059 135.645-38.1348C137.012-38.0859 138.379-37.9395 139.746-37.6465C138.428-70.3125 111.279-96.7285 78.3203-96.7285C44.5801-96.7285 16.8945-69.043 16.8945-35.2539C16.8945-1.51367 44.5801 26.1719 78.3203 26.1719ZM132.959 27.3438C149.463 27.3438 163.184 13.7207 163.184-2.88086C163.184-19.4824 149.561-33.0566 132.959-33.0566C116.455-33.0566 102.783-19.3848 102.783-2.88086C102.783 13.7207 116.455 27.3438 132.959 27.3438ZM112.793-2.88086C112.793-4.19922 113.818-5.17578 115.088-5.17578L136.475-5.17578L145.752-5.07812L136.377-14.3555L132.861-17.8223C132.422-18.1641 132.08-18.8477 132.08-19.5312C132.08-20.8984 133.008-21.875 134.424-21.875C135.254-21.875 135.84-21.4844 136.719-20.6055L152.49-4.54102C153.027-4.15039 153.32-3.56445 153.32-2.88086C153.32-2.34375 153.027-1.75781 152.49-1.12305L136.719 14.8926C135.84 15.8203 135.303 16.2109 134.424 16.2109C133.008 16.2109 132.08 15.1855 132.08 13.8184C132.08 13.0859 132.422 12.5 132.861 12.0605L136.377 8.69141L145.752-0.683594L136.475-0.488281L115.088-0.488281C113.818-0.488281 112.793-1.5625 112.793-2.88086Z"/>
  </g>
  <g id="Ultralight-L" transform="matrix(1 0 0 1 476.801 1556)">
   <path d="M77.6855 25.5371C87.6953 25.5371 97.168 23.0957 105.615 18.75C105.029 18.1152 104.541 17.4316 104.053 16.7969C96.0938 20.8008 87.207 23.0469 77.6855 23.0469C68.4082 23.0469 59.5703 20.8496 51.7578 16.9434L62.5-29.3945L92.8223-29.3945L97.998-7.27539C98.291-9.42383 98.7305-11.5723 99.3164-13.6719L95.8008-29.0527C95.4102-30.8105 93.9453-32.1777 92.2363-32.1777L90.1367-32.1777L79.3457-66.1621C78.8574-67.7734 76.5625-67.7246 76.0742-66.1621L65.2832-32.1777L63.1348-32.1777C61.377-32.1777 59.9121-30.8105 59.5215-29.0527L49.2188 15.5762C31.4453 5.56641 19.3848-13.4766 19.3848-35.2539C19.3848-67.4316 45.5566-93.6035 77.6855-93.6035C109.18-93.6035 134.912-68.457 135.986-37.1094C136.914-36.9629 137.646-36.8164 138.574-36.6211C137.744-69.4336 110.693-96.0938 77.6855-96.0938C44.2383-96.0938 16.8945-68.75 16.8945-35.2539C16.8945-1.80664 44.2383 25.5371 77.6855 25.5371ZM131.982 26.8066C148.34 26.8066 161.816 13.3789 161.816-2.97852C161.816-19.3848 148.389-32.8125 131.982-32.8125C115.723-32.8125 102.197-19.2871 102.197-2.97852C102.197 13.3789 115.723 26.8066 131.982 26.8066ZM111.816-2.97852C111.816-4.10156 112.695-4.88281 113.721-4.88281L136.182-4.88281L145.703-4.83398L135.205-15.2832L132.275-18.1641C131.885-18.4082 131.592-19.043 131.592-19.6289C131.592-20.8496 132.422-21.6309 133.594-21.6309C134.375-21.6309 134.912-21.2402 135.791-20.3613L151.709-4.39453C152.148-4.15039 152.344-3.61328 152.344-2.97852C152.344-2.58789 152.148-2.05078 151.709-1.51367L135.791 14.4531C134.912 15.332 134.473 15.7227 133.594 15.7227C132.422 15.7227 131.592 14.8438 131.592 13.623C131.592 13.0371 131.885 12.5 132.275 12.1582L135.205 9.375L145.703-1.17188L136.182-1.02539L113.721-1.02539C112.695-1.02539 111.816-1.9043 111.816-2.97852Z"/>
  </g>
  <g id="Black-M" transform="matrix(1 0 0 1 2863.75 1126)">
   <path d="M67.041 18.457C73.3887 18.457 79.541 17.3828 85.2539 15.2344C80.7129 10.8887 77.3926 5.27344 75.7324-0.878906C72.998-0.146484 70.0195 0.195312 67.041 0.195312C61.5723 0.195312 56.4453-1.02539 51.8555-3.22266L58.1055-24.7559L75.8301-24.7559L76.7578-21.6309C78.4668-26.1719 81.1523-30.3711 84.5215-33.8379C83.3008-34.9609 81.7871-35.8398 80.0781-36.084L71.7285-57.4707C70.0684-61.7188 63.8672-61.7188 62.2559-57.4707L53.9062-36.084C50.3906-35.5469 47.7539-32.5684 46.6309-28.9062L41.1133-11.084C35.2051-17.3828 31.6406-25.8789 31.6406-35.2051C31.5918-54.7363 47.4609-70.6055 67.041-70.6055C83.7402-70.6055 97.7051-59.0332 101.465-43.457C107.666-44.9707 114.307-44.5312 120.215-42.6758C116.504-68.7988 94.0918-88.8672 67.041-88.8672C37.4023-88.8672 13.3301-64.7949 13.3301-35.2051C13.3301-5.61523 37.4512 18.457 67.041 18.457ZM109.424 17.1875C124.121 17.1875 136.23 4.98047 136.23-9.66797C136.23-24.2676 124.121-36.377 109.424-36.377C94.7754-36.377 82.666-24.2676 82.666-9.66797C82.666 4.93164 94.7754 17.1875 109.424 17.1875ZM84.5703-33.8379L84.5703-33.8379ZM92.6758-9.57031C92.6758-13.0859 94.9219-15.4297 98.291-15.4297L106.201-15.4297L109.619-15.1855L109.473-15.332L105.762-17.9199C104.785-18.7012 104.15-20.2148 104.15-21.6309C104.15-24.6582 106.543-27.0508 109.57-27.0508C110.938-27.0508 112.207-26.5137 113.135-25.5371L124.365-13.8672C125.732-12.5 126.221-11.1328 126.221-9.57031C126.221-8.05664 125.732-6.68945 124.365-5.32227L113.135 6.34766C112.207 7.32422 110.938 7.91016 109.57 7.91016C106.592 7.91016 104.15 5.51758 104.15 2.49023C104.15 1.02539 104.736-0.488281 105.762-1.2207L109.473-3.90625L109.521-3.90625L106.201-3.71094L98.291-3.71094C94.9219-3.71094 92.6758-6.05469 92.6758-9.57031Z"/>
  </g>
  <g id="Heavy-M" transform="matrix(1 0 0 1 2567.62 1126)">
   <path d="M66.0645 17.5293C72.5098 17.5293 78.8086 16.3574 84.5703 14.1113C80.6641 10.3027 77.7832 5.46875 76.2695 0.0976562C73.0469 1.12305 69.5801 1.61133 66.0645 1.61133C60.5957 1.61133 55.4199 0.439453 50.7324-1.66016L56.8359-25.293L75.1953-25.293L76.416-20.0684C77.8809-24.5117 80.3223-28.6133 83.3984-32.0312L83.252-32.7148C82.1777-34.1309 80.6152-35.2051 78.7598-35.4004L78.6621-35.4004L70.4102-57.5195C68.8965-61.5234 63.1348-61.5234 61.6699-57.5195L53.3691-35.4004L53.2715-35.4004C50.0488-35.0586 47.6074-32.2754 46.6309-28.9551L40.8691-8.30078C33.6914-15.0391 29.1992-24.5605 29.1992-35.2051C29.1992-55.6152 45.6543-72.0703 66.0645-72.0703C83.8379-72.0703 98.5352-59.5703 102.051-42.8711C107.373-44.1406 113.281-43.75 118.359-42.2363C114.893-68.0176 92.7246-87.9883 66.0645-87.9883C37.0117-87.9883 13.2812-64.2578 13.2812-35.2051C13.2812-6.20117 37.0117 17.5293 66.0645 17.5293ZM108.74 16.6992C123.096 16.6992 135.059 4.6875 135.059-9.66797C135.059-24.0234 123.145-35.9375 108.74-35.9375C94.3359-35.9375 82.4219-24.0234 82.4219-9.66797C82.4219 4.73633 94.3359 16.6992 108.74 16.6992ZM92.1875-9.61914C92.1875-12.7441 94.2871-14.8438 97.2656-14.8438L106.348-14.8438L110.449-14.5996L109.57-15.4785L105.615-18.5547C104.688-19.2871 104.15-20.6055 104.15-21.9238C104.102-24.6094 106.25-26.7578 108.936-26.7578C110.205-26.7578 111.377-26.2207 112.207-25.3418L123.584-13.4277C124.805-12.1582 125.293-11.0352 125.293-9.61914C125.293-8.25195 124.805-7.03125 123.584-5.81055L112.207 6.05469C111.377 7.03125 110.205 7.51953 108.936 7.51953C106.299 7.56836 104.15 5.41992 104.15 2.68555C104.102 1.36719 104.639 0.0488281 105.615-0.683594L109.57-3.80859L110.352-4.58984L106.348-4.39453L97.2656-4.39453C94.2871-4.39453 92.1875-6.49414 92.1875-9.61914Z"/>
  </g>
  <g id="Bold-M" transform="matrix(1 0 0 1 2271.57 1126)">
   <path d="M64.9414 16.5039C71.582 16.5039 77.9785 15.2344 83.8379 12.8906C80.6152 9.61914 78.2227 5.61523 76.8066 1.2207C73.1445 2.53906 69.1406 3.22266 64.9414 3.22266C59.4727 3.22266 54.248 2.09961 49.5117 0L55.4199-25.8789L74.4629-25.8789L76.0742-18.3594C77.2461-22.6562 79.3945-26.6113 82.1289-30.0293L81.8359-31.4941C80.957-33.2031 79.2969-34.5703 77.3438-34.7168L77.0996-34.7168L68.9453-57.5684C67.5781-61.2793 62.3535-61.2793 60.9863-57.5684L52.7344-34.7168L52.5391-34.7168C49.707-34.4238 47.4609-31.9824 46.6797-29.0527L40.6738-5.37109C32.0312-12.4023 26.5137-23.1445 26.5137-35.2051C26.5137-56.543 43.7012-73.6816 64.9902-73.6816C83.8867-73.6816 99.4141-60.1562 102.686-42.2363C107.08-43.1641 112.158-42.8223 116.26-41.6992C113.086-67.0898 91.2109-86.9629 64.9902-86.9629C36.5723-86.9629 13.2324-63.623 13.2324-35.2051C13.2324-6.83594 36.5723 16.5039 64.9414 16.5039ZM107.91 16.1621C121.973 16.1621 133.74 4.39453 133.74-9.66797C133.74-23.7793 122.07-35.4492 107.91-35.4492C93.7988-35.4492 82.1289-23.7793 82.1289-9.66797C82.1289 4.44336 93.7988 16.1621 107.91 16.1621ZM91.6992-9.66797C91.6992-12.3047 93.5547-14.209 96.0938-14.209L106.494-14.209L111.328-13.916L109.619-15.5762L105.42-19.2383C104.639-19.9219 104.15-21.0449 104.102-22.2168C104.053-24.5605 105.908-26.3672 108.252-26.3672C109.424-26.3672 110.4-25.9277 111.182-25.0977L122.656-12.9395C123.73-11.8164 124.17-10.8398 124.17-9.66797C124.17-8.49609 123.779-7.4707 122.656-6.34766L111.182 5.76172C110.4 6.64062 109.424 7.08008 108.252 7.12891C105.957 7.17773 104.102 5.27344 104.102 2.92969C104.102 1.80664 104.59 0.634766 105.42-0.0488281L109.619-3.71094L111.279-5.32227L106.494-5.12695L96.0938-5.12695C93.5547-5.12695 91.6992-6.98242 91.6992-9.66797Z"/>
  </g>
  <g id="Semibold-M" transform="matrix(1 0 0 1 1975.3 1126)">
   <path d="M64.209 15.8203C70.8984 15.8203 77.3926 14.4531 83.3008 12.0117C80.6152 9.17969 78.5156 5.76172 77.2461 2.00195C73.1934 3.51562 68.7988 4.3457 64.209 4.3457C58.6914 4.3457 53.418 3.22266 48.6328 1.17188L54.4434-26.3184L73.9746-26.3184L75.8301-17.1387C76.8066-21.3867 78.7598-25.293 81.2988-28.6133L80.8594-30.6641C80.127-32.5684 78.3691-34.1309 76.3184-34.1797L76.0254-34.1797L67.9199-57.6172C66.6504-61.1328 61.7676-61.1328 60.498-57.6172L52.3438-34.1797L52.0508-34.1797C49.4141-34.0332 47.3633-31.7871 46.6797-29.1016L40.625-3.41797C30.9082-10.5957 24.6094-22.168 24.6582-35.2539C24.6582-57.1777 42.2852-74.8047 64.2578-74.8047C83.9355-74.8047 100.049-60.5469 103.125-41.7969C106.836-42.4805 111.377-42.1875 114.844-41.3086C111.816-66.5039 90.1367-86.2793 64.2578-86.2793C36.2793-86.2793 13.1836-63.2324 13.1836-35.2539C13.1836-7.27539 36.2305 15.8203 64.209 15.8203ZM107.373 15.7715C121.24 15.7715 132.812 4.19922 132.812-9.7168C132.812-23.6328 121.338-35.1074 107.373-35.1074C93.457-35.1074 81.9336-23.6328 81.9336-9.7168C81.9336 4.24805 93.457 15.7715 107.373 15.7715ZM91.3574-9.66797C91.3574-12.0117 93.0176-13.7207 95.2637-13.7207L106.641-13.7207L111.963-13.4766L109.668-15.6738L105.273-19.7266C104.541-20.3613 104.15-21.3867 104.102-22.4121C104.053-24.5117 105.713-26.123 107.812-26.123C108.838-26.123 109.766-25.7324 110.498-24.9512L122.07-12.5977C123.047-11.6211 123.438-10.7422 123.438-9.66797C123.438-8.64258 123.047-7.71484 122.07-6.68945L110.498 5.56641C109.766 6.39648 108.887 6.78711 107.812 6.83594C105.713 6.88477 104.102 5.17578 104.102 3.07617C104.053 2.05078 104.541 1.02539 105.273 0.341797L109.668-3.61328L111.914-5.85938L106.641-5.61523L95.2637-5.61523C93.0176-5.61523 91.3574-7.37305 91.3574-9.66797Z"/>
  </g>
  <g id="Medium-M" transform="matrix(1 0 0 1 1678.95 1126)">
   <path d="M63.623 15.2344C70.4102 15.2344 76.9531 13.8184 82.9102 11.3281C80.5664 8.83789 78.7109 5.85938 77.5391 2.58789C73.2422 4.29688 68.5547 5.17578 63.623 5.17578C58.0566 5.17578 52.7832 4.05273 47.998 2.05078L53.6621-26.6113L73.6328-26.6113L75.6348-16.2598C76.5137-20.4102 78.2715-24.2188 80.6152-27.5879L80.0781-30.0293C79.4922-32.1289 77.6855-33.7891 75.5371-33.8379L75.1953-33.8379L67.1387-57.666C65.9668-61.0352 61.3281-61.0352 60.1562-57.666L52.002-33.8379L51.6602-33.8379C49.2676-33.7402 47.2656-31.6406 46.6797-29.1016L40.5762-2.00195C30.0781-9.27734 23.1934-21.4355 23.2422-35.2539C23.291-57.666 41.2598-75.6348 63.6719-75.6348C83.9355-75.6348 100.537-60.8887 103.467-41.4551C106.689-41.9922 110.742-41.748 113.77-41.0645C110.889-66.0156 89.3555-85.7422 63.6719-85.7422C36.0352-85.7422 13.1348-62.8906 13.1348-35.2539C13.1348-7.61719 35.9863 15.2344 63.623 15.2344ZM106.982 15.4785C120.654 15.4785 132.129 4.05273 132.129-9.7168C132.129-23.4863 120.752-34.8633 106.982-34.8633C93.1641-34.8633 81.7871-23.4863 81.7871-9.7168C81.7871 4.10156 93.1641 15.4785 106.982 15.4785ZM91.0645-9.7168C91.0645-11.7676 92.6758-13.3789 94.6777-13.3789L106.738-13.3789L112.451-13.1348L109.717-15.7715L105.176-20.0684C104.541-20.7031 104.102-21.6309 104.102-22.5586C104.004-24.4629 105.518-25.9766 107.422-25.9766C108.447-25.9766 109.277-25.5859 109.961-24.8535L121.582-12.3535C122.461-11.4258 122.9-10.6445 122.9-9.7168C122.9-8.74023 122.51-7.95898 121.582-6.98242L109.961 5.41992C109.277 6.20117 108.447 6.5918 107.422 6.64062C105.518 6.68945 104.102 5.12695 104.102 3.22266C104.053 2.24609 104.492 1.31836 105.176 0.683594L109.717-3.56445L112.402-6.25L106.738-5.95703L94.6777-5.95703C92.6758-5.95703 91.0645-7.61719 91.0645-9.7168Z"/>
  </g>
  <g id="Regular-M" transform="matrix(1 0 0 1 1382.68 1126)">
   <path d="M62.8906 14.5508C69.7754 14.5508 76.3672 13.0859 82.373 10.498C80.5664 8.34961 79.0527 5.95703 77.9297 3.36914C73.291 5.22461 68.2129 6.25 62.8906 6.25C57.2754 6.25 51.9531 5.17578 47.1191 3.17383L52.6855-27.0508L73.1445-27.0508L75.3906-15.0391C76.0742-19.1406 77.6367-22.9004 79.7363-26.2207L79.1016-29.1992C78.6621-31.4941 76.7578-33.3496 74.5605-33.3496L74.1211-33.3496L66.1133-57.7148C65.0391-60.8887 60.791-60.8887 59.7168-57.7148L51.6113-33.3496L51.1719-33.3496C48.9746-33.3496 47.168-31.4453 46.7285-29.1504L40.5762-0.195312C29.0039-7.51953 21.3379-20.459 21.3867-35.2539C21.4355-58.3008 39.8926-76.7578 62.9395-76.7578C83.9844-76.7578 101.123-61.2793 103.906-41.0156C106.494-41.3574 109.961-41.1133 112.354-40.6738C109.668-65.4297 88.2812-85.0586 62.9395-85.0586C35.7422-85.0586 13.0859-62.5 13.0859-35.2539C13.0859-8.05664 35.6934 14.5508 62.8906 14.5508ZM106.445 15.0879C119.873 15.0879 131.25 3.85742 131.25-9.7168C131.25-23.3398 120.02-34.5215 106.445-34.5215C92.8223-34.5215 81.5918-23.291 81.5918-9.7168C81.5918 3.95508 92.8223 15.0879 106.445 15.0879ZM90.7227-9.7168C90.7227-11.4746 92.1387-12.9395 93.8477-12.9395L106.836-12.9395L113.037-12.6953L109.766-15.8691L105.078-20.5566C104.443-21.1426 104.102-21.9238 104.053-22.7539C103.955-24.4629 105.273-25.7324 106.982-25.7324C107.91-25.7324 108.594-25.3906 109.277-24.6582L120.996-12.0117C121.777-11.1816 122.119-10.5469 122.119-9.7168C122.119-8.88672 121.826-8.20312 120.996-7.37305L109.277 5.22461C108.594 6.00586 107.91 6.29883 106.982 6.34766C105.273 6.44531 104.053 5.07812 104.053 3.36914C104.004 2.53906 104.443 1.70898 105.078 1.12305L109.766-3.51562L113.037-6.73828L106.836-6.49414L93.8477-6.49414C92.1387-6.49414 90.7227-7.95898 90.7227-9.7168Z"/>
  </g>
  <g id="Light-M" transform="matrix(1 0 0 1 1086.87 1126)">
   <path d="M62.0605 13.7207C69.2383 13.7207 76.0742 12.1094 82.2266 9.27734C80.8105 7.66602 79.6387 5.85938 78.7598 3.90625C73.6328 6.15234 68.0176 7.37305 62.0605 7.37305C55.957 7.37305 50.1953 6.10352 44.9707 3.85742L51.3672-28.1738L72.7539-28.1738L75.5371-14.5996C76.0742-17.9199 77.2949-21.0449 78.9062-23.8281L77.5879-29.5898C77.1973-31.5918 75.5371-33.2031 73.584-33.2031L72.8027-33.2031L64.6973-58.1543C63.8184-60.7422 60.3516-60.7422 59.4727-58.1543L51.2695-33.2031L50.4883-33.2031C48.5352-33.2031 46.9238-31.543 46.5332-29.541L39.8438 1.17188C27.5879-6.29883 19.3848-19.7754 19.4336-35.2539C19.4336-58.8867 38.4766-77.9297 62.1094-77.9297C84.1797-77.9297 102.197-61.1816 104.346-39.6973C106.348-39.8926 108.936-39.6973 110.84-39.3555C108.74-64.3066 87.5-84.2285 62.1094-84.2285C35.2539-84.2285 13.0859-62.1094 13.0859-35.2539C13.0859-8.44727 35.2539 13.7207 62.0605 13.7207ZM105.127 14.4043C118.359 14.4043 129.443 3.41797 129.443-9.86328C129.443-23.1934 118.457-34.1797 105.127-34.1797C91.8457-34.1797 80.8594-23.1934 80.8594-9.86328C80.8594 3.4668 91.8457 14.4043 105.127 14.4043ZM89.4531-9.86328C89.4531-11.377 90.6738-12.5488 92.0898-12.5488L106.445-12.5488L113.037-12.3535L108.203-17.0898L104.297-20.9961C103.76-21.4844 103.467-22.168 103.418-22.9004C103.369-24.3164 104.443-25.3906 105.908-25.3906C106.738-25.3906 107.373-25.0977 108.008-24.3652L119.922-11.8164C120.557-11.1816 120.898-10.5957 120.898-9.86328C120.898-9.22852 120.605-8.64258 119.922-7.91016L108.008 4.63867C107.373 5.37109 106.738 5.66406 105.908 5.71289C104.443 5.76172 103.418 4.58984 103.418 3.125C103.369 2.44141 103.76 1.70898 104.297 1.2207L108.203-2.63672L113.037-7.37305L106.445-7.17773L92.0898-7.17773C90.6738-7.17773 89.4531-8.39844 89.4531-9.86328Z"/>
  </g>
  <g id="Thin-M" transform="matrix(1 0 0 1 791.359 1126)">
   <path d="M60.9863 12.5977C68.457 12.5977 75.6348 10.8398 81.9824 7.66602C81.1523 6.73828 80.4688 5.71289 79.8828 4.58984C74.1211 7.37305 67.7246 8.88672 60.9863 8.88672C54.1992 8.88672 47.8027 7.37305 42.0898 4.6875L49.6094-29.6875L72.2656-29.6875L75.7812-13.9648C76.123-16.3086 76.8066-18.6035 77.7344-20.6543L75.5859-30.0781C75.2441-31.6895 73.9258-33.0078 72.3145-33.0078L71.0449-33.0078L62.793-58.7891C62.207-60.5957 59.7168-60.5469 59.1797-58.7891L50.8789-33.0078L49.5605-33.0078C47.9492-33.0078 46.6309-31.6895 46.2891-30.0781L38.8184 2.97852C25.6836-4.6875 16.7969-18.9453 16.7969-35.2539C16.7969-59.6191 36.6211-79.4434 60.9863-79.4434C84.4727-79.4434 103.613-61.084 104.98-37.8906C106.201-37.9395 107.568-37.793 108.789-37.5488C107.568-62.793 86.4746-83.1543 60.9863-83.1543C34.668-83.1543 13.0859-61.5723 13.0859-35.2539C13.0859-8.98438 34.668 12.5977 60.9863 12.5977ZM103.467 13.4766C116.309 13.4766 127.051 2.83203 127.051-10.1074C127.051-23.0469 116.406-33.6914 103.467-33.6914C90.5762-33.6914 79.8828-22.998 79.8828-10.1074C79.8828 2.88086 90.5762 13.4766 103.467 13.4766ZM87.793-10.1074C87.793-11.2305 88.7207-12.0605 89.7461-12.0605L105.908-12.0605L112.988-11.9629L106.201-18.7012L103.223-21.582C102.832-21.9238 102.588-22.4609 102.588-23.0469C102.539-24.1699 103.369-25 104.492-25C105.176-25 105.713-24.6582 106.348-23.9746L118.555-11.5234C118.994-11.1328 119.238-10.6934 119.238-10.1074C119.238-9.61914 118.994-9.13086 118.555-8.64258L106.348 3.80859C105.713 4.54102 105.225 4.83398 104.492 4.83398C103.369 4.88281 102.588 4.00391 102.588 2.83203C102.539 2.24609 102.832 1.75781 103.223 1.36719L106.201-1.46484L112.988-8.25195L105.908-8.10547L89.7461-8.10547C88.7207-8.10547 87.793-8.98438 87.793-10.1074Z"/>
  </g>
  <g id="Ultralight-M" transform="matrix(1 0 0 1 495.258 1126)">
   <path d="M60.4004 12.0605C68.0664 12.0605 75.3906 10.2051 81.8848 6.88477C81.3477 6.25 80.8594 5.61523 80.4688 4.98047C74.3652 7.95898 67.627 9.66797 60.4004 9.66797C53.3203 9.66797 46.582 8.00781 40.625 5.07812L48.7305-30.4688L72.0215-30.4688L75.9277-13.6719C76.1719-15.4785 76.5625-17.334 77.1484-19.043L74.5605-30.3711C74.2676-31.7871 73.0957-32.8613 71.6797-32.8613L70.166-32.8613L61.8164-59.082C61.377-60.498 59.4238-60.4492 58.9844-59.082L50.6348-32.8613L49.0723-32.8613C47.6562-32.8613 46.4844-31.7871 46.1914-30.3711L38.3301 3.85742C24.707-3.85742 15.4785-18.5059 15.4785-35.2539C15.4785-60.0586 35.6445-80.1758 60.4004-80.1758C84.5703-80.1758 104.346-60.9863 105.273-37.0117C106.152-36.9141 106.885-36.8164 107.715-36.6211C106.982-62.0117 85.9863-82.5684 60.4004-82.5684C34.375-82.5684 13.0859-61.2793 13.0859-35.2539C13.0859-9.22852 34.375 12.0605 60.4004 12.0605ZM102.588 12.9883C115.283 12.9883 125.83 2.53906 125.83-10.2051C125.83-22.998 115.332-33.4473 102.588-33.4473C89.8926-33.4473 79.3945-22.9004 79.3945-10.2051C79.3945 2.53906 89.8926 12.9883 102.588 12.9883ZM86.9629-10.2051C86.9629-11.1328 87.6953-11.8164 88.5254-11.8164L105.615-11.8164L112.939-11.7676L105.127-19.4824L102.686-21.875C102.393-22.1191 102.148-22.6074 102.148-23.0957C102.148-24.1211 102.783-24.7559 103.809-24.7559C104.395-24.7559 104.834-24.4629 105.518-23.7793L117.822-11.377C118.164-11.1328 118.359-10.6934 118.359-10.2051C118.359-9.86328 118.164-9.42383 117.822-8.98438L105.518 3.41797C104.834 4.10156 104.492 4.39453 103.809 4.39453C102.783 4.39453 102.148 3.66211 102.148 2.68555C102.148 2.19727 102.393 1.75781 102.686 1.46484L105.127-0.878906L112.939-8.69141L105.615-8.54492L88.5254-8.54492C87.6953-8.54492 86.9629-9.27734 86.9629-10.2051Z"/>
  </g>
  <g id="Black-S" transform="matrix(1 0 0 1 2878.86 696)">
   <path d="M52.4414 6.78711C57.4219 6.78711 62.2559 5.9082 66.748 4.24805C63.2324 0.878906 60.6445-3.4668 59.375-8.25195C57.1777-7.66602 54.834-7.37305 52.4414-7.37305C48.1934-7.37305 44.1895-8.30078 40.5762-10.0098L45.459-27.0508L59.375-27.0508L60.1074-24.4629C61.4258-28.0273 63.5254-31.2988 66.1621-34.0332C65.1855-34.9609 64.0137-35.6445 62.6465-35.8398L56.1035-52.6367C54.834-55.957 50-55.957 48.7305-52.6367L42.1875-35.8398C39.4531-35.4492 37.4023-33.1055 36.5234-30.2734L32.1777-16.1133C27.4902-21.0938 24.6094-27.832 24.6094-35.2051C24.6094-50.5859 37.0605-63.0371 52.4414-63.0371C65.625-63.0371 76.6113-53.9062 79.541-41.6504C84.3262-42.8223 89.502-42.4805 94.043-41.0645C91.1621-61.4746 73.6328-77.1973 52.4414-77.1973C29.2969-77.1973 10.4492-58.3496 10.4492-35.2051C10.4492-12.0605 29.2969 6.78711 52.4414 6.78711ZM85.6934 5.81055C97.168 5.81055 106.641-3.75977 106.641-15.1855C106.641-26.6113 97.168-36.084 85.6934-36.084C74.2188-36.084 64.7461-26.6113 64.7461-15.1855C64.7461-3.75977 74.2188 5.81055 85.6934 5.81055ZM72.5586-15.1367C72.5586-17.8711 74.3164-19.6777 76.9531-19.6777L83.2031-19.6777L85.9375-19.4824L85.791-19.6289L82.8613-21.7285C82.0801-22.3145 81.5918-23.4863 81.5918-24.6094C81.5918-26.9531 83.4473-28.8086 85.791-28.8086C86.8652-28.8086 87.8418-28.3691 88.5742-27.6367L97.3633-18.457C98.4375-17.3828 98.8281-16.3574 98.8281-15.1367C98.8281-13.9648 98.4375-12.8906 97.3633-11.8164L88.5742-2.68555C87.8418-1.9043 86.8652-1.46484 85.791-1.46484C83.4961-1.46484 81.5918-3.32031 81.5918-5.66406C81.5918-6.78711 82.0312-7.95898 82.8613-8.54492L85.791-10.6934L85.8398-10.7422L83.2031-10.5957L76.9531-10.5957C74.3164-10.5957 72.5586-12.4023 72.5586-15.1367Z"/>
  </g>
  <g id="Heavy-S" transform="matrix(1 0 0 1 2582.49 696)">
   <path d="M51.8066 6.15234C56.8359 6.15234 61.7188 5.22461 66.2598 3.51562C63.1836 0.488281 60.8887-3.32031 59.668-7.51953C57.1777-6.78711 54.541-6.39648 51.8066-6.39648C47.5586-6.39648 43.5547-7.32422 39.9902-8.93555L44.6289-27.3438L58.9355-27.3438L59.8145-23.3398C60.9863-26.9043 62.9395-30.1758 65.3809-32.9102L65.332-33.1543C64.502-34.3262 63.2324-35.2051 61.7676-35.3516L61.7188-35.3516L55.2734-52.6367C54.0527-55.8105 49.5117-55.8105 48.291-52.6367L41.7969-35.3516L41.748-35.3516C39.2578-35.0586 37.3047-32.9102 36.5723-30.2734L32.0801-14.1602C26.4648-19.4336 22.998-26.9043 22.998-35.2051C22.998-51.1719 35.8398-64.0137 51.8066-64.0137C65.625-64.0137 77.0996-54.3457 79.9316-41.3574C84.1309-42.334 88.8184-42.041 92.8223-40.8691C90.0391-60.9863 72.6562-76.6113 51.8066-76.6113C29.0527-76.6113 10.4004-57.959 10.4004-35.2051C10.4004-12.4512 29.0039 6.15234 51.8066 6.15234ZM85.3027 5.51758C96.582 5.51758 105.957-3.90625 105.957-15.1855C105.957-26.4648 96.582-35.791 85.3027-35.791C73.9746-35.791 64.6484-26.4648 64.6484-15.1855C64.6484-3.90625 73.9746 5.51758 85.3027 5.51758ZM72.3633-15.1367C72.3633-17.5781 73.9746-19.2871 76.3672-19.2871L83.3496-19.2871L86.5723-19.0918L86.0352-19.5801L82.8125-22.168C82.0801-22.7051 81.6406-23.7793 81.6406-24.8047C81.6406-26.9043 83.3008-28.6133 85.4492-28.6133C86.4258-28.6133 87.3535-28.2227 87.9883-27.4902L96.875-18.1641C97.8516-17.1387 98.2422-16.2598 98.2422-15.1367C98.2422-14.0625 97.8516-13.1348 96.875-12.1094L87.9883-2.83203C87.3535-2.09961 86.4258-1.66016 85.4492-1.66016C83.3496-1.66016 81.6406-3.36914 81.6406-5.46875C81.6406-6.49414 82.0801-7.56836 82.8125-8.1543L86.0352-10.7422L86.4746-11.1816L83.3496-11.0352L76.3672-11.0352C73.9746-11.0352 72.3633-12.6953 72.3633-15.1367Z"/>
  </g>
  <g id="Bold-S" transform="matrix(1 0 0 1 2286.17 696)">
   <path d="M51.0742 5.46875C56.2012 5.46875 61.1328 4.49219 65.6738 2.73438C63.0859 0.0488281 61.1328-3.17383 60.0098-6.73828C57.2266-5.81055 54.1992-5.32227 51.0742-5.32227C46.875-5.32227 42.8711-6.20117 39.2578-7.71484L43.7012-27.6367L58.3984-27.6367L59.5215-22.0703C60.498-25.6348 62.2559-28.9062 64.5508-31.6895L64.4531-32.1777C63.7695-33.5938 62.4023-34.7168 60.7422-34.8145L60.6934-34.8145L54.2969-52.6367C53.2227-55.6641 48.9258-55.6641 47.8027-52.6367L41.4062-34.8145L41.3086-34.8145C39.0137-34.6191 37.2559-32.666 36.6211-30.2734L32.0801-12.1094C25.3906-17.5781 21.1426-25.8789 21.1426-35.2539C21.1914-51.8066 34.5215-65.1367 51.0742-65.1367C65.6738-65.1367 77.6855-54.7852 80.3711-41.0156C83.8867-41.7969 88.0859-41.5039 91.4062-40.625C88.7695-60.4492 71.582-75.9277 51.0742-75.9277C28.7598-75.9277 10.3516-57.5684 10.3516-35.2539C10.3516-12.8906 28.7109 5.46875 51.0742 5.46875ZM84.8145 5.17578C95.8984 5.17578 105.176-4.10156 105.176-15.1855C105.176-26.2695 95.9961-35.4492 84.8145-35.4492C73.6816-35.4492 64.502-26.2695 64.502-15.1855C64.502-4.05273 73.6816 5.17578 84.8145 5.17578ZM72.1191-15.1367C72.1191-17.2852 73.6328-18.7988 75.6836-18.7988L83.5449-18.7988L87.2559-18.6035L86.2793-19.5312L82.7637-22.6074C82.1289-23.1934 81.7383-24.0723 81.6895-25C81.6895-26.9043 83.1543-28.3691 85.0586-28.3691C85.9863-28.3691 86.7676-28.0273 87.4023-27.3926L96.3379-17.8223C97.2168-16.8945 97.5586-16.1133 97.5586-15.1367C97.5586-14.209 97.2168-13.3789 96.3379-12.4512L87.4023-2.92969C86.7676-2.29492 85.9863-1.95312 85.0586-1.9043C83.2031-1.85547 81.6895-3.36914 81.6895-5.27344C81.6895-6.20117 82.0801-7.12891 82.7637-7.66602L86.2793-10.7422L87.207-11.6699L83.5449-11.4746L75.6836-11.4746C73.6328-11.4746 72.1191-13.0371 72.1191-15.1367Z"/>
  </g>
  <g id="Semibold-S" transform="matrix(1 0 0 1 1989.73 696)">
   <path d="M50.5371 4.98047C55.7129 4.98047 60.7422 3.95508 65.2832 2.14844C63.0371-0.244141 61.3281-3.07617 60.2539-6.20117C57.2266-5.12695 53.9551-4.58984 50.5371-4.58984C46.3867-4.58984 42.4316-5.41992 38.8184-6.88477L43.0664-27.8809L58.0566-27.8809L59.3262-21.1914C60.1562-24.7559 61.7676-28.0273 63.916-30.8105L63.8184-31.4941C63.2324-33.1055 61.7676-34.375 60.0586-34.4727L59.9609-34.4727L53.6621-52.6367C52.5879-55.5664 48.5352-55.5664 47.4609-52.6367L41.0645-34.4727L40.9668-34.4727C38.8672-34.3262 37.1582-32.4707 36.6211-30.2734L32.0801-10.7422C24.6582-16.3086 19.873-25.1953 19.9219-35.2539C19.9219-52.2461 33.5938-65.8691 50.5859-65.8691C65.6738-65.8691 78.0762-55.127 80.6641-40.8203C83.7402-41.4062 87.5488-41.1621 90.4297-40.4785C87.8906-60.1074 70.8496-75.4883 50.5859-75.4883C28.5645-75.4883 10.3027-57.2754 10.3027-35.2539C10.3027-13.1836 28.5156 4.98047 50.5371 4.98047ZM84.5215 4.93164C95.459 4.93164 104.639-4.19922 104.639-15.1855C104.639-26.1719 95.5566-35.2539 84.5215-35.2539C73.5352-35.2539 64.4531-26.1719 64.4531-15.1855C64.4531-4.15039 73.5352 4.93164 84.5215 4.93164ZM71.9727-15.1367C71.9727-17.041 73.3398-18.5059 75.1953-18.5059L83.6426-18.5059L87.7441-18.2617L86.4258-19.5312L82.7637-22.9492C82.1289-23.4863 81.7871-24.3164 81.7383-25.1465C81.6895-26.8555 83.0566-28.2227 84.7656-28.2227C85.6445-28.2227 86.377-27.8809 86.9629-27.2949L95.9473-17.5781C96.7285-16.6992 97.1191-16.0156 97.1191-15.1367C97.1191-14.3066 96.7773-13.5742 95.9473-12.6953L86.9629-3.02734C86.377-2.39258 85.6445-2.09961 84.7656-2.05078C83.0566-2.00195 81.7383-3.41797 81.7383-5.12695C81.7383-5.95703 82.1289-6.83594 82.7637-7.37305L86.4258-10.791L87.6953-12.0117L83.6426-11.8164L75.1953-11.8164C73.3398-11.8164 71.9727-13.2324 71.9727-15.1367Z"/>
  </g>
  <g id="Medium-S" transform="matrix(1 0 0 1 1693.24 696)">
   <path d="M50.1953 4.63867C55.3711 4.63867 60.4004 3.56445 64.9902 1.70898C63.0371-0.439453 61.4258-2.97852 60.4004-5.76172C57.2266-4.63867 53.7598-4.00391 50.1953-4.00391C45.9961-4.00391 42.041-4.83398 38.4277-6.29883L42.5781-28.0273L57.8125-28.0273L59.1797-20.5078C59.9121-24.0723 61.4258-27.3438 63.4766-30.1758L63.3301-31.0059C62.8418-32.7148 61.3281-34.1309 59.5703-34.1797L59.4238-34.1797L53.1738-52.6367C52.1484-55.5176 48.2422-55.5176 47.2168-52.6367L40.8691-34.1797L40.7227-34.1797C38.7695-34.1309 37.1094-32.373 36.6699-30.2734L32.1289-9.7168C24.1211-15.332 18.9453-24.6582 18.9453-35.2539C18.9941-52.5879 32.8613-66.4551 50.1953-66.4551C65.6738-66.4551 78.3691-55.3711 80.8594-40.625C83.6426-41.1133 87.1582-40.918 89.7461-40.332C87.207-59.8145 70.3125-75.1465 50.1953-75.1465C28.418-75.1465 10.3027-57.0801 10.3027-35.2539C10.3027-13.4277 28.3691 4.63867 50.1953 4.63867ZM84.2773 4.78516C95.0684 4.78516 104.199-4.29688 104.199-15.1855C104.199-26.0742 95.2148-35.0586 84.2773-35.0586C73.3887-35.0586 64.3555-26.0742 64.3555-15.1855C64.3555-4.19922 73.3887 4.78516 84.2773 4.78516ZM71.8262-15.1367C71.8262-16.8945 73.1445-18.2617 74.8535-18.2617L83.7402-18.2617L88.0859-18.0176L86.5723-19.4824L82.7148-23.1934C82.1289-23.7305 81.8359-24.4629 81.7871-25.2441C81.7383-26.8555 82.959-28.0762 84.5703-28.0762C85.4004-28.0762 86.084-27.832 86.6211-27.1973L95.6543-17.3828C96.3867-16.6016 96.7285-15.9668 96.7285-15.1367C96.7285-14.3555 96.4355-13.7207 95.6543-12.8906L86.6211-3.125C86.084-2.49023 85.4004-2.24609 84.5703-2.19727C83.0078-2.09961 81.7871-3.41797 81.7871-5.0293C81.7383-5.81055 82.1289-6.5918 82.7148-7.12891L86.5723-10.791L88.0859-12.2559L83.7402-12.0605L74.8535-12.0605C73.1445-12.0605 71.8262-13.4277 71.8262-15.1367Z"/>
  </g>
  <g id="Regular-S" transform="matrix(1 0 0 1 1396.79 696)">
   <path d="M49.6582 4.15039C54.9316 4.15039 60.0098 3.07617 64.5996 1.17188C62.9883-0.732422 61.6211-2.88086 60.6445-5.22461C57.2266-3.95508 53.5156-3.27148 49.6582-3.27148C45.5078-3.27148 41.5527-4.05273 37.9395-5.46875L41.9434-28.2715L57.4707-28.2715L58.9844-19.6777C59.5703-23.1934 60.9863-26.4648 62.8906-29.2969L62.6953-30.3223C62.3047-32.2266 60.7422-33.8379 58.8867-33.8379L58.7402-33.8379L52.4902-52.5879C51.5625-55.4199 47.8516-55.4199 46.875-52.5879L40.5762-33.8379L40.4297-33.8379C38.623-33.8379 37.0605-32.1777 36.6699-30.2734L32.1777-8.44727C23.4375-14.1113 17.6758-23.9746 17.7246-35.2539C17.7734-53.0273 31.9336-67.2363 49.707-67.2363C65.7227-67.2363 78.7109-55.7129 81.1523-40.4297C83.4961-40.7227 86.6699-40.5273 88.7695-40.1855C86.3281-59.4238 69.5801-74.6582 49.707-74.6582C28.2227-74.6582 10.2539-56.7871 10.2539-35.2539C10.2539-13.7207 28.1738 4.15039 49.6582 4.15039ZM83.9844 4.54102C94.6289 4.54102 103.662-4.39453 103.662-15.1855C103.662-25.9766 94.7754-34.8633 83.9844-34.8633C73.1934-34.8633 64.3066-25.9766 64.3066-15.1855C64.3066-4.29688 73.1934 4.54102 83.9844 4.54102ZM71.6797-15.1855C71.6797-16.6992 72.9004-17.9688 74.3652-17.9688L83.8867-17.9688L88.5742-17.7246L86.7188-19.4824L82.666-23.4863C82.1777-24.0234 81.8848-24.707 81.8359-25.3906C81.7383-26.8555 82.8613-27.9297 84.3262-27.9297C85.0586-27.9297 85.6934-27.6855 86.1816-27.0996L95.3125-17.1387C95.9473-16.4062 96.2891-15.8691 96.2891-15.1855C96.2891-14.4531 95.9961-13.8672 95.3125-13.1348L86.1816-3.22266C85.6934-2.63672 85.0586-2.39258 84.3262-2.34375C82.8613-2.24609 81.8359-3.41797 81.8359-4.88281C81.7871-5.56641 82.1777-6.29883 82.666-6.83594L86.7188-10.791L88.5742-12.5977L83.8867-12.3535L74.3652-12.3535C72.9004-12.3535 71.6797-13.623 71.6797-15.1855Z"/>
  </g>
  <g id="Light-S" transform="matrix(1 0 0 1 1100.86 696)">
   <path d="M48.9258 3.41797C54.4434 3.41797 59.7168 2.24609 64.4531 0.0976562C63.2324-1.36719 62.1582-2.97852 61.377-4.78516C57.5684-3.17383 53.3691-2.29492 48.9258-2.29492C44.3848-2.29492 39.9902-3.22266 36.0352-4.88281L40.7715-29.248L57.1289-29.248L59.1309-19.2383C59.6191-22.1191 60.6934-24.8047 62.1582-27.1973L61.377-30.6641C61.0352-32.3242 59.668-33.6914 58.0566-33.6914L57.5684-33.6914L51.2207-53.0273C50.4883-55.2734 47.4121-55.2734 46.6797-53.0273L40.2832-33.6914L39.7949-33.6914C38.1836-33.6914 36.8652-32.2754 36.5234-30.6152L31.4941-7.22656C22.168-13.0371 15.9668-23.3887 15.9668-35.2539C16.0156-53.5156 30.7129-68.2129 48.9746-68.2129C65.8691-68.2129 79.6875-55.6152 81.5918-39.209C83.3984-39.4531 85.7422-39.2578 87.4023-38.9648C85.5469-58.4473 68.8477-73.9258 48.9746-73.9258C27.7832-73.9258 10.2539-56.4453 10.2539-35.2539C10.2539-14.0625 27.7832 3.41797 48.9258 3.41797ZM82.8613 3.90625C93.3105 3.90625 102.1-4.78516 102.1-15.332C102.1-25.8789 93.4082-34.5215 82.8613-34.5215C72.3145-34.5215 63.623-25.8301 63.623-15.332C63.623-4.73633 72.3145 3.90625 82.8613 3.90625ZM70.5566-15.332C70.5566-16.6016 71.582-17.627 72.8027-17.627L83.5449-17.627L88.5254-17.4316L85.3516-20.5566L81.9824-23.9258C81.543-24.3164 81.2988-24.9023 81.25-25.4883C81.2012-26.7578 82.1289-27.6367 83.3496-27.6367C84.0332-27.6367 84.5703-27.3926 85.1074-26.8555L94.3359-16.9434C94.9219-16.4062 95.166-15.918 95.166-15.332C95.166-14.7461 94.9219-14.209 94.3359-13.623L85.1074-3.75977C84.5703-3.17383 84.082-2.92969 83.3496-2.92969C82.1289-2.83203 81.25-3.85742 81.25-5.07812C81.25-5.66406 81.543-6.29883 81.9824-6.73828L85.3516-10.0098L88.5254-13.1836L83.5449-12.9883L72.8027-12.9883C71.582-12.9883 70.5566-14.0625 70.5566-15.332Z"/>
  </g>
  <g id="Thin-S" transform="matrix(1 0 0 1 805.226 696)">
   <path d="M47.998 2.49023C53.8086 2.49023 59.3262 1.12305 64.3066-1.31836C63.5254-2.14844 62.8906-3.125 62.3535-4.15039C57.959-2.09961 53.125-0.927734 47.998-0.927734C42.8223-0.927734 37.8906-2.09961 33.5449-4.10156L39.209-30.6152L56.7383-30.6152L59.3262-18.7012C59.6191-20.7031 60.2539-22.6562 61.1328-24.4141L59.6191-31.1035C59.3262-32.4219 58.252-33.4961 56.9336-33.4961L56.0059-33.4961L49.5605-53.5645C49.0723-55.127 46.9238-55.0781 46.4355-53.5645L39.9414-33.4961L39.0137-33.4961C37.6953-33.4961 36.6211-32.4219 36.3281-31.1035L30.6152-5.66406C20.459-11.6211 13.6719-22.6074 13.6719-35.2539C13.6719-54.1992 29.0527-69.5801 47.998-69.5801C66.1133-69.5801 80.9082-55.5176 82.1289-37.6465C83.252-37.6953 84.5703-37.5977 85.5957-37.4023C84.5215-57.0801 67.9688-72.998 47.998-72.998C27.2949-72.998 10.2539-55.957 10.2539-35.2539C10.2539-14.5508 27.2949 2.49023 47.998 2.49023ZM81.3477 3.125C91.5039 3.125 99.9512-5.27344 99.9512-15.4785C99.9512-25.7324 91.6016-34.1309 81.3477-34.1309C71.1914-34.1309 62.7441-25.6836 62.7441-15.4785C62.7441-5.27344 71.1914 3.125 81.3477 3.125ZM69.0918-15.4785C69.0918-16.4551 69.873-17.1875 70.752-17.1875L83.0566-17.1875L88.5254-17.0898L83.5449-21.9727L81.0547-24.4141C80.7617-24.707 80.5176-25.1465 80.5176-25.6348C80.4688-26.6113 81.2012-27.2949 82.1289-27.2949C82.7148-27.2949 83.1055-27.0508 83.6426-26.5137L93.1152-16.6992C93.5059-16.3574 93.7012-15.9668 93.7012-15.4785C93.7012-15.0879 93.5059-14.6973 93.1152-14.2578L83.6426-4.49219C83.1055-3.90625 82.7148-3.66211 82.1289-3.66211C81.2012-3.66211 80.5176-4.39453 80.5176-5.32227C80.5176-5.81055 80.7617-6.25 81.0547-6.5918L83.5449-8.98438L88.5254-13.916L83.0566-13.7695L70.752-13.7695C69.873-13.7695 69.0918-14.5508 69.0918-15.4785Z"/>
  </g>
  <g id="Ultralight-S" transform="matrix(1 0 0 1 509.052 696)">
   <path d="M47.4609 1.95312C53.4668 1.95312 59.1309 0.537109 64.1602-2.05078C63.6719-2.58789 63.2324-3.22266 62.8906-3.80859C58.2031-1.5625 53.0273-0.244141 47.4609-0.244141C41.9922-0.244141 36.8164-1.51367 32.2266-3.75977L38.4277-31.2988L56.4941-31.2988L59.4238-18.4082C59.668-19.9707 60.0586-21.5332 60.5957-22.998L58.6914-31.3477C58.4473-32.5195 57.4707-33.3984 56.3477-33.3984L55.2246-33.3984L48.6816-53.8574C48.291-55.0293 46.6309-54.9805 46.2891-53.8574L39.7461-33.3984L38.5742-33.3984C37.4023-33.3984 36.4746-32.5195 36.2305-31.3477L30.1758-4.83398C19.5801-10.8887 12.5-22.2656 12.5-35.2539C12.5-54.541 28.1738-70.2637 47.4609-70.2637C66.2109-70.2637 81.543-55.4199 82.4219-36.8652C83.1543-36.8164 83.9355-36.7188 84.668-36.5723C83.9844-56.3965 67.4805-72.4609 47.4609-72.4609C27.002-72.4609 10.2539-55.7129 10.2539-35.2539C10.2539-14.7949 27.002 1.95312 47.4609 1.95312ZM80.6152 2.68555C90.5762 2.68555 98.877-5.56641 98.877-15.625C98.877-25.6348 90.625-33.8867 80.6152-33.8867C70.6055-33.8867 62.3047-25.5859 62.3047-15.625C62.3047-5.56641 70.6055 2.68555 80.6152 2.68555ZM68.3594-15.625C68.3594-16.3574 68.9453-16.9434 69.6777-16.9434L82.8125-16.9434L88.4766-16.8945L82.6172-22.7051L80.5664-24.707C80.3223-24.9023 80.127-25.293 80.127-25.7324C80.127-26.5137 80.6641-27.0996 81.4941-27.0996C81.9824-27.0996 82.373-26.8555 82.9102-26.3184L92.4805-16.6016C92.7734-16.3574 92.9688-16.0156 92.9688-15.625C92.9688-15.2832 92.7734-14.9414 92.4805-14.5508L82.9102-4.83398C82.373-4.29688 82.0312-4.05273 81.4941-4.05273C80.6641-4.05273 80.127-4.6875 80.127-5.46875C80.127-5.9082 80.3223-6.25 80.5664-6.49414L82.6172-8.44727L88.4766-14.3066L82.8125-14.209L69.6777-14.209C68.9453-14.209 68.3594-14.8438 68.3594-15.625Z"/>
  </g>
 </g>
</svg>
