<?xml version="1.0" encoding="UTF-8"?>
<!--Generator: Apple Native CoreSVG 149-->
<!DOCTYPE svg
PUBLIC "-//W3C//DTD SVG 1.1//EN"
       "http://www.w3.org/Graphics/SVG/1.1/DTD/svg11.dtd">
<svg version="1.1" xmlns="http://www.w3.org/2000/svg" xmlns:xlink="http://www.w3.org/1999/xlink" width="3300" height="2200">
 <!--glyph: "uni100210.medium", point size: 100.000000, font version: "Version 16.0d18e1", template writer version: "8"-->
 <g id="Notes">
  <rect height="2200" id="artboard" style="fill:white;opacity:1" width="3300" x="0" y="0"/>
  <line id="" style="fill:none;stroke:black;opacity:1;stroke-width:0.5;" x1="263" x2="3036" y1="292" y2="292"/>
  <text style="stroke:none;fill:black;font-family:-apple-system,&quot;SF Pro Display&quot;,&quot;SF Pro Text&quot;,Helvetica,sans-serif;font-weight:bold;" transform="matrix(1 0 0 1 263 322)">Weight/Scale Variations</text>
  <text style="stroke:none;fill:black;font-family:-apple-system,&quot;SF Pro Display&quot;,&quot;SF Pro Text&quot;,Helvetica,sans-serif;text-anchor:middle;" transform="matrix(1 0 0 1 559.711 322)">Ultralight</text>
  <text style="stroke:none;fill:black;font-family:-apple-system,&quot;SF Pro Display&quot;,&quot;SF Pro Text&quot;,Helvetica,sans-serif;text-anchor:middle;" transform="matrix(1 0 0 1 856.422 322)">Thin</text>
  <text style="stroke:none;fill:black;font-family:-apple-system,&quot;SF Pro Display&quot;,&quot;SF Pro Text&quot;,Helvetica,sans-serif;text-anchor:middle;" transform="matrix(1 0 0 1 1153.13 322)">Light</text>
  <text style="stroke:none;fill:black;font-family:-apple-system,&quot;SF Pro Display&quot;,&quot;SF Pro Text&quot;,Helvetica,sans-serif;text-anchor:middle;" transform="matrix(1 0 0 1 1449.84 322)">Regular</text>
  <text style="stroke:none;fill:black;font-family:-apple-system,&quot;SF Pro Display&quot;,&quot;SF Pro Text&quot;,Helvetica,sans-serif;text-anchor:middle;" transform="matrix(1 0 0 1 1746.56 322)">Medium</text>
  <text style="stroke:none;fill:black;font-family:-apple-system,&quot;SF Pro Display&quot;,&quot;SF Pro Text&quot;,Helvetica,sans-serif;text-anchor:middle;" transform="matrix(1 0 0 1 2043.27 322)">Semibold</text>
  <text style="stroke:none;fill:black;font-family:-apple-system,&quot;SF Pro Display&quot;,&quot;SF Pro Text&quot;,Helvetica,sans-serif;text-anchor:middle;" transform="matrix(1 0 0 1 2339.98 322)">Bold</text>
  <text style="stroke:none;fill:black;font-family:-apple-system,&quot;SF Pro Display&quot;,&quot;SF Pro Text&quot;,Helvetica,sans-serif;text-anchor:middle;" transform="matrix(1 0 0 1 2636.69 322)">Heavy</text>
  <text style="stroke:none;fill:black;font-family:-apple-system,&quot;SF Pro Display&quot;,&quot;SF Pro Text&quot;,Helvetica,sans-serif;text-anchor:middle;" transform="matrix(1 0 0 1 2933.4 322)">Black</text>
  <line id="" style="fill:none;stroke:black;opacity:1;stroke-width:0.5;" x1="263" x2="3036" y1="1903" y2="1903"/>
  <g id="" transform="matrix(1 0 0 1 263 1933)">
   <path d="M9.24805 0.830078C13.5547 0.830078 17.1387-2.74414 17.1387-7.05078C17.1387-11.3574 13.5449-14.9316 9.23828-14.9316C4.94141-14.9316 1.36719-11.3574 1.36719-7.05078C1.36719-2.74414 4.95117 0.830078 9.24805 0.830078ZM9.24805-0.654297C5.70312-0.654297 2.87109-3.49609 2.87109-7.05078C2.87109-10.6055 5.69336-13.4473 9.23828-13.4473C12.793-13.4473 15.6348-10.6055 15.6445-7.05078C15.6543-3.49609 12.8027-0.654297 9.24805-0.654297ZM6.39648-6.31836L8.50586-6.31836L8.50586-4.19922C8.50586-3.75977 8.79883-3.45703 9.22852-3.45703C9.67773-3.45703 9.9707-3.75977 9.9707-4.19922L9.9707-6.31836L12.0996-6.31836C12.5391-6.31836 12.8418-6.61133 12.8418-7.04102C12.8418-7.48047 12.5391-7.7832 12.0996-7.7832L9.9707-7.7832L9.9707-9.89258C9.9707-10.3418 9.67773-10.6445 9.22852-10.6445C8.79883-10.6445 8.50586-10.3418 8.50586-9.89258L8.50586-7.7832L6.39648-7.7832C5.94727-7.7832 5.64453-7.48047 5.64453-7.04102C5.64453-6.61133 5.94727-6.31836 6.39648-6.31836Z"/>
  </g>
  <g id="" transform="matrix(1 0 0 1 281.506 1933)">
   <path d="M11.709 2.91016C17.1582 2.91016 21.6699-1.61133 21.6699-7.05078C21.6699-12.5 17.1484-17.0117 11.6992-17.0117C6.25977-17.0117 1.74805-12.5 1.74805-7.05078C1.74805-1.61133 6.26953 2.91016 11.709 2.91016ZM11.709 1.25C7.09961 1.25 3.41797-2.44141 3.41797-7.05078C3.41797-11.6602 7.08984-15.3516 11.6992-15.3516C16.3086-15.3516 20-11.6602 20.0098-7.05078C20.0195-2.44141 16.3184 1.25 11.709 1.25ZM7.98828-6.23047L10.8789-6.23047L10.8789-3.32031C10.8789-2.83203 11.2109-2.5 11.6895-2.5C12.1777-2.5 12.5195-2.83203 12.5195-3.32031L12.5195-6.23047L15.4297-6.23047C15.918-6.23047 16.25-6.5625 16.25-7.04102C16.25-7.5293 15.918-7.87109 15.4297-7.87109L12.5195-7.87109L12.5195-10.7617C12.5195-11.2695 12.1777-11.6016 11.6895-11.6016C11.2109-11.6016 10.8789-11.2598 10.8789-10.7617L10.8789-7.87109L7.98828-7.87109C7.48047-7.87109 7.14844-7.5293 7.14844-7.04102C7.14844-6.5625 7.49023-6.23047 7.98828-6.23047Z"/>
  </g>
  <g id="" transform="matrix(1 0 0 1 304.924 1933)">
   <path d="M14.9707 5.66406C21.9336 5.66406 27.6953-0.0976562 27.6953-7.05078C27.6953-14.0137 21.9238-19.7754 14.9609-19.7754C8.00781-19.7754 2.25586-14.0137 2.25586-7.05078C2.25586-0.0976562 8.01758 5.66406 14.9707 5.66406ZM14.9707 3.84766C8.93555 3.84766 4.08203-1.01562 4.08203-7.05078C4.08203-13.0957 8.92578-17.9492 14.9609-17.9492C21.0059-17.9492 25.8594-13.0957 25.8691-7.05078C25.8789-1.01562 21.0156 3.84766 14.9707 3.84766ZM10.0586-6.14258L14.0625-6.14258L14.0625-2.12891C14.0625-1.5918 14.4336-1.2207 14.9512-1.2207C15.4883-1.2207 15.8594-1.5918 15.8594-2.12891L15.8594-6.14258L19.8828-6.14258C20.4102-6.14258 20.791-6.51367 20.791-7.03125C20.791-7.56836 20.4199-7.94922 19.8828-7.94922L15.8594-7.94922L15.8594-11.9531C15.8594-12.5098 15.4883-12.8809 14.9512-12.8809C14.4336-12.8809 14.0625-12.5 14.0625-11.9531L14.0625-7.94922L10.0586-7.94922C9.50195-7.94922 9.13086-7.56836 9.13086-7.03125C9.13086-6.51367 9.51172-6.14258 10.0586-6.14258Z"/>
  </g>
  <text style="stroke:none;fill:black;font-family:-apple-system,&quot;SF Pro Display&quot;,&quot;SF Pro Text&quot;,Helvetica,sans-serif;font-weight:bold;" transform="matrix(1 0 0 1 263 1953)">Design Variations</text>
  <text style="stroke:none;fill:black;font-family:-apple-system,&quot;SF Pro Display&quot;,&quot;SF Pro Text&quot;,Helvetica,sans-serif;" transform="matrix(1 0 0 1 263 1971)">Symbols are supported in up to nine weights and three scales.</text>
  <text style="stroke:none;fill:black;font-family:-apple-system,&quot;SF Pro Display&quot;,&quot;SF Pro Text&quot;,Helvetica,sans-serif;" transform="matrix(1 0 0 1 263 1989)">For optimal layout with text and other symbols, vertically align</text>
  <text style="stroke:none;fill:black;font-family:-apple-system,&quot;SF Pro Display&quot;,&quot;SF Pro Text&quot;,Helvetica,sans-serif;" transform="matrix(1 0 0 1 263 2007)">symbols with the adjacent text.</text>
  <line id="" style="fill:none;stroke:#00AEEF;stroke-width:0.5;opacity:1.0;" x1="776" x2="776" y1="1919" y2="1933"/>
  <g id="" transform="matrix(1 0 0 1 776 1933)">
   <path d="M3.31055 0.126953C3.82812 0.126953 4.08203-0.0683594 4.26758-0.605469L5.52734-4.0625L11.2891-4.0625L12.5488-0.605469C12.7344-0.0683594 12.9883 0.126953 13.4961 0.126953C14.0137 0.126953 14.3457-0.185547 14.3457-0.673828C14.3457-0.839844 14.3164-0.986328 14.2383-1.20117L9.6582-13.3887C9.43359-13.9941 9.0332-14.2871 8.4082-14.2871C7.80273-14.2871 7.39258-13.9941 7.17773-13.3984L2.59766-1.19141C2.51953-0.976562 2.49023-0.830078 2.49023-0.664062C2.49023-0.175781 2.80273 0.126953 3.31055 0.126953ZM6.00586-5.53711L8.37891-12.1094L8.42773-12.1094L10.8008-5.53711Z"/>
  </g>
  <line id="" style="fill:none;stroke:#00AEEF;stroke-width:0.5;opacity:1.0;" x1="792.836" x2="792.836" y1="1919" y2="1933"/>
  <text style="stroke:none;fill:black;font-family:-apple-system,&quot;SF Pro Display&quot;,&quot;SF Pro Text&quot;,Helvetica,sans-serif;font-weight:bold;" transform="matrix(1 0 0 1 776 1953)">Margins</text>
  <text style="stroke:none;fill:black;font-family:-apple-system,&quot;SF Pro Display&quot;,&quot;SF Pro Text&quot;,Helvetica,sans-serif;" transform="matrix(1 0 0 1 776 1971)">Leading and trailing margins on the left and right side of each symbol</text>
  <text style="stroke:none;fill:black;font-family:-apple-system,&quot;SF Pro Display&quot;,&quot;SF Pro Text&quot;,Helvetica,sans-serif;" transform="matrix(1 0 0 1 776 1989)">can be adjusted by modifying the x-location of the margin guidelines.</text>
  <text style="stroke:none;fill:black;font-family:-apple-system,&quot;SF Pro Display&quot;,&quot;SF Pro Text&quot;,Helvetica,sans-serif;" transform="matrix(1 0 0 1 776 2007)">Modifications are automatically applied proportionally to all</text>
  <text style="stroke:none;fill:black;font-family:-apple-system,&quot;SF Pro Display&quot;,&quot;SF Pro Text&quot;,Helvetica,sans-serif;" transform="matrix(1 0 0 1 776 2025)">scales and weights.</text>
  <g id="" transform="matrix(1 0 0 1 1289 1933)">
   <path d="M2.8418 1.86523L4.54102 3.57422C5.40039 4.44336 6.38672 4.38477 7.31445 3.35938L17.4902-7.85156C17.7539-7.76367 18.0273-7.7832 18.3398-7.8418L19.4043-8.03711L20.0684-7.36328L20.0293-6.80664C19.9902-6.30859 20.1172-5.92773 20.6055-5.44922L21.3672-4.70703C21.8457-4.22852 22.4609-4.19922 22.9297-4.66797L25.8398-7.58789C26.3086-8.05664 26.2891-8.65234 25.8105-9.13086L25.0391-9.89258C24.5605-10.3711 24.1895-10.5273 23.7109-10.4883L23.1348-10.4395L22.4902-11.0742L22.7344-12.1973C22.8613-12.7637 22.7051-13.2031 22.1191-13.7891L19.9219-15.9766C16.582-19.2969 12.1484-19.2188 9.25781-16.3281C8.83789-15.918 8.80859-15.3418 9.04297-14.9512C9.27734-14.5898 9.73633-14.3555 10.3809-14.5215C11.8457-14.8633 13.3691-14.9219 14.7949-13.9844L14.209-12.5293C14.0137-12.0508 13.9844-11.6504 14.1113-11.2891L3.04688-0.898438C2.06055 0.0195312 1.98242 0.996094 2.8418 1.86523ZM10.752-15.957C13.1836-17.7344 16.4746-17.4316 18.7012-15.2051L21.1328-12.793C21.3672-12.5586 21.4062-12.373 21.3379-12.0312L21.0156-10.5469L22.5195-9.0625L23.5059-9.12109C23.7598-9.13086 23.8379-9.11133 24.0332-8.91602L24.6094-8.33984L22.168-5.89844L21.5918-6.47461C21.3965-6.66992 21.3672-6.74805 21.377-7.01172L21.4453-7.98828L19.9512-9.47266L18.4277-9.21875C18.1055-9.15039 17.959-9.17969 17.7148-9.41406L15.7129-11.416C15.459-11.6504 15.4297-11.8164 15.5859-12.1875L16.4648-14.2773C14.9023-15.7324 12.8711-16.3574 10.8398-15.7617C10.6836-15.7227 10.625-15.8496 10.752-15.957ZM5.27344 2.30469L4.10156 1.14258C3.63281 0.683594 3.74023 0.341797 4.14062-0.0195312L14.9512-10.1953L16.416-8.71094L6.42578 2.27539C6.07422 2.67578 5.74219 2.77344 5.27344 2.30469Z"/>
  </g>
  <text style="stroke:none;fill:black;font-family:-apple-system,&quot;SF Pro Display&quot;,&quot;SF Pro Text&quot;,Helvetica,sans-serif;font-weight:bold;" transform="matrix(1 0 0 1 1289 1953)">Exporting</text>
  <text style="stroke:none;fill:black;font-family:-apple-system,&quot;SF Pro Display&quot;,&quot;SF Pro Text&quot;,Helvetica,sans-serif;" transform="matrix(1 0 0 1 1289 1971)">Symbols should be outlined when exporting to ensure the</text>
  <text style="stroke:none;fill:black;font-family:-apple-system,&quot;SF Pro Display&quot;,&quot;SF Pro Text&quot;,Helvetica,sans-serif;" transform="matrix(1 0 0 1 1289 1989)">design is preserved when submitting to Xcode.</text>
  <text id="template-version" style="stroke:none;fill:black;font-family:-apple-system,&quot;SF Pro Display&quot;,&quot;SF Pro Text&quot;,Helvetica,sans-serif;text-anchor:end;" transform="matrix(1 0 0 1 3036 1933)">Template v.2.0</text>
  <text style="stroke:none;fill:black;font-family:-apple-system,&quot;SF Pro Display&quot;,&quot;SF Pro Text&quot;,Helvetica,sans-serif;text-anchor:end;" transform="matrix(1 0 0 1 3036 1951)">Requires Xcode 12 or greater</text>
  <text style="stroke:none;fill:black;font-family:-apple-system,&quot;SF Pro Display&quot;,&quot;SF Pro Text&quot;,Helvetica,sans-serif;text-anchor:end;" transform="matrix(1 0 0 1 3036 1969)">Generated from pencil.and.outline</text>
  <text style="stroke:none;fill:black;font-family:-apple-system,&quot;SF Pro Display&quot;,&quot;SF Pro Text&quot;,Helvetica,sans-serif;text-anchor:end;" transform="matrix(1 0 0 1 3036 1987)">Typeset at 100 points</text>
  <text style="stroke:none;fill:black;font-family:-apple-system,&quot;SF Pro Display&quot;,&quot;SF Pro Text&quot;,Helvetica,sans-serif;" transform="matrix(1 0 0 1 263 726)">Small</text>
  <text style="stroke:none;fill:black;font-family:-apple-system,&quot;SF Pro Display&quot;,&quot;SF Pro Text&quot;,Helvetica,sans-serif;" transform="matrix(1 0 0 1 263 1156)">Medium</text>
  <text style="stroke:none;fill:black;font-family:-apple-system,&quot;SF Pro Display&quot;,&quot;SF Pro Text&quot;,Helvetica,sans-serif;" transform="matrix(1 0 0 1 263 1586)">Large</text>
 </g>
 <g id="Guides">
  <g id="H-reference" style="fill:#27AAE1;stroke:none;" transform="matrix(1 0 0 1 339 696)">
   <path d="M0.976562 0L3.66211 0L12.9883-24.4629L45.752-24.4629L55.127 0L57.7637 0L30.6152-70.459L28.125-70.459ZM29.3457-67.1387L29.4434-67.1387L44.873-26.709L13.8672-26.709Z"/>
  </g>
  <line id="Baseline-S" style="fill:none;stroke:#27AAE1;opacity:1;stroke-width:0.5;" x1="263" x2="3036" y1="696" y2="696"/>
  <line id="Capline-S" style="fill:none;stroke:#27AAE1;opacity:1;stroke-width:0.5;" x1="263" x2="3036" y1="625.541" y2="625.541"/>
  <g id="H-reference" style="fill:#27AAE1;stroke:none;" transform="matrix(1 0 0 1 339 1126)">
   <path d="M0.976562 0L3.66211 0L12.9883-24.4629L45.752-24.4629L55.127 0L57.7637 0L30.6152-70.459L28.125-70.459ZM29.3457-67.1387L29.4434-67.1387L44.873-26.709L13.8672-26.709Z"/>
  </g>
  <line id="Baseline-M" style="fill:none;stroke:#27AAE1;opacity:1;stroke-width:0.5;" x1="263" x2="3036" y1="1126" y2="1126"/>
  <line id="Capline-M" style="fill:none;stroke:#27AAE1;opacity:1;stroke-width:0.5;" x1="263" x2="3036" y1="1055.54" y2="1055.54"/>
  <g id="H-reference" style="fill:#27AAE1;stroke:none;" transform="matrix(1 0 0 1 339 1556)">
   <path d="M0.976562 0L3.66211 0L12.9883-24.4629L45.752-24.4629L55.127 0L57.7637 0L30.6152-70.459L28.125-70.459ZM29.3457-67.1387L29.4434-67.1387L44.873-26.709L13.8672-26.709Z"/>
  </g>
  <line id="Baseline-L" style="fill:none;stroke:#27AAE1;opacity:1;stroke-width:0.5;" x1="263" x2="3036" y1="1556" y2="1556"/>
  <line id="Capline-L" style="fill:none;stroke:#27AAE1;opacity:1;stroke-width:0.5;" x1="263" x2="3036" y1="1485.54" y2="1485.54"/>
  <line id="left-margin" style="fill:none;stroke:#00AEEF;stroke-width:0.5;opacity:1.0;" x1="1390.76" x2="1390.76" y1="1030.79" y2="1150.12"/>
  <line id="right-margin" style="fill:none;stroke:#00AEEF;stroke-width:0.5;opacity:1.0;" x1="1508.93" x2="1508.93" y1="1030.79" y2="1150.12"/>
 </g>
 <g id="Symbols">
  <g id="Black-L" transform="matrix(1 0 0 1 2850.61 1556)">
   <path d="M142.773-84.7168L149.219-91.5527C152.979-95.5078 153.711-101.514 149.805-105.273L147.168-108.008C143.848-111.23 137.939-110.4 134.082-106.689L127.344-100.098ZM36.9629 12.5C55.127 30.6152 75.293 36.7188 83.8379 38.0859C90.8691 39.3066 95.9961 36.4746 96.0938 29.9316C96.1914 24.6094 93.1641 22.0215 87.5977 20.3125C79.5898 18.0176 63.8672 13.3301 50.0488-0.585938C27.832-22.7051 22.3145-59.4238 41.6992-78.8574C56.2988-93.4082 80.0781-93.2617 97.7051-83.7402L111.377-97.3145C84.4238-114.453 49.707-112.988 28.6621-91.8945C3.27148-66.5039 5.41992-19.0918 36.9629 12.5ZM80.0293-22.0215L137.793-79.7852L122.363-95.166L64.6484-37.4023L58.3496-20.6543C57.1289-17.4316 60.4004-14.7461 63.1348-15.7715ZM63.6719-7.61719C82.666 14.2578 121.582 21.1426 141.553 1.17188C157.812-15.0879 158.301-43.7988 139.795-69.4336L126.465-56.1035C137.305-40.332 138.965-22.4121 128.467-11.9141C115.137 1.41602 94.5801-3.75977 83.4961-14.9414Z"/>
  </g>
  <g id="Heavy-L" transform="matrix(1 0 0 1 2555.59 1556)">
   <path d="M36.6211 10.8398C54.6387 28.8574 75.5371 34.7168 84.5703 35.9375C90.625 36.9629 94.9219 34.375 95.0684 28.9551C95.166 24.4629 92.5781 22.0215 87.6953 20.6055C79.248 18.6035 62.1094 13.916 47.8516-0.439453C25-23.2422 19.7754-60.2539 39.3555-79.8828C54.4434-94.9219 79.1016-94.3359 97.3633-84.4727L109.131-96.1426C82.9102-112.549 48.7305-111.768 28.125-91.1621C3.36914-66.3574 5.66406-20.0684 36.6211 10.8398ZM139.209-84.6191L145.264-90.9668C148.73-94.5801 149.316-99.9023 145.752-103.32L143.408-105.664C140.381-108.643 135.156-108.008 131.689-104.639L125.391-98.4375ZM76.8555-22.2656L134.326-79.7852L120.508-93.6035L63.0371-36.1328L56.9336-20.5078C55.9082-17.7734 58.6914-15.4297 61.084-16.3086ZM62.5488-8.93555C81.7383 12.5488 119.238 19.7266 138.818 0.146484C154.785-15.8203 154.639-44.0918 136.768-68.9941L125.293-57.5195C136.67-40.918 138.477-22.0703 127.539-11.1328C113.818 2.58789 92.1875-2.97852 79.6387-15.332Z"/>
  </g>
  <g id="Bold-L" transform="matrix(1 0 0 1 2260.75 1556)">
   <path d="M36.1816 9.0332C54.0527 26.9043 75.7812 32.4707 85.4492 33.5938C90.3809 34.3262 93.75 32.0312 93.8965 27.8809C94.043 24.2676 91.8945 21.9727 87.793 20.9473C78.8086 19.2383 60.1074 14.5996 45.4102-0.244141C21.8262-23.8281 16.8945-61.1328 36.7676-81.0547C52.3438-96.582 78.0273-95.459 97.0215-85.2051L106.689-94.7754C81.2012-110.449 47.6074-110.352 27.5391-90.2832C3.4668-66.1621 5.95703-21.1914 36.1816 9.0332ZM135.205-84.4727L140.869-90.332C143.945-93.5059 144.385-98.1445 141.26-101.123L139.258-103.076C136.523-105.713 132.031-105.273 128.955-102.295L123.193-96.5332ZM73.291-22.6074L130.518-79.7852L118.408-91.8457L61.2305-34.668L55.3711-20.3613C54.4922-18.1641 56.7383-16.1621 58.7402-16.8945ZM61.3281-10.4004C80.7129 10.6445 116.602 18.1152 135.742-1.02539C151.367-16.6504 150.537-44.4336 133.398-68.5059L123.926-59.082C135.889-41.5527 137.891-21.6797 126.465-10.2539C112.305 3.90625 89.4531-2.09961 75.3906-15.8203Z"/>
  </g>
  <g id="Semibold-L" transform="matrix(1 0 0 1 1965.34 1556)">
   <path d="M35.8398 7.76367C53.6621 25.5371 75.9766 30.9082 86.0352 31.9336C90.2344 32.5195 92.9199 30.4199 93.0664 27.1484C93.2617 24.1699 91.4551 21.9238 87.8418 21.1426C78.5645 19.6777 58.7402 15.0391 43.7012-0.0976562C19.6289-24.2188 14.9414-61.7676 34.9609-81.8359C50.8789-97.7051 77.2949-96.2891 96.7773-85.7422L104.98-93.8477C79.9805-108.984 46.875-109.424 27.0996-89.6973C3.51562-66.0645 6.15234-21.9727 35.8398 7.76367ZM132.471-84.4238L137.842-89.8926C140.674-92.8223 140.967-96.875 138.135-99.6094L136.377-101.318C133.887-103.711 129.883-103.418 127.1-100.684L121.631-95.2637ZM70.8008-22.8516L127.832-79.834L116.992-90.6738L60.0098-33.6914L54.2969-20.2637C53.5156-18.4082 55.4199-16.6992 57.1289-17.334ZM60.498-11.4258C80.0293 9.32617 114.795 16.9922 133.643-1.80664C149.023-17.1875 147.754-44.6777 131.055-68.1641L123.047-60.1562C135.4-41.9922 137.549-21.4355 125.781-9.66797C111.23 4.83398 87.5977-1.46484 72.4609-16.1621Z"/>
  </g>
  <g id="Medium-L" transform="matrix(1 0 0 1 1669.6 1556)">
   <path d="M35.6445 6.78711C53.3691 24.5117 76.0742 29.7852 86.4746 30.7129C90.0879 31.1523 92.2852 29.1992 92.4805 26.5625C92.6758 24.0723 91.1133 21.9238 87.8906 21.3379C78.3691 20.0195 57.666 15.3809 42.4316 0C17.9199-24.5117 13.4277-62.2559 33.5938-82.4219C49.8047-98.584 76.709-96.875 96.582-86.1816L103.662-93.1152C79.1016-107.91 46.2891-108.691 26.8066-89.209C3.61328-65.9668 6.29883-22.5098 35.6445 6.78711ZM130.42-84.375L135.547-89.5508C138.184-92.2363 138.428-95.9473 135.791-98.4863L134.229-99.9512C131.885-102.197 128.223-101.953 125.684-99.5117L120.508-94.2871ZM68.9453-22.998L125.83-79.834L115.918-89.7461L59.082-32.9102L53.4668-20.166C52.7832-18.6035 54.3945-17.0898 55.9082-17.627ZM59.8633-12.207C79.4922 8.30078 113.428 16.1621 132.031-2.44141C147.217-17.627 145.605-44.8242 129.297-67.8711L122.363-60.9375C135.01-42.334 137.256-21.2402 125.195-9.22852C110.449 5.51758 86.1816-1.02539 70.2148-16.4062Z"/>
  </g>
  <g id="Regular-L" transform="matrix(1 0 0 1 1374.16 1556)">
   <path d="M35.3516 5.56641C52.9785 23.1445 76.2695 28.2227 87.0605 29.0527C89.9414 29.3945 91.4551 27.6367 91.6992 25.8301C91.8945 23.9258 90.625 21.875 87.9395 21.5332C78.0762 20.459 56.2988 15.8691 40.7715 0.146484C15.7715-24.9512 11.5234-62.8418 31.7871-83.2031C48.3887-99.707 75.9766-97.6562 96.3379-86.6699L102.002-92.1875C77.9297-106.445 45.5078-107.764 26.416-88.623C3.66211-65.8203 6.49414-23.291 35.3516 5.56641ZM127.686-84.2773L132.568-89.1113C134.961-91.5527 135.059-94.7266 132.715-96.9727L131.348-98.1934C129.248-100.195 126.123-100.146 123.828-97.9004L118.994-93.0176ZM66.5039-23.2422L123.193-79.834L114.502-88.5254L57.8613-31.9336L52.3926-20.0684C51.8555-18.8477 53.125-17.5781 54.3457-18.0664ZM59.0332-13.1836C78.7598 7.03125 111.621 15.0879 129.932-3.22266C144.922-18.2129 142.773-45.0684 127.002-67.5293L121.436-62.0117C134.521-42.7734 136.865-20.9961 124.512-8.64258C109.424 6.44531 84.375-0.390625 67.2852-16.6992Z"/>
  </g>
  <g id="Light-L" transform="matrix(1 0 0 1 1078.21 1556)">
   <path d="M34.8633 5.12695C52.7344 22.998 76.9043 27.8809 87.1582 28.418C89.502 28.6133 90.6738 27.1973 90.8203 25.7812C90.918 24.3164 89.9414 22.7539 87.793 22.5098C78.2715 21.8262 55.2246 17.1875 39.1113 0.927734C13.7695-24.6094 9.96094-63.1836 30.5176-83.8379C47.3633-100.537 75.3906-98.584 96.0449-87.4512L100.537-91.748C76.9531-105.469 45.2148-106.934 26.3184-88.0371C3.85742-65.4785 6.44531-23.291 34.8633 5.12695ZM127.197-85.3516L131.885-89.9902C134.229-92.3828 134.375-95.1172 132.08-97.3145L131.152-98.1934C129.102-100.146 126.27-100.049 124.023-97.8516L119.385-93.1641ZM66.0156-24.3164L122.9-81.1035L115.137-88.8672L58.3008-32.1777L52.4414-20.4102C51.9043-19.3848 53.0762-18.2617 54.1016-18.7012ZM59.668-13.4277C78.2227 6.25 110.596 14.2578 128.662-3.80859C143.408-18.5547 141.113-45.2637 125.781-66.8457L121.436-62.5C134.814-42.9688 137.012-20.6055 124.414-8.00781C109.082 7.27539 83.3496 0.78125 66.0645-16.1133Z"/>
  </g>
  <g id="Thin-L" transform="matrix(1 0 0 1 782.472 1556)">
   <path d="M34.2773 4.58984C52.4414 22.7539 77.7344 27.4414 87.3047 27.5391C88.9648 27.5879 89.6484 26.6602 89.6973 25.7812C89.6973 24.8047 88.9648 23.877 87.6465 23.8281C78.5156 23.6816 53.8086 18.9453 36.9629 1.95312C11.084-24.2188 7.95898-63.623 28.8574-84.6191C45.9961-101.66 74.5605-99.7559 95.6543-88.4277L98.584-91.0645C75.7324-104.15 44.7754-105.859 26.1719-87.2559C4.05273-65.0391 6.39648-23.291 34.2773 4.58984ZM126.562-86.7676L130.957-91.1133C133.301-93.5059 133.447-95.6055 131.25-97.8027L130.859-98.1445C128.906-100.098 126.465-99.9512 124.268-97.7539L119.971-93.4082ZM65.4297-25.7812L122.461-82.7637L115.918-89.3555L58.8867-32.4707L52.5391-20.8984C52.0508-20.0684 53.0273-19.1895 53.8086-19.5801ZM60.498-13.7207C77.4902 5.22461 109.277 13.1348 126.953-4.58984C141.455-19.043 138.867-45.5566 124.219-65.918L121.436-63.0859C135.254-43.2617 137.158-20.1172 124.316-7.22656C108.643 8.39844 81.9824 2.34375 64.4043-15.2832Z"/>
  </g>
  <g id="Ultralight-L" transform="matrix(1 0 0 1 486.274 1556)">
   <path d="M33.9844 4.3457C52.2949 22.6562 78.1738 27.1973 87.4023 27.0996C88.6719 27.0508 89.1113 26.3672 89.1113 25.7812C89.0625 25.0977 88.4766 24.4629 87.5488 24.4629C78.6621 24.6094 53.0762 19.873 35.8398 2.44141C9.76562-23.9746 6.93359-63.8672 27.9785-85.0098C45.3125-102.197 74.1211-100.391 95.459-88.916L97.5586-90.7715C75.0488-103.467 44.5312-105.273 26.123-86.8652C4.19922-64.8438 6.34766-23.291 33.9844 4.3457ZM126.221-87.5L130.469-91.6992C132.812-94.0918 132.959-95.8496 130.811-98.0469L130.713-98.1445C128.809-100.098 126.562-99.9023 124.414-97.7539L120.215-93.5547ZM65.0879-26.5625L122.217-83.5938L116.357-89.5996L59.1797-32.6172L52.5391-21.1426C52.0996-20.4102 53.0273-19.6289 53.6621-20.0684ZM60.9375-13.8672C77.1484 4.6875 108.594 12.5488 126.123-4.98047C140.43-19.2871 137.695-45.7031 123.389-65.4297L121.484-63.4277C135.498-43.3594 137.256-19.873 124.268-6.83594C108.398 8.98438 81.2988 3.17383 63.5742-14.8926Z"/>
  </g>
  <g id="Black-M" transform="matrix(1 0 0 1 2867.36 1126)">
   <path d="M115.186-74.2676L120.557-80.127C123.926-83.6426 124.658-89.0137 121.191-92.334L118.945-94.7266C116.064-97.6074 110.742-96.7285 107.275-93.4082L101.562-87.8906ZM28.9551 3.71094C43.3105 18.0664 58.3984 23.0469 64.0137 24.0723C70.5078 25.293 75.4395 22.9004 75.4395 16.5527C75.4395 11.5723 72.6562 9.66797 67.7246 7.95898C62.2559 6.00586 51.3184 2.29492 40.8691-8.20312C24.3652-24.6582 19.9219-53.0762 34.8145-67.9688C45.6055-78.7598 63.0371-79.2969 75.9766-72.3145L88.4766-84.7168C66.9922-98.6328 39.6484-96.6797 22.8516-79.8828C2.49023-59.5215 3.85742-21.3867 28.9551 3.71094ZM66.0645-25.1953L111.23-70.4102L97.6562-83.9844L52.4902-38.7695L47.168-24.3164C45.9961-21.2891 49.1211-18.8477 51.6602-19.7754ZM51.123-12.207C65.0391 5.0293 96.875 9.91211 112.744-5.95703C125.586-18.7988 126.709-41.6016 111.768-61.9629L99.6094-49.7559C107.471-38.5254 108.447-25.5371 100.732-17.8711C90.8691-8.00781 76.0254-11.2793 69.1895-18.6035Z"/>
  </g>
  <g id="Heavy-M" transform="matrix(1 0 0 1 2572.31 1126)">
   <path d="M111.426-73.877L116.455-79.248C119.434-82.4219 120.02-87.1094 116.943-90.0879L114.941-92.1875C112.305-94.7754 107.666-94.0918 104.59-91.1133L99.3164-85.9863ZM28.6133 2.05078C42.7734 16.2109 58.4961 20.9473 64.7949 21.9238C70.3613 22.9492 74.4629 20.752 74.5117 15.5273C74.5605 11.2793 72.168 9.375 67.8223 8.00781C61.8164 6.25 49.6582 2.63672 38.916-8.20312C21.7773-25.293 17.5293-53.8574 32.5684-68.9453C43.7988-80.1758 62.1582-80.2246 75.7324-72.8516L86.4746-83.5449C65.5762-96.8262 38.6719-95.5566 22.3145-79.1992C2.53906-59.4238 4.10156-22.4609 28.6133 2.05078ZM62.6953-25.1953L107.568-70.0684L95.459-82.1777L50.6348-37.3047L45.6055-24.0723C44.6289-21.5332 47.2168-19.3848 49.4141-20.166ZM49.7559-13.5742C64.1602 3.36914 94.5801 8.59375 110.059-6.93359C122.656-19.5312 123.145-41.8457 108.789-61.6699L98.291-51.1719C106.689-39.0625 107.861-25.293 99.7559-17.1875C89.502-6.93359 73.6328-10.7422 65.332-19.2383Z"/>
  </g>
  <g id="Bold-M" transform="matrix(1 0 0 1 2277.43 1126)">
   <path d="M28.2715 0.146484C42.2363 14.1113 58.5449 18.6035 65.6738 19.5312C70.2148 20.2637 73.3887 18.3105 73.4863 14.3555C73.584 10.9863 71.6309 9.08203 67.9688 8.05664C61.3281 6.54297 47.8027 2.97852 36.6699-8.25195C18.8477-26.0254 14.8438-54.7363 30.0781-70.0195C41.8457-81.7383 61.1328-81.2012 75.3906-73.4863L84.1797-82.1777C63.9648-94.8242 37.5488-94.2871 21.6797-78.418C2.63672-59.3262 4.44336-23.6816 28.2715 0.146484ZM107.227-73.4375L111.865-78.3203C114.453-81.0059 114.844-85.0586 112.207-87.5977L110.449-89.4043C108.154-91.6016 104.199-91.1621 101.562-88.623L96.7773-83.8867ZM58.9355-25.2441L103.467-69.7266L93.0176-80.1758L48.5352-35.6445L43.8477-23.7793C43.0664-21.7773 45.166-20.0195 46.9238-20.6543ZM48.2422-15.0879C63.1836 1.51367 91.9922 7.08008 107.08-8.00781C119.385-20.3125 119.189-42.1387 105.42-61.3281L96.875-52.7344C105.762-39.7461 107.227-25 98.6328-16.4062C87.9395-5.71289 70.9961-10.1074 61.0352-19.9219Z"/>
  </g>
  <g id="Semibold-M" transform="matrix(1 0 0 1 1981.99 1126)">
   <path d="M28.0762-1.12305C41.8457 12.6465 58.6426 16.9922 66.3086 17.8711C70.1172 18.457 72.6562 16.6504 72.7539 13.5254C72.9004 10.791 71.2891 8.88672 68.0664 8.10547C60.9863 6.78711 46.4844 3.17383 35.1562-8.25195C16.8457-26.5625 12.9883-55.3711 28.3691-70.752C40.4785-82.8125 60.4492-81.8848 75.1953-73.9258L82.6172-81.25C62.8418-93.4082 36.8164-93.457 21.2402-77.8809C2.68555-59.2773 4.6875-24.5117 28.0762-1.12305ZM104.297-73.1445L108.691-77.6367C110.986-80.0781 111.279-83.5938 108.936-85.8887L107.324-87.4512C105.273-89.4043 101.807-89.1113 99.5117-86.8652L95.0195-82.4219ZM56.3477-25.2441L100.635-69.4824L91.3086-78.7598L47.0703-34.5215L42.6758-23.584C41.9922-21.9238 43.7012-20.4102 45.2148-20.9961ZM47.2168-16.1621C62.5 0.195312 90.1855 6.05469 105.029-8.74023C117.09-20.8496 116.406-42.3828 103.125-61.084L95.8496-53.8574C105.127-40.1855 106.787-24.7559 97.9004-15.8691C86.8652-4.88281 69.1406-9.66797 58.0566-20.4102Z"/>
  </g>
  <g id="Medium-M" transform="matrix(1 0 0 1 1686.23 1126)">
   <path d="M27.8809-2.09961C41.5527 11.5723 58.6914 15.7715 66.7969 16.6016C70.0195 17.0898 72.0703 15.3809 72.2168 12.8906C72.4121 10.5957 70.9961 8.74023 68.1152 8.1543C60.7422 6.93359 45.5566 3.36914 34.0332-8.25195C15.332-26.9043 11.6211-55.8594 27.0508-71.3379C39.4043-83.6426 59.9121-82.4219 75.0488-74.2676L81.4453-80.5664C62.0117-92.3828 36.2305-92.7734 20.9473-77.4902C2.68555-59.1797 4.83398-25.1465 27.8809-2.09961ZM102.1-72.9492L106.25-77.1484C108.398-79.3457 108.594-82.5195 106.445-84.5703L104.98-85.9863C103.076-87.7441 100-87.5977 97.9004-85.5469L93.7012-81.3477ZM54.3945-25.293L98.4863-69.3359L90.0391-77.7344L45.9961-33.6914L41.748-23.4375C41.2109-22.0703 42.5781-20.752 43.8965-21.2402ZM46.4355-16.9922C62.0117-0.78125 88.8184 5.27344 103.467-9.32617C115.381-21.2891 114.355-42.5293 101.367-60.8887L95.1172-54.6387C104.688-40.5273 106.445-24.6094 97.3145-15.4785C86.084-4.24805 67.7734-9.32617 55.8105-20.752Z"/>
  </g>
  <g id="Regular-M" transform="matrix(1 0 0 1 1390.76 1126)">
   <path d="M27.6367-3.41797C41.1621 10.1074 58.7402 14.1602 67.3828 14.9902C69.9219 15.2832 71.3379 13.7207 71.5332 12.1094C71.7285 10.4004 70.6543 8.54492 68.2129 8.20312C60.4004 7.12891 44.2871 3.61328 32.5195-8.25195C13.3789-27.4414 9.76562-56.4453 25.3906-72.0703C38.0859-84.7168 59.2285-83.1055 74.8047-74.707L79.8828-79.6387C60.9375-91.0156 35.4492-91.9434 20.5078-76.9531C2.73438-59.1309 5.07812-25.9766 27.6367-3.41797ZM99.2188-72.6074L103.125-76.5137C104.98-78.3691 105.078-81.1035 103.174-82.8613L101.904-84.0332C100.244-85.5957 97.6562-85.5469 95.8496-83.8379L91.9922-79.8828ZM51.8066-25.293L95.6543-69.0918L88.3789-76.3184L44.5801-32.5684L40.5762-23.2422C40.1367-22.2168 41.1621-21.1914 42.2363-21.5332ZM45.4102-18.0176C61.377-2.05078 87.0605 4.24805 101.416-10.0586C113.135-21.8262 111.621-42.7246 99.0723-60.6934L94.0918-55.7129C104.053-40.9668 106.006-24.4141 96.5332-14.9414C85.0098-3.41797 65.9668-8.88672 52.8809-21.2402Z"/>
  </g>
  <g id="Light-M" transform="matrix(1 0 0 1 1094.73 1126)">
   <path d="M27.2461-3.75977C40.9668 9.96094 59.3262 13.8184 67.4805 14.4043C69.5312 14.5996 70.6543 13.3301 70.752 12.0605C70.8984 10.7422 70.0195 9.32617 68.1152 9.08203C60.5957 8.39844 43.3105 4.78516 31.0547-7.56836C11.5723-27.1484 8.39844-56.7383 24.2188-72.6074C37.1582-85.498 58.6914-83.9355 74.5605-75.3418L78.5645-79.248C60.0586-90.0879 35.1562-91.1621 20.4102-76.416C2.88086-58.8379 5.0293-25.9766 27.2461-3.75977ZM98.7793-73.584L102.49-77.2949C104.346-79.1504 104.443-81.4453 102.637-83.2031L101.758-84.0332C100.098-85.5469 97.8027-85.498 96.0449-83.7891L92.334-80.0781ZM51.3672-26.2695L95.3613-70.2148L88.9648-76.6602L44.9707-32.7637L40.625-23.584C40.1855-22.7051 41.1621-21.7773 42.041-22.1191ZM45.9473-18.2129C60.8887-2.73438 86.1816 3.51562 100.244-10.5957C111.816-22.168 110.107-42.9199 97.998-60.0586L94.1406-56.1523C104.346-41.1621 106.104-24.0723 96.4844-14.4043C84.7168-2.63672 65.0391-7.86133 51.7578-20.7031Z"/>
  </g>
  <g id="Thin-M" transform="matrix(1 0 0 1 798.903 1126)">
   <path d="M26.709-4.24805C40.7227 9.76562 60.0586 13.4277 67.627 13.623C69.043 13.6719 69.6777 12.8418 69.7266 12.0605C69.7754 11.1816 69.1406 10.3027 67.9688 10.2539C60.791 10.0098 41.9922 6.39648 29.1016-6.64062C9.17969-26.7578 6.5918-57.1289 22.7051-73.3398C35.9375-86.4746 57.959-85.0098 74.2188-76.2207L76.8066-78.6621C58.9355-88.916 34.8145-90.1855 20.3125-75.7324C3.125-58.4473 4.98047-25.9766 26.709-4.24805ZM98.1934-74.8535L101.709-78.2715C103.516-80.1758 103.613-81.9336 101.904-83.5938L101.465-83.9844C99.9512-85.498 97.9492-85.4004 96.2891-83.7402L92.8223-80.2734ZM50.8301-27.5879L95.0195-71.7285L89.6484-77.0508L45.5078-33.0078L40.6738-24.0234C40.2832-23.3398 41.1133-22.6074 41.748-22.9004ZM46.7285-18.5059C60.2051-3.66211 84.9609 2.49023 98.7793-11.3281C110.059-22.6074 108.105-43.1641 96.582-59.2285L94.1406-56.6895C104.736-41.3574 106.25-23.6328 96.3379-13.7207C84.2773-1.66016 63.8184-6.44531 50.2441-19.9707Z"/>
  </g>
  <g id="Ultralight-M" transform="matrix(1 0 0 1 502.655 1126)">
   <path d="M26.416-4.49219C40.5762 9.66797 60.4492 13.2324 67.7246 13.1836C68.7988 13.1836 69.2383 12.5977 69.2383 12.0605C69.2383 11.4258 68.75 10.8398 67.8711 10.8398C60.9375 10.8887 41.3574 7.17773 28.125-6.20117C7.95898-26.5625 5.66406-57.3242 21.9727-73.6816C35.3027-86.9629 57.5684-85.5469 74.0234-76.6602L75.9277-78.3691C58.3496-88.3301 34.5703-89.6973 20.2637-75.3906C3.22266-58.252 4.93164-25.9766 26.416-4.49219ZM97.9004-75.5371L101.27-78.8086C103.076-80.6641 103.174-82.1289 101.514-83.8379L101.367-83.9844C99.8535-85.498 98.0469-85.3516 96.3867-83.6914L93.0664-80.3711ZM50.5371-28.2715L94.7754-72.4609L90.0391-77.2949L45.8008-33.1543L40.7227-24.2676C40.332-23.6328 41.1133-22.998 41.6504-23.3398ZM47.1191-18.6523C59.8633-4.15039 84.375 1.95312 97.998-11.6699C109.131-22.8027 107.08-43.3105 95.8984-58.7891L94.1406-56.9824C104.932-41.5039 106.348-23.3887 96.2891-13.3789C84.082-1.12305 63.2324-5.71289 49.5117-19.5801Z"/>
  </g>
  <g id="Black-S" transform="matrix(1 0 0 1 2881.79 696)">
   <path d="M89.9414-65.7715L94.1406-70.3125C96.7285-73.0469 97.3145-77.1973 94.6289-79.7852L92.8711-81.6406C90.625-83.8867 86.5234-83.2031 83.8379-80.6152L79.3945-76.3184ZM22.6562-4.83398C33.8867 6.39648 45.752 10.2539 50.1953 11.084C55.2246 12.0117 59.0332 10.1562 59.0332 5.27344C59.0332 1.41602 56.8848-0.0976562 53.0762-1.41602C48.7305-2.92969 40.0879-5.81055 31.8848-14.0625C18.8965-27.002 15.4297-49.2676 27.0996-60.9375C35.5957-69.4336 49.3164-69.8242 59.5215-64.3066L69.1895-73.9258C52.3926-84.7656 31.0059-83.3008 17.8711-70.166C1.95312-54.248 3.02734-24.4629 22.6562-4.83398ZM51.5137-27.3438L86.8652-62.7441L76.3184-73.291L40.9668-37.8906L36.8164-26.6602C35.9375-24.3164 38.3301-22.4121 40.2832-23.1445ZM39.9414-17.2852C50.8789-3.80859 75.7324 0.0488281 88.1348-12.3535C98.1934-22.4121 99.0234-40.2344 87.3535-56.1523L77.9297-46.7285C84.1309-37.8418 84.9121-27.6367 78.8574-21.582C71.0938-13.8184 59.375-16.4551 53.9062-22.2656Z"/>
  </g>
  <g id="Heavy-S" transform="matrix(1 0 0 1 2586.27 696)">
   <path d="M87.1094-65.3809L91.0645-69.5801C93.3594-72.0215 93.8477-75.7324 91.4551-78.0273L89.7949-79.7363C87.793-81.7383 84.1309-81.2012 81.7383-78.9062L77.6367-74.8535ZM22.4609-6.10352C33.4961 4.98047 45.752 8.69141 50.7812 9.52148C55.1758 10.3027 58.3496 8.54492 58.3984 4.44336C58.4473 1.17188 56.5918-0.390625 53.1738-1.46484C48.3887-2.88086 38.916-5.71289 30.5176-14.1602C17.0898-27.5391 13.7695-49.8535 25.5371-61.6211C34.3262-70.4102 48.6816-70.4102 59.3262-64.6484L67.7734-73.0469C51.3672-83.4961 30.2734-82.5195 17.4316-69.6777C1.95312-54.1992 3.27148-25.293 22.4609-6.10352ZM48.9746-27.2461L84.082-62.4023L74.5605-71.875L39.502-36.7676L35.5957-26.416C34.8633-24.4141 36.9141-22.7539 38.5742-23.3887ZM38.8184-18.3105C50.2441-5.0293 74.0723-0.878906 86.2305-13.0371C96.0938-22.9004 96.4355-40.4297 85.1562-56.0059L76.9531-47.7539C83.4961-38.2812 84.4238-27.4414 78.0762-21.0938C70.0684-13.0859 57.666-16.1621 51.0742-22.8027Z"/>
  </g>
  <g id="Bold-S" transform="matrix(1 0 0 1 2290.88 696)">
   <path d="M22.2656-7.4707C33.1055 3.36914 45.752 6.93359 51.4648 7.76367C55.0781 8.34961 57.6172 6.73828 57.7148 3.56445C57.8125 0.878906 56.25-0.683594 53.2715-1.51367C47.998-2.7832 37.5977-5.61523 29.0039-14.2578C15.0879-28.125 11.8652-50.4883 23.7305-62.4023C32.9102-71.5332 47.998-71.0938 59.1309-65.0879L66.2109-72.0703C50.2441-82.0801 29.4434-81.6406 16.9922-69.1895C2.00195-54.1992 3.51562-26.2207 22.2656-7.4707ZM83.9355-64.9414L87.5977-68.75C89.6484-70.8496 89.9414-74.1211 87.8418-76.123L86.377-77.5391C84.6191-79.2969 81.4941-78.9551 79.4434-76.9531L75.6348-73.2422ZM46.1426-27.1484L80.957-61.9629L72.6562-70.3125L37.8418-35.4492L34.2773-26.1719C33.6426-24.5605 35.3027-23.1445 36.7188-23.6816ZM37.5977-19.4824C49.6094-6.34766 72.168-1.95312 84.0332-13.8184C93.75-23.4863 93.6035-40.625 82.7637-55.8105L75.8301-48.9258C82.7637-38.7207 83.9355-27.2461 77.2461-20.6055C68.8965-12.2559 55.7129-15.7715 47.9492-23.3887Z"/>
  </g>
  <g id="Semibold-S" transform="matrix(1 0 0 1 1995.07 696)">
   <path d="M22.1191-8.44727C32.8125 2.29492 45.752 5.71289 51.9043 6.54297C55.0293 7.03125 57.1289 5.46875 57.2266 2.92969C57.373 0.683594 56.0547-0.927734 53.3691-1.5625C47.7051-2.73438 36.7188-5.51758 27.9785-14.3066C13.7207-28.5156 10.5957-50.9277 22.5586-62.9395C31.9336-72.3145 47.5098-71.5332 58.9844-65.332L65.0879-71.4355C49.5117-81.0547 28.9062-81.0547 16.6504-68.7988C2.00195-54.1504 3.66211-26.8555 22.1191-8.44727ZM81.7383-64.5996L85.2539-68.2129C87.0605-70.0684 87.3047-72.9492 85.4004-74.7559L84.0332-76.0742C82.4219-77.6367 79.6387-77.3926 77.832-75.6348L74.2676-72.1191ZM44.1895-27.0996L78.8086-61.7188L71.2891-69.1895L36.7188-34.5703L33.3496-25.9766C32.8613-24.6582 34.1797-23.4375 35.4004-23.877ZM36.7676-20.2637C49.1211-7.27539 70.8984-2.68555 82.5684-14.3555C92.0898-23.877 91.6016-40.7715 81.0547-55.6641L75.0488-49.707C82.2754-39.0625 83.5938-27.1484 76.6602-20.2148C68.1152-11.6699 54.3945-15.5273 45.752-23.8281Z"/>
  </g>
  <g id="Medium-S" transform="matrix(1 0 0 1 1699.05 696)">
   <path d="M21.9727-9.17969C32.6172 1.46484 45.752 4.78516 52.2949 5.61523C55.0293 6.00586 56.7383 4.54102 56.8848 2.49023C57.0312 0.537109 55.8594-1.07422 53.418-1.5625C47.5098-2.68555 36.0352-5.46875 27.1973-14.3555C12.6953-28.8574 9.61914-51.2695 21.6309-63.3301C31.2012-72.9004 47.168-71.875 58.8867-65.5762L64.3066-70.8984C48.9258-80.3223 28.4668-80.6152 16.4062-68.5547C2.05078-54.1504 3.80859-27.3438 21.9727-9.17969ZM80.127-64.3555L83.4473-67.7734C85.1074-69.4824 85.2539-72.1191 83.5449-73.7305L82.2754-74.9512C80.7617-76.3672 78.2227-76.2207 76.6113-74.6582L73.2422-71.2402ZM42.7246-27.0508L77.1973-61.4746L70.3125-68.3594L35.8398-33.9355L32.666-25.8789C32.2266-24.7559 33.3496-23.6328 34.4238-24.0234ZM36.1328-20.8496C48.7793-7.95898 69.9219-3.22266 81.4453-14.7461C90.8691-24.1699 90.1367-40.8691 79.7852-55.6152L74.4629-50.293C81.8848-39.3066 83.3008-27.0508 76.2207-19.9707C67.5293-11.2305 53.418-15.3809 44.0918-24.1211Z"/>
  </g>
  <g id="Regular-S" transform="matrix(1 0 0 1 1403.24 696)">
   <path d="M21.8262-10.1074C32.3242 0.390625 45.752 3.61328 52.7344 4.39453C54.9805 4.6875 56.2012 3.32031 56.3965 1.85547C56.5918 0.341797 55.6641-1.31836 53.4668-1.61133C47.2168-2.63672 35.1562-5.37109 26.1719-14.4531C11.3281-29.248 8.30078-51.709 20.4102-63.8672C30.2734-73.6328 46.6797-72.3633 58.7402-65.8203L63.2324-70.2637C48.1445-79.3457 27.9297-80.0293 16.0645-68.1641C2.05078-54.1016 4.00391-27.9785 21.8262-10.1074ZM77.9297-64.0625L81.1035-67.1875C82.5684-68.6523 82.6172-70.9961 81.1035-72.4121L79.9316-73.4863C78.5645-74.707 76.416-74.707 75-73.3398L71.875-70.166ZM40.7715-26.9531L75.0977-61.2305L68.9453-67.2852L34.7168-33.0566L31.7383-25.6836C31.3965-24.8047 32.2754-23.9258 33.1543-24.2188ZM35.3027-21.6797C48.291-8.88672 68.6523-3.90625 79.9805-15.2832C89.2578-24.5605 88.1836-41.0156 78.125-55.4688L73.7305-51.0742C81.3965-39.6484 82.959-26.9043 75.6348-19.5801C66.748-10.6934 52.0996-15.1367 41.9434-24.5117Z"/>
  </g>
  <g id="Light-S" transform="matrix(1 0 0 1 1107.14 696)">
   <path d="M21.4844-10.4492C32.1777 0.244141 46.2402 3.32031 52.832 3.85742C54.6387 4.05273 55.6152 2.97852 55.7129 1.85547C55.8594 0.634766 55.0781-0.634766 53.3691-0.830078C47.3633-1.5625 34.2773-4.3457 24.8535-13.8184C9.7168-29.0039 7.12891-51.9531 19.4336-64.3066C29.4434-74.3164 46.1914-73.0469 58.4961-66.4062L62.0605-69.873C47.4121-78.5645 27.6855-79.3457 16.0156-67.7246C2.19727-53.8574 3.95508-27.9785 21.4844-10.4492ZM77.5391-64.8926L80.5176-67.8711C81.9824-69.3359 82.0312-71.2891 80.6152-72.7051L79.7852-73.4863C78.4668-74.6582 76.5625-74.6582 75.1465-73.291L72.2168-70.3125ZM40.4297-27.832L74.8535-62.207L69.4824-67.5781L35.0586-33.2031L31.7871-25.9766C31.4453-25.2441 32.2266-24.4629 33.0078-24.7559ZM35.791-21.8262C47.8516-9.52148 67.8223-4.58984 79.0039-15.7227C88.0859-24.8535 86.8164-41.1621 77.1973-54.9316L73.7305-51.4648C81.6406-39.7949 83.0566-26.6113 75.5859-19.1406C66.4551-10.0098 51.2695-14.1602 40.9668-24.0234Z"/>
  </g>
  <g id="Thin-S" transform="matrix(1 0 0 1 811.207 696)">
   <path d="M20.9961-10.8398C31.9336 0.0488281 46.875 2.97852 52.9297 3.17383C54.1992 3.27148 54.7852 2.53906 54.834 1.80664C54.8828 1.07422 54.3457 0.244141 53.2715 0.195312C47.5586-0.0976562 33.1543-2.92969 23.1445-13.0371C7.61719-28.6621 5.51758-52.2949 18.0664-64.9414C28.3691-75.1953 45.5078-74.0234 58.2031-67.1875L60.498-69.3848C46.3867-77.5391 27.2949-78.4668 15.918-67.0898C2.39258-53.5156 3.90625-27.9785 20.9961-10.8398ZM77.0508-66.0156L79.7852-68.75C81.25-70.2148 81.2988-71.7285 79.9316-73.0469L79.541-73.4375C78.3203-74.6582 76.709-74.5605 75.3418-73.2422L72.6074-70.459ZM39.8926-29.0039L74.4629-63.5254L70.1172-67.9199L35.5469-33.4473L31.8359-26.3672C31.543-25.7812 32.1777-25.1953 32.7637-25.4395ZM36.4258-22.0703C47.2656-10.3027 66.7969-5.46875 77.6367-16.3574C86.5234-25.2441 85.0586-41.4062 75.9277-54.1992L73.7305-51.9531C81.9824-39.9902 83.2031-26.2207 75.4883-18.5059C66.1133-9.13086 50.2441-12.9395 39.6484-23.3887Z"/>
  </g>
  <g id="Ultralight-S" transform="matrix(1 0 0 1 514.887 696)">
   <path d="M20.752-11.084C31.8359-0.0488281 47.2168 2.7832 53.0273 2.83203C53.9551 2.83203 54.3457 2.29492 54.3457 1.80664C54.3457 1.26953 53.9551 0.732422 53.1738 0.732422C47.7051 0.634766 32.5684-2.19727 22.2656-12.5977C6.54297-28.5156 4.6875-52.4902 17.3828-65.2832C27.832-75.6348 45.2148-74.5117 58.0566-67.5781L59.7168-69.0918C45.8496-77.002 27.1484-78.0273 15.8691-66.748C2.49023-53.3203 3.85742-27.9785 20.752-11.084ZM76.7578-66.6016L79.4434-69.2383C80.8594-70.7031 80.957-71.9238 79.6387-73.2422L79.4434-73.4375C78.2227-74.6094 76.8066-74.5117 75.4883-73.1934L72.8516-70.6055ZM39.6484-29.5898L74.3164-64.209L70.459-68.1152L35.791-33.5449L31.8848-26.5625C31.5918-26.0742 32.1777-25.5371 32.666-25.7812ZM36.7676-22.168C46.9727-10.7422 66.2598-5.95703 76.9531-16.6992C85.7422-25.4395 84.1309-41.5039 75.293-53.8086L73.7305-52.1973C82.1289-40.0879 83.3008-26.0254 75.4395-18.1641C65.918-8.64258 49.707-12.3047 38.9648-23.0957Z"/>
  </g>
 </g>
</svg>
