<?xml version="1.0" encoding="UTF-8"?>
<!--Generator: Apple Native CoreSVG 149-->
<!DOCTYPE svg
PUBLIC "-//W3C//DTD SVG 1.1//EN"
       "http://www.w3.org/Graphics/SVG/1.1/DTD/svg11.dtd">
<svg version="1.1" xmlns="http://www.w3.org/2000/svg" xmlns:xlink="http://www.w3.org/1999/xlink" width="3300" height="2200">
 <!--glyph: "uni100152.medium", point size: 100.000000, font version: "Version 16.0d18e1", template writer version: "8"-->
 <g id="Notes">
  <rect height="2200" id="artboard" style="fill:white;opacity:1" width="3300" x="0" y="0"/>
  <line id="" style="fill:none;stroke:black;opacity:1;stroke-width:0.5;" x1="263" x2="3036" y1="292" y2="292"/>
  <text style="stroke:none;fill:black;font-family:-apple-system,&quot;SF Pro Display&quot;,&quot;SF Pro Text&quot;,Helvetica,sans-serif;font-weight:bold;" transform="matrix(1 0 0 1 263 322)">Weight/Scale Variations</text>
  <text style="stroke:none;fill:black;font-family:-apple-system,&quot;SF Pro Display&quot;,&quot;SF Pro Text&quot;,Helvetica,sans-serif;text-anchor:middle;" transform="matrix(1 0 0 1 559.711 322)">Ultralight</text>
  <text style="stroke:none;fill:black;font-family:-apple-system,&quot;SF Pro Display&quot;,&quot;SF Pro Text&quot;,Helvetica,sans-serif;text-anchor:middle;" transform="matrix(1 0 0 1 856.422 322)">Thin</text>
  <text style="stroke:none;fill:black;font-family:-apple-system,&quot;SF Pro Display&quot;,&quot;SF Pro Text&quot;,Helvetica,sans-serif;text-anchor:middle;" transform="matrix(1 0 0 1 1153.13 322)">Light</text>
  <text style="stroke:none;fill:black;font-family:-apple-system,&quot;SF Pro Display&quot;,&quot;SF Pro Text&quot;,Helvetica,sans-serif;text-anchor:middle;" transform="matrix(1 0 0 1 1449.84 322)">Regular</text>
  <text style="stroke:none;fill:black;font-family:-apple-system,&quot;SF Pro Display&quot;,&quot;SF Pro Text&quot;,Helvetica,sans-serif;text-anchor:middle;" transform="matrix(1 0 0 1 1746.56 322)">Medium</text>
  <text style="stroke:none;fill:black;font-family:-apple-system,&quot;SF Pro Display&quot;,&quot;SF Pro Text&quot;,Helvetica,sans-serif;text-anchor:middle;" transform="matrix(1 0 0 1 2043.27 322)">Semibold</text>
  <text style="stroke:none;fill:black;font-family:-apple-system,&quot;SF Pro Display&quot;,&quot;SF Pro Text&quot;,Helvetica,sans-serif;text-anchor:middle;" transform="matrix(1 0 0 1 2339.98 322)">Bold</text>
  <text style="stroke:none;fill:black;font-family:-apple-system,&quot;SF Pro Display&quot;,&quot;SF Pro Text&quot;,Helvetica,sans-serif;text-anchor:middle;" transform="matrix(1 0 0 1 2636.69 322)">Heavy</text>
  <text style="stroke:none;fill:black;font-family:-apple-system,&quot;SF Pro Display&quot;,&quot;SF Pro Text&quot;,Helvetica,sans-serif;text-anchor:middle;" transform="matrix(1 0 0 1 2933.4 322)">Black</text>
  <line id="" style="fill:none;stroke:black;opacity:1;stroke-width:0.5;" x1="263" x2="3036" y1="1903" y2="1903"/>
  <g id="" transform="matrix(1 0 0 1 263 1933)">
   <path d="M9.24805 0.830078C13.5547 0.830078 17.1387-2.74414 17.1387-7.05078C17.1387-11.3574 13.5449-14.9316 9.23828-14.9316C4.94141-14.9316 1.36719-11.3574 1.36719-7.05078C1.36719-2.74414 4.95117 0.830078 9.24805 0.830078ZM9.24805-0.654297C5.70312-0.654297 2.87109-3.49609 2.87109-7.05078C2.87109-10.6055 5.69336-13.4473 9.23828-13.4473C12.793-13.4473 15.6348-10.6055 15.6445-7.05078C15.6543-3.49609 12.8027-0.654297 9.24805-0.654297ZM6.39648-6.31836L8.50586-6.31836L8.50586-4.19922C8.50586-3.75977 8.79883-3.45703 9.22852-3.45703C9.67773-3.45703 9.9707-3.75977 9.9707-4.19922L9.9707-6.31836L12.0996-6.31836C12.5391-6.31836 12.8418-6.61133 12.8418-7.04102C12.8418-7.48047 12.5391-7.7832 12.0996-7.7832L9.9707-7.7832L9.9707-9.89258C9.9707-10.3418 9.67773-10.6445 9.22852-10.6445C8.79883-10.6445 8.50586-10.3418 8.50586-9.89258L8.50586-7.7832L6.39648-7.7832C5.94727-7.7832 5.64453-7.48047 5.64453-7.04102C5.64453-6.61133 5.94727-6.31836 6.39648-6.31836Z"/>
  </g>
  <g id="" transform="matrix(1 0 0 1 281.506 1933)">
   <path d="M11.709 2.91016C17.1582 2.91016 21.6699-1.61133 21.6699-7.05078C21.6699-12.5 17.1484-17.0117 11.6992-17.0117C6.25977-17.0117 1.74805-12.5 1.74805-7.05078C1.74805-1.61133 6.26953 2.91016 11.709 2.91016ZM11.709 1.25C7.09961 1.25 3.41797-2.44141 3.41797-7.05078C3.41797-11.6602 7.08984-15.3516 11.6992-15.3516C16.3086-15.3516 20-11.6602 20.0098-7.05078C20.0195-2.44141 16.3184 1.25 11.709 1.25ZM7.98828-6.23047L10.8789-6.23047L10.8789-3.32031C10.8789-2.83203 11.2109-2.5 11.6895-2.5C12.1777-2.5 12.5195-2.83203 12.5195-3.32031L12.5195-6.23047L15.4297-6.23047C15.918-6.23047 16.25-6.5625 16.25-7.04102C16.25-7.5293 15.918-7.87109 15.4297-7.87109L12.5195-7.87109L12.5195-10.7617C12.5195-11.2695 12.1777-11.6016 11.6895-11.6016C11.2109-11.6016 10.8789-11.2598 10.8789-10.7617L10.8789-7.87109L7.98828-7.87109C7.48047-7.87109 7.14844-7.5293 7.14844-7.04102C7.14844-6.5625 7.49023-6.23047 7.98828-6.23047Z"/>
  </g>
  <g id="" transform="matrix(1 0 0 1 304.924 1933)">
   <path d="M14.9707 5.66406C21.9336 5.66406 27.6953-0.0976562 27.6953-7.05078C27.6953-14.0137 21.9238-19.7754 14.9609-19.7754C8.00781-19.7754 2.25586-14.0137 2.25586-7.05078C2.25586-0.0976562 8.01758 5.66406 14.9707 5.66406ZM14.9707 3.84766C8.93555 3.84766 4.08203-1.01562 4.08203-7.05078C4.08203-13.0957 8.92578-17.9492 14.9609-17.9492C21.0059-17.9492 25.8594-13.0957 25.8691-7.05078C25.8789-1.01562 21.0156 3.84766 14.9707 3.84766ZM10.0586-6.14258L14.0625-6.14258L14.0625-2.12891C14.0625-1.5918 14.4336-1.2207 14.9512-1.2207C15.4883-1.2207 15.8594-1.5918 15.8594-2.12891L15.8594-6.14258L19.8828-6.14258C20.4102-6.14258 20.791-6.51367 20.791-7.03125C20.791-7.56836 20.4199-7.94922 19.8828-7.94922L15.8594-7.94922L15.8594-11.9531C15.8594-12.5098 15.4883-12.8809 14.9512-12.8809C14.4336-12.8809 14.0625-12.5 14.0625-11.9531L14.0625-7.94922L10.0586-7.94922C9.50195-7.94922 9.13086-7.56836 9.13086-7.03125C9.13086-6.51367 9.51172-6.14258 10.0586-6.14258Z"/>
  </g>
  <text style="stroke:none;fill:black;font-family:-apple-system,&quot;SF Pro Display&quot;,&quot;SF Pro Text&quot;,Helvetica,sans-serif;font-weight:bold;" transform="matrix(1 0 0 1 263 1953)">Design Variations</text>
  <text style="stroke:none;fill:black;font-family:-apple-system,&quot;SF Pro Display&quot;,&quot;SF Pro Text&quot;,Helvetica,sans-serif;" transform="matrix(1 0 0 1 263 1971)">Symbols are supported in up to nine weights and three scales.</text>
  <text style="stroke:none;fill:black;font-family:-apple-system,&quot;SF Pro Display&quot;,&quot;SF Pro Text&quot;,Helvetica,sans-serif;" transform="matrix(1 0 0 1 263 1989)">For optimal layout with text and other symbols, vertically align</text>
  <text style="stroke:none;fill:black;font-family:-apple-system,&quot;SF Pro Display&quot;,&quot;SF Pro Text&quot;,Helvetica,sans-serif;" transform="matrix(1 0 0 1 263 2007)">symbols with the adjacent text.</text>
  <line id="" style="fill:none;stroke:#00AEEF;stroke-width:0.5;opacity:1.0;" x1="776" x2="776" y1="1919" y2="1933"/>
  <g id="" transform="matrix(1 0 0 1 776 1933)">
   <path d="M3.31055 0.126953C3.82812 0.126953 4.08203-0.0683594 4.26758-0.605469L5.52734-4.0625L11.2891-4.0625L12.5488-0.605469C12.7344-0.0683594 12.9883 0.126953 13.4961 0.126953C14.0137 0.126953 14.3457-0.185547 14.3457-0.673828C14.3457-0.839844 14.3164-0.986328 14.2383-1.20117L9.6582-13.3887C9.43359-13.9941 9.0332-14.2871 8.4082-14.2871C7.80273-14.2871 7.39258-13.9941 7.17773-13.3984L2.59766-1.19141C2.51953-0.976562 2.49023-0.830078 2.49023-0.664062C2.49023-0.175781 2.80273 0.126953 3.31055 0.126953ZM6.00586-5.53711L8.37891-12.1094L8.42773-12.1094L10.8008-5.53711Z"/>
  </g>
  <line id="" style="fill:none;stroke:#00AEEF;stroke-width:0.5;opacity:1.0;" x1="792.836" x2="792.836" y1="1919" y2="1933"/>
  <text style="stroke:none;fill:black;font-family:-apple-system,&quot;SF Pro Display&quot;,&quot;SF Pro Text&quot;,Helvetica,sans-serif;font-weight:bold;" transform="matrix(1 0 0 1 776 1953)">Margins</text>
  <text style="stroke:none;fill:black;font-family:-apple-system,&quot;SF Pro Display&quot;,&quot;SF Pro Text&quot;,Helvetica,sans-serif;" transform="matrix(1 0 0 1 776 1971)">Leading and trailing margins on the left and right side of each symbol</text>
  <text style="stroke:none;fill:black;font-family:-apple-system,&quot;SF Pro Display&quot;,&quot;SF Pro Text&quot;,Helvetica,sans-serif;" transform="matrix(1 0 0 1 776 1989)">can be adjusted by modifying the x-location of the margin guidelines.</text>
  <text style="stroke:none;fill:black;font-family:-apple-system,&quot;SF Pro Display&quot;,&quot;SF Pro Text&quot;,Helvetica,sans-serif;" transform="matrix(1 0 0 1 776 2007)">Modifications are automatically applied proportionally to all</text>
  <text style="stroke:none;fill:black;font-family:-apple-system,&quot;SF Pro Display&quot;,&quot;SF Pro Text&quot;,Helvetica,sans-serif;" transform="matrix(1 0 0 1 776 2025)">scales and weights.</text>
  <g id="" transform="matrix(1 0 0 1 1289 1933)">
   <path d="M2.8418 1.86523L4.54102 3.57422C5.40039 4.44336 6.38672 4.38477 7.31445 3.35938L17.4902-7.85156C17.7539-7.76367 18.0273-7.7832 18.3398-7.8418L19.4043-8.03711L20.0684-7.36328L20.0293-6.80664C19.9902-6.30859 20.1172-5.92773 20.6055-5.44922L21.3672-4.70703C21.8457-4.22852 22.4609-4.19922 22.9297-4.66797L25.8398-7.58789C26.3086-8.05664 26.2891-8.65234 25.8105-9.13086L25.0391-9.89258C24.5605-10.3711 24.1895-10.5273 23.7109-10.4883L23.1348-10.4395L22.4902-11.0742L22.7344-12.1973C22.8613-12.7637 22.7051-13.2031 22.1191-13.7891L19.9219-15.9766C16.582-19.2969 12.1484-19.2188 9.25781-16.3281C8.83789-15.918 8.80859-15.3418 9.04297-14.9512C9.27734-14.5898 9.73633-14.3555 10.3809-14.5215C11.8457-14.8633 13.3691-14.9219 14.7949-13.9844L14.209-12.5293C14.0137-12.0508 13.9844-11.6504 14.1113-11.2891L3.04688-0.898438C2.06055 0.0195312 1.98242 0.996094 2.8418 1.86523ZM10.752-15.957C13.1836-17.7344 16.4746-17.4316 18.7012-15.2051L21.1328-12.793C21.3672-12.5586 21.4062-12.373 21.3379-12.0312L21.0156-10.5469L22.5195-9.0625L23.5059-9.12109C23.7598-9.13086 23.8379-9.11133 24.0332-8.91602L24.6094-8.33984L22.168-5.89844L21.5918-6.47461C21.3965-6.66992 21.3672-6.74805 21.377-7.01172L21.4453-7.98828L19.9512-9.47266L18.4277-9.21875C18.1055-9.15039 17.959-9.17969 17.7148-9.41406L15.7129-11.416C15.459-11.6504 15.4297-11.8164 15.5859-12.1875L16.4648-14.2773C14.9023-15.7324 12.8711-16.3574 10.8398-15.7617C10.6836-15.7227 10.625-15.8496 10.752-15.957ZM5.27344 2.30469L4.10156 1.14258C3.63281 0.683594 3.74023 0.341797 4.14062-0.0195312L14.9512-10.1953L16.416-8.71094L6.42578 2.27539C6.07422 2.67578 5.74219 2.77344 5.27344 2.30469Z"/>
  </g>
  <text style="stroke:none;fill:black;font-family:-apple-system,&quot;SF Pro Display&quot;,&quot;SF Pro Text&quot;,Helvetica,sans-serif;font-weight:bold;" transform="matrix(1 0 0 1 1289 1953)">Exporting</text>
  <text style="stroke:none;fill:black;font-family:-apple-system,&quot;SF Pro Display&quot;,&quot;SF Pro Text&quot;,Helvetica,sans-serif;" transform="matrix(1 0 0 1 1289 1971)">Symbols should be outlined when exporting to ensure the</text>
  <text style="stroke:none;fill:black;font-family:-apple-system,&quot;SF Pro Display&quot;,&quot;SF Pro Text&quot;,Helvetica,sans-serif;" transform="matrix(1 0 0 1 1289 1989)">design is preserved when submitting to Xcode.</text>
  <text id="template-version" style="stroke:none;fill:black;font-family:-apple-system,&quot;SF Pro Display&quot;,&quot;SF Pro Text&quot;,Helvetica,sans-serif;text-anchor:end;" transform="matrix(1 0 0 1 3036 1933)">Template v.2.0</text>
  <text style="stroke:none;fill:black;font-family:-apple-system,&quot;SF Pro Display&quot;,&quot;SF Pro Text&quot;,Helvetica,sans-serif;text-anchor:end;" transform="matrix(1 0 0 1 3036 1951)">Requires Xcode 12 or greater</text>
  <text style="stroke:none;fill:black;font-family:-apple-system,&quot;SF Pro Display&quot;,&quot;SF Pro Text&quot;,Helvetica,sans-serif;text-anchor:end;" transform="matrix(1 0 0 1 3036 1969)">Generated from textformat</text>
  <text style="stroke:none;fill:black;font-family:-apple-system,&quot;SF Pro Display&quot;,&quot;SF Pro Text&quot;,Helvetica,sans-serif;text-anchor:end;" transform="matrix(1 0 0 1 3036 1987)">Typeset at 100 points</text>
  <text style="stroke:none;fill:black;font-family:-apple-system,&quot;SF Pro Display&quot;,&quot;SF Pro Text&quot;,Helvetica,sans-serif;" transform="matrix(1 0 0 1 263 726)">Small</text>
  <text style="stroke:none;fill:black;font-family:-apple-system,&quot;SF Pro Display&quot;,&quot;SF Pro Text&quot;,Helvetica,sans-serif;" transform="matrix(1 0 0 1 263 1156)">Medium</text>
  <text style="stroke:none;fill:black;font-family:-apple-system,&quot;SF Pro Display&quot;,&quot;SF Pro Text&quot;,Helvetica,sans-serif;" transform="matrix(1 0 0 1 263 1586)">Large</text>
 </g>
 <g id="Guides">
  <g id="H-reference" style="fill:#27AAE1;stroke:none;" transform="matrix(1 0 0 1 339 696)">
   <path d="M0.976562 0L3.66211 0L12.9883-24.4629L45.752-24.4629L55.127 0L57.7637 0L30.6152-70.459L28.125-70.459ZM29.3457-67.1387L29.4434-67.1387L44.873-26.709L13.8672-26.709Z"/>
  </g>
  <line id="Baseline-S" style="fill:none;stroke:#27AAE1;opacity:1;stroke-width:0.5;" x1="263" x2="3036" y1="696" y2="696"/>
  <line id="Capline-S" style="fill:none;stroke:#27AAE1;opacity:1;stroke-width:0.5;" x1="263" x2="3036" y1="625.541" y2="625.541"/>
  <g id="H-reference" style="fill:#27AAE1;stroke:none;" transform="matrix(1 0 0 1 339 1126)">
   <path d="M0.976562 0L3.66211 0L12.9883-24.4629L45.752-24.4629L55.127 0L57.7637 0L30.6152-70.459L28.125-70.459ZM29.3457-67.1387L29.4434-67.1387L44.873-26.709L13.8672-26.709Z"/>
  </g>
  <line id="Baseline-M" style="fill:none;stroke:#27AAE1;opacity:1;stroke-width:0.5;" x1="263" x2="3036" y1="1126" y2="1126"/>
  <line id="Capline-M" style="fill:none;stroke:#27AAE1;opacity:1;stroke-width:0.5;" x1="263" x2="3036" y1="1055.54" y2="1055.54"/>
  <g id="H-reference" style="fill:#27AAE1;stroke:none;" transform="matrix(1 0 0 1 339 1556)">
   <path d="M0.976562 0L3.66211 0L12.9883-24.4629L45.752-24.4629L55.127 0L57.7637 0L30.6152-70.459L28.125-70.459ZM29.3457-67.1387L29.4434-67.1387L44.873-26.709L13.8672-26.709Z"/>
  </g>
  <line id="Baseline-L" style="fill:none;stroke:#27AAE1;opacity:1;stroke-width:0.5;" x1="263" x2="3036" y1="1556" y2="1556"/>
  <line id="Capline-L" style="fill:none;stroke:#27AAE1;opacity:1;stroke-width:0.5;" x1="263" x2="3036" y1="1485.54" y2="1485.54"/>
  <line id="left-margin" style="fill:none;stroke:#00AEEF;stroke-width:0.5;opacity:1.0;" x1="1381.44" x2="1381.44" y1="1030.79" y2="1150.12"/>
  <line id="right-margin" style="fill:none;stroke:#00AEEF;stroke-width:0.5;opacity:1.0;" x1="1518.25" x2="1518.25" y1="1030.79" y2="1150.12"/>
 </g>
 <g id="Symbols">
  <g id="Black-L" transform="matrix(1 0 0 1 2833.5 1556)">
   <path d="M28.9551 14.502C36.4258 14.502 40.5273 11.1816 42.4805 3.36914L45.5078-6.68945L77.0996-6.68945L80.127 3.36914C82.0801 11.1816 86.1816 14.502 93.6523 14.502C101.855 14.502 107.178 9.57031 107.178 2.05078C107.178-0.976562 106.738-3.36914 105.713-6.39648L83.7891-69.6777C80.2246-80.0293 73.1934-84.9121 61.5234-84.9121C50.5371-84.9121 43.6035-79.9805 40.0391-69.7266L17.4316-5.22461C16.5527-2.49023 16.0645 0.0976562 16.0645 2.44141C16.0645 9.91211 20.9961 14.502 28.9551 14.502ZM51.0254-26.0254L61.377-61.4258L61.8652-61.4258L72.2168-26.0254ZM141.016 14.7461C149.805 14.7461 158.252 10.3516 162.256 2.7832L162.646 2.7832L162.646 5.51758C163.135 11.6211 167.041 14.7461 173.145 14.7461C179.59 14.7461 183.74 11.1816 183.74 4.15039L183.74-35.6934C183.74-50.0977 171.533-59.8145 152.344-59.8145C136.572-59.8145 124.902-54.4434 121.582-45.7031C120.996-44.1895 120.703-42.9199 120.703-41.3574C120.703-36.7188 124.17-33.3984 129.688-33.3984C133.398-33.3984 136.182-34.7656 138.525-37.3535C142.92-42.6758 146.24-44.4336 151.367-44.4336C157.91-44.4336 162.402-40.7715 162.402-34.375L162.402-29.9316L145.215-28.9551C126.611-27.9297 116.455-20.2637 116.455-7.08008C116.455 5.9082 126.904 14.7461 141.016 14.7461ZM147.949-0.0976562C142.188-0.0976562 138.086-3.27148 138.086-8.34961C138.086-13.1348 141.992-16.3574 148.389-16.748L162.402-17.6758L162.402-12.5488C162.402-5.27344 156.055-0.0976562 147.949-0.0976562Z"/>
  </g>
  <g id="Heavy-L" transform="matrix(1 0 0 1 2539.69 1556)">
   <path d="M27.002 13.6719C33.3008 13.6719 36.8164 10.8398 38.5254 4.19922L42.9688-9.17969L76.1719-9.17969L80.6152 4.19922C82.373 10.8398 85.8398 13.6719 92.1875 13.6719C99.0723 13.6719 103.564 9.47266 103.564 3.125C103.564 0.585938 103.223-1.46484 102.344-4.05273L78.3203-71.4844C75.3418-80.127 69.4824-84.2773 59.7656-84.2773C50.5859-84.2773 44.7754-80.127 41.748-71.4844L17.2852-3.125C16.4551-0.78125 16.0645 1.41602 16.0645 3.41797C16.0645 9.7168 20.2148 13.6719 27.002 13.6719ZM47.8027-25.8789L59.5703-63.4277L60.0586-63.4277L71.8262-25.8789ZM137.598 13.916C146.777 13.916 155.469 9.27734 159.375 1.46484L159.717 1.46484L159.717 5.85938C160.107 11.1328 163.525 13.9648 168.799 13.9648C174.316 13.9648 177.93 10.8398 177.93 4.73633L177.93-35.7422C177.93-50.0488 166.26-59.5703 147.9-59.5703C132.959-59.5703 121.777-54.1504 118.457-45.459C117.822-43.9941 117.529-42.627 117.529-41.1621C117.529-37.0117 120.557-34.1797 125.293-34.1797C128.564-34.1797 130.957-35.3516 132.959-37.6953C137.109-43.6523 141.016-45.9473 147.119-45.9473C154.59-45.9473 159.473-41.748 159.473-34.5703L159.473-29.8828L141.309-28.8086C123.34-27.832 113.525-20.2637 113.525-7.42188C113.525 5.32227 123.73 13.916 137.598 13.916ZM143.408 0.830078C136.865 0.830078 132.227-2.7832 132.227-8.44727C132.227-13.8184 136.572-17.3828 143.994-17.8711L159.473-18.8965L159.473-13.1836C159.473-5.12695 152.393 0.830078 143.408 0.830078Z"/>
  </g>
  <g id="Bold-L" transform="matrix(1 0 0 1 2246.23 1556)">
   <path d="M24.7559 12.6953C29.8828 12.6953 32.6172 10.498 34.1309 5.12695L40.1367-12.0117L75.1465-12.0117L81.1523 5.12695C82.666 10.498 85.4004 12.6953 90.5273 12.6953C95.9961 12.6953 99.5605 9.375 99.5605 4.29688C99.5605 2.29492 99.2676 0.683594 98.584-1.41602L72.2656-73.4375C69.873-80.2246 65.2832-83.4961 57.7637-83.4961C50.5859-83.4961 46.0449-80.2246 43.7012-73.4863L17.041-0.78125C16.4062 1.17188 16.0645 2.88086 16.0645 4.49219C16.0645 9.57031 19.3848 12.6953 24.7559 12.6953ZM44.1895-25.7812L57.5684-65.6738L58.0078-65.6738L71.3379-25.7812ZM133.838 13.0371C143.359 13.0371 152.295 8.05664 156.201 0L156.494 0L156.494 6.25C156.689 10.6445 159.57 13.0859 163.916 13.0859C168.408 13.0859 171.436 10.4492 171.436 5.46875L171.436-35.8398C171.436-49.9512 160.352-59.2773 142.92-59.2773C128.955-59.2773 118.311-53.8574 114.893-45.2148C114.258-43.7012 113.916-42.334 113.916-40.918C113.916-37.4023 116.504-35.0098 120.41-35.0098C123.145-35.0098 125.195-36.0352 126.758-38.0859C130.566-44.7266 135.205-47.6562 142.285-47.6562C150.83-47.6562 156.201-42.7734 156.201-34.8145L156.201-29.7852L136.963-28.6621C119.678-27.6855 110.254-20.2148 110.254-7.8125C110.254 4.63867 120.117 13.0371 133.838 13.0371ZM138.33 1.85547C130.908 1.85547 125.684-2.24609 125.684-8.54492C125.684-14.5508 130.469-18.5547 139.111-19.0918L156.201-20.2637L156.201-13.8672C156.201-4.93164 148.242 1.85547 138.33 1.85547Z"/>
  </g>
  <g id="Semibold-L" transform="matrix(1 0 0 1 1951.76 1556)">
   <path d="M23.2422 12.0605C27.4902 12.0605 29.7363 10.2539 31.1035 5.76172L38.1836-13.9648L74.4141-13.9648L81.543 5.76172C82.8613 10.2539 85.1074 12.0605 89.3555 12.0605C93.8965 12.0605 96.8262 9.32617 96.8262 5.07812C96.8262 3.51562 96.582 2.14844 95.9473 0.439453L68.0664-74.8535C66.1133-80.3223 62.4023-83.0078 56.3965-83.0078C50.6348-83.0078 46.9238-80.3223 45.0195-74.8535L16.8945 0.830078C16.3574 2.49023 16.0645 3.85742 16.0645 5.22461C16.0645 9.47266 18.7988 12.0605 23.2422 12.0605ZM41.748-25.6836L56.2012-67.2363L56.5918-67.2363L71.0449-25.6836ZM131.201 12.4512C141.016 12.4512 150.146 7.22656 153.955-0.976562L154.248-0.976562L154.248 6.49414C154.395 10.2539 156.885 12.5 160.547 12.5C164.355 12.5 166.943 10.1562 166.943 5.9082L166.943-35.8398C166.943-49.9023 156.299-59.0332 139.453-59.0332C126.172-59.0332 115.918-53.6621 112.451-45.0195C111.816-43.5547 111.426-42.0898 111.426-40.7715C111.426-37.6465 113.721-35.5469 117.041-35.5469C119.434-35.5469 121.191-36.4746 122.51-38.3789C126.074-45.5078 131.152-48.8281 139.014-48.8281C148.242-48.8281 153.955-43.5059 153.955-34.9609L153.955-29.7363L133.936-28.5645C117.139-27.5879 108.008-20.166 108.008-8.05664C108.008 4.19922 117.627 12.4512 131.201 12.4512ZM134.814 2.58789C126.807 2.58789 121.191-1.9043 121.191-8.64258C121.191-15.0391 126.318-19.3359 135.742-19.9707L153.955-21.1914L153.955-14.3555C153.955-4.83398 145.41 2.58789 134.814 2.58789Z"/>
  </g>
  <g id="Medium-L" transform="matrix(1 0 0 1 1656.76 1556)">
   <path d="M22.0703 11.5234C25.6836 11.5234 27.5879 10.0586 28.8086 6.25L36.7188-15.4785L73.877-15.4785L81.7871 6.25C83.0078 10.0586 84.9121 11.5234 88.5254 11.5234C92.2852 11.5234 94.7266 9.27734 94.7266 5.71289C94.7266 4.39453 94.4824 3.27148 93.9941 1.80664L64.8438-75.8789C63.2324-80.3711 60.2051-82.6172 55.3711-82.6172C50.6348-82.6172 47.6074-80.3711 46.0449-75.9277L16.7969 2.05078C16.3086 3.4668 16.0645 4.63867 16.0645 5.81055C16.0645 9.375 18.3594 11.5234 22.0703 11.5234ZM39.8438-25.5859L55.127-68.457L55.5176-68.457L70.8008-25.5859ZM129.248 11.9629C139.258 11.9629 148.486 6.5918 152.295-1.75781L152.539-1.75781L152.539 6.68945C152.588 10.0098 154.785 12.0117 158.008 12.0117C161.279 12.0117 163.525 9.91211 163.525 6.29883L163.525-35.8887C163.525-49.8535 153.223-58.8867 136.865-58.8867C124.072-58.8867 114.062-53.5156 110.596-44.873C109.961-43.4082 109.57-41.9434 109.57-40.625C109.57-37.8418 111.621-35.9863 114.502-35.9863C116.602-35.9863 118.164-36.8164 119.238-38.5742C122.656-46.0449 128.125-49.707 136.475-49.707C146.289-49.707 152.246-44.043 152.246-35.0586L152.246-29.6875L131.689-28.4668C115.234-27.5391 106.299-20.166 106.299-8.25195C106.299 3.85742 115.771 11.9629 129.248 11.9629ZM132.178 3.125C123.682 3.125 117.773-1.61133 117.773-8.69141C117.773-15.4297 123.145-19.9219 133.203-20.6055L152.246-21.9238L152.246-14.6973C152.246-4.73633 143.262 3.125 132.178 3.125Z"/>
  </g>
  <g id="Regular-L" transform="matrix(1 0 0 1 1362.27 1556)">
   <path d="M20.6055 10.8887C23.3398 10.8887 24.7559 9.81445 25.7812 6.83594L34.7656-17.3828L73.1934-17.3828L82.1777 6.83594C83.2031 9.81445 84.6191 10.8887 87.3535 10.8887C90.1855 10.8887 91.9922 9.17969 91.9922 6.49414C91.9922 5.56641 91.7969 4.73633 91.4062 3.61328L60.7422-77.2461C59.5215-80.4688 57.373-82.0801 54.0039-82.0801C50.6836-82.0801 48.4863-80.4688 47.3633-77.2949L16.6504 3.66211C16.2598 4.78516 16.0645 5.61523 16.0645 6.54297C16.0645 9.22852 17.7734 10.8887 20.6055 10.8887ZM37.4023-25.4883L53.8086-69.9707L54.1504-69.9707L70.5078-25.4883ZM126.66 11.377C136.914 11.377 146.338 5.76172 150.098-2.7832L150.293-2.7832L150.293 6.93359C150.293 9.66797 152.1 11.4258 154.688 11.4258C157.275 11.4258 159.082 9.66797 159.082 6.73828L159.082-35.9375C159.082-49.8047 149.219-58.6914 133.447-58.6914C121.289-58.6914 111.719-53.3203 108.154-44.7266C107.568-43.2129 107.08-41.748 107.08-40.4785C107.08-38.1348 108.887-36.5723 111.182-36.5723C112.939-36.5723 114.209-37.2559 114.99-38.8672C118.213-46.7773 124.121-50.8789 133.203-50.8789C143.75-50.8789 150-44.7754 150-35.2051L150-29.6387L128.711-28.3691C112.744-27.4414 104.053-20.166 104.053-8.49609C104.053 3.36914 113.33 11.377 126.66 11.377ZM128.711 3.80859C119.629 3.80859 113.33-1.26953 113.33-8.74023C113.33-15.918 118.994-20.752 129.883-21.4844L150-22.8516L150-15.1855C150-4.58984 140.479 3.80859 128.711 3.80859Z"/>
  </g>
  <g id="Light-L" transform="matrix(1 0 0 1 1066.51 1556)">
   <path d="M19.4824 10.6445C21.5332 10.6445 22.5586 9.81445 23.3887 7.61719L33.5449-19.2871L73.6816-19.2871L83.8379 7.61719C84.668 9.81445 85.6934 10.6445 87.7441 10.6445C89.8438 10.6445 91.2598 9.375 91.2598 7.32422C91.2598 6.64062 91.1133 5.95703 90.7715 5.07812L58.5938-78.6621C57.7148-80.957 56.1523-82.2266 53.6621-82.2266C51.1719-82.2266 49.5605-81.0059 48.7305-78.6621L16.5039 5.12695C16.2109 6.00586 16.0645 6.68945 16.0645 7.37305C16.0645 9.42383 17.3828 10.6445 19.4824 10.6445ZM35.6445-25.4883L53.4668-72.8027L53.7598-72.8027L71.582-25.4883ZM125.83 10.9375C136.816 10.9375 146.729 4.93164 150.293-4.10156L150.439-4.10156L150.439 7.51953C150.439 9.61914 151.807 10.9863 153.76 10.9863C155.762 10.9863 157.178 9.61914 157.178 7.37305L157.178-36.1328C157.178-50.1953 147.656-59.1309 132.129-59.1309C119.678-59.1309 110.352-53.5156 106.982-44.3359C106.494-42.9199 106.055-41.4062 106.055-40.2832C106.055-38.4766 107.422-37.3047 109.18-37.3047C110.645-37.3047 111.621-37.9395 112.207-39.2578C115.039-48.0957 121.68-53.125 131.982-53.125C143.457-53.125 150.244-46.1914 150.244-35.6445L150.244-29.7852L127.637-28.3203C111.67-27.3438 103.223-20.166 103.223-8.64258C103.223 3.02734 112.549 10.9375 125.83 10.9375ZM127.148 5.07812C117.334 5.07812 110.254-0.585938 110.254-8.88672C110.254-16.748 116.406-21.9727 128.564-22.8516L150.244-24.4629L150.244-15.4297C150.244-4.15039 139.844 5.07812 127.148 5.07812Z"/>
  </g>
  <g id="Thin-L" transform="matrix(1 0 0 1 771.071 1556)">
   <path d="M18.0664 10.3516C19.1895 10.3516 19.7266 9.86328 20.2148 8.59375L31.9336-21.8262L74.3652-21.8262L86.084 8.59375C86.5723 9.86328 87.1094 10.3516 88.2324 10.3516C89.4531 10.3516 90.2344 9.61914 90.2344 8.44727C90.2344 8.00781 90.1367 7.56836 89.9414 7.08008L55.7617-80.5176C55.3223-81.6406 54.541-82.4219 53.1738-82.4219C51.8555-82.4219 50.9766-81.7383 50.5371-80.5176L16.3574 7.08008C16.1621 7.56836 16.0645 8.05664 16.0645 8.44727C16.0645 9.61914 16.8457 10.3516 18.0664 10.3516ZM33.252-25.4883L53.0273-76.5137L53.2715-76.5137L72.998-25.4883ZM124.707 10.4004C136.67 10.4004 147.266 3.80859 150.537-5.85938L150.635-5.85938L150.635 8.30078C150.635 9.61914 151.416 10.4004 152.588 10.4004C153.809 10.4004 154.639 9.61914 154.639 8.25195L154.639-36.4258C154.639-50.6836 145.557-59.7168 130.42-59.7168C117.48-59.7168 108.594-53.7598 105.42-43.7988C105.078-42.4805 104.639-41.0156 104.639-39.9902C104.639-38.916 105.518-38.2324 106.592-38.2324C107.666-38.2324 108.252-38.8184 108.496-39.7949C110.791-49.8535 118.408-56.0547 130.322-56.0547C143.066-56.0547 150.586-48.0469 150.586-36.1816L150.586-29.9805L126.221-28.2715C110.303-27.1973 102.148-20.166 102.148-8.78906C102.148 2.58789 111.475 10.4004 124.707 10.4004ZM125.098 6.73828C114.258 6.73828 106.25 0.292969 106.25-9.0332C106.25-17.7734 112.988-23.6328 126.855-24.707L150.586-26.5625L150.586-15.7227C150.586-3.56445 139.014 6.73828 125.098 6.73828Z"/>
  </g>
  <g id="Ultralight-L" transform="matrix(1 0 0 1 474.994 1556)">
   <path d="M17.334 10.1562C17.9688 10.1562 18.2617 9.86328 18.5547 9.13086L31.1035-23.0957L74.707-23.0957L87.207 9.13086C87.5488 9.86328 87.8418 10.1562 88.4766 10.1562C89.209 10.1562 89.7461 9.76562 89.7461 8.98438C89.7461 8.74023 89.6484 8.39844 89.502 8.10547L54.2969-81.4941C54.0527-81.9824 53.7109-82.5195 52.9297-82.5195C52.1973-82.5195 51.709-82.0801 51.5137-81.4941L16.2598 8.05664C16.1133 8.39844 16.0645 8.74023 16.0645 8.98438C16.0645 9.7168 16.5527 10.1562 17.334 10.1562ZM32.0312-25.4395L52.7832-78.418L53.0273-78.418L73.7793-25.4395ZM124.121 10.1074C136.572 10.1074 147.51 3.22266 150.684-6.73828L150.732-6.73828L150.732 8.64258C150.732 9.61914 151.221 10.1074 152.002 10.1074C152.783 10.1074 153.369 9.61914 153.369 8.69141L153.369-36.5234C153.369-50.9277 144.434-60.0098 129.492-60.0098C116.357-60.0098 107.715-53.9062 104.639-43.5059C104.346-42.2363 103.955-40.8203 103.955-39.8438C103.955-39.1602 104.541-38.7207 105.225-38.7207C106.104-38.7207 106.494-39.2578 106.592-40.0879C108.643-50.7324 116.748-57.5684 129.443-57.5684C142.871-57.5684 150.781-48.9746 150.781-36.4258L150.781-30.0781L125.488-28.2715C109.57-27.0996 101.611-20.166 101.611-8.83789C101.611 2.34375 110.938 10.1074 124.121 10.1074ZM124.023 7.61719C112.695 7.61719 104.15 0.732422 104.15-9.08203C104.15-18.3105 111.23-24.5117 125.977-25.6836L150.781-27.6855L150.781-15.8691C150.781-3.27148 138.574 7.61719 124.023 7.61719Z"/>
  </g>
  <g id="Black-M" transform="matrix(1 0 0 1 2852.54 1126)">
   <path d="M24.5117 4.3457C31.3965 4.3457 35.2539 1.17188 36.9629-6.00586L38.0371-10.6934L61.2305-10.6934L62.3535-6.00586C64.0137 1.17188 67.8711 4.3457 74.7559 4.3457C82.4707 4.3457 87.5-0.292969 87.5-7.27539C87.5-10.2051 87.1094-12.5 86.1328-15.2832L71.0938-60.3027C67.8223-70.1172 61.1328-74.707 49.9023-74.707C39.4043-74.707 32.8125-70.0684 29.4434-60.3027L13.7207-13.9648C12.8906-11.5234 12.4512-9.08203 12.4512-6.93359C12.4512 0.0488281 17.0898 4.3457 24.5117 4.3457ZM113.379 4.3457C120.166 4.3457 126.66 1.07422 129.688-4.6875L130.078-4.6875L130.078-3.80859C130.566 1.70898 134.033 4.29688 139.6 4.29688C145.459 4.29688 149.268 1.2207 149.268-5.17578L149.268-35.6445C149.268-47.0703 139.16-54.8828 123.389-54.8828C109.814-54.8828 100.293-50.5859 97.9004-43.457C97.4609-42.334 97.3145-41.4062 97.3145-40.1367C97.3145-36.1328 100.342-33.2031 105.322-33.2031C108.691-33.2031 111.133-34.4238 113.33-36.6211C116.895-40.3809 119.043-41.5039 122.412-41.5039C126.758-41.5039 129.98-39.0137 129.98-34.5215L129.98-31.2988L117.236-30.5176C101.953-29.6387 93.75-23.6816 93.75-13.0371C93.75-2.73438 102.246 4.3457 113.379 4.3457ZM42.8711-28.2227L49.7559-54.2969L50.1953-54.2969L57.1289-28.2227ZM119.971-8.59375C116.162-8.59375 113.232-10.7422 113.232-14.3066C113.232-17.627 115.967-19.873 120.215-20.166L129.98-20.8496L129.98-16.9434C129.98-12.0117 125.586-8.59375 119.971-8.59375Z"/>
  </g>
  <g id="Heavy-M" transform="matrix(1 0 0 1 2558.78 1126)">
   <path d="M22.6562 3.4668C28.5156 3.4668 31.7383 0.830078 33.3008-5.32227L35.5957-12.9883L60.1074-12.9883L62.4023-5.32227C63.9648 0.830078 67.1875 3.4668 73.0469 3.4668C79.541 3.4668 83.7402-0.439453 83.7402-6.34766C83.7402-8.78906 83.4473-10.6934 82.6172-13.0859L65.7227-61.8652C62.9395-70.0684 57.3242-73.9746 48.0469-73.9746C39.3066-73.9746 33.7891-70.0195 30.957-61.8652L13.5254-12.1094C12.8418-9.96094 12.4512-7.91016 12.4512-6.05469C12.4512-0.195312 16.3574 3.4668 22.6562 3.4668ZM39.8438-28.125L47.9004-55.7617L48.3398-55.7617L56.3965-28.125ZM109.912 3.56445C116.846 3.56445 123.486 0.146484 126.514-5.76172L126.855-5.76172L126.855-3.56445C127.246 1.17188 130.273 3.56445 135.059 3.56445C140.088 3.56445 143.359 0.830078 143.359-4.6875L143.359-35.6445C143.359-46.875 133.838-54.4922 118.848-54.4922C106.299-54.4922 97.2168-50.2441 94.7266-43.3105C94.2871-42.1387 94.0918-41.1621 94.0918-39.9414C94.0918-36.377 96.7773-33.8379 101.074-33.8379C104.004-33.8379 106.152-34.9121 108.008-36.9141C111.377-41.1133 114.014-42.5781 118.066-42.5781C123.145-42.5781 126.709-39.6973 126.709-34.6191L126.709-31.1523L113.232-30.4199C98.6328-29.541 90.7715-23.6328 90.7715-13.3789C90.7715-3.32031 98.9746 3.56445 109.912 3.56445ZM115.381-7.91016C110.938-7.91016 107.666-10.4004 107.666-14.4043C107.666-18.1641 110.693-20.6543 115.771-21.0449L126.709-21.7773L126.709-17.5781C126.709-11.9629 121.729-7.91016 115.381-7.91016Z"/>
  </g>
  <g id="Bold-M" transform="matrix(1 0 0 1 2265.34 1126)">
   <path d="M20.5566 2.49023C25.2441 2.49023 27.832 0.390625 29.1504-4.54102L32.8613-15.5273L58.8379-15.5273L62.5488-4.54102C63.8672 0.390625 66.4062 2.49023 71.1426 2.49023C76.2695 2.49023 79.5898-0.585938 79.5898-5.32227C79.5898-7.22656 79.3457-8.74023 78.6621-10.6445L59.668-63.623C57.4707-70.0684 53.125-73.0957 45.9961-73.0957C39.209-73.0957 34.9121-70.0195 32.666-63.6719L13.3301-9.96094C12.7441-8.20312 12.4512-6.5918 12.4512-5.12695C12.4512-0.390625 15.5273 2.49023 20.5566 2.49023ZM36.4746-27.9785L45.8496-57.4219L46.1914-57.4219L55.5664-27.9785ZM106.006 2.73438C113.184 2.73438 119.922-0.927734 122.949-6.98242L123.242-6.98242L123.242-3.32031C123.486 0.634766 126.074 2.73438 129.98 2.73438C134.082 2.73438 136.816 0.390625 136.816-4.15039L136.816-35.6445C136.816-46.6797 127.881-54.0039 113.77-54.0039C102.393-54.0039 93.7988-49.8535 91.2109-43.1152C90.7227-41.9922 90.4785-40.918 90.4785-39.7949C90.4785-36.6699 92.7734-34.5215 96.2891-34.5215C98.7305-34.5215 100.537-35.4004 102.051-37.207C105.176-41.8945 108.35-43.7988 113.184-43.7988C119.141-43.7988 123.047-40.4297 123.047-34.7656L123.047-31.0547L108.789-30.2246C94.9707-29.4434 87.4512-23.584 87.4512-13.7695C87.4512-3.90625 95.2637 2.73438 106.006 2.73438ZM110.303-7.12891C105.078-7.12891 101.416-10.0098 101.416-14.502C101.416-18.75 104.834-21.582 110.791-21.9727L123.047-22.8027L123.047-18.2617C123.047-11.8652 117.383-7.12891 110.303-7.12891Z"/>
  </g>
  <g id="Semibold-M" transform="matrix(1 0 0 1 1970.9 1126)">
   <path d="M19.0918 1.80664C23.0469 1.80664 25.1465 0.146484 26.3184-4.00391L30.957-17.2852L57.959-17.2852L62.5977-4.00391C63.7695 0.146484 65.8691 1.80664 69.8242 1.80664C74.0234 1.80664 76.7578-0.732422 76.7578-4.63867C76.7578-6.10352 76.5137-7.32422 75.9766-8.93555L55.5176-64.8438C53.7109-70.0195 50.2441-72.5098 44.5312-72.5098C39.1113-72.5098 35.6445-70.0195 33.8379-64.8926L13.2324-8.49609C12.6953-7.03125 12.4512-5.71289 12.4512-4.44336C12.4512-0.585938 14.9902 1.80664 19.0918 1.80664ZM34.1309-27.8809L44.3848-58.5938L44.7266-58.5938L54.9805-27.8809ZM103.32 2.14844C110.596 2.14844 117.48-1.66016 120.508-7.86133L120.752-7.86133L120.752-3.17383C120.898 0.244141 123.145 2.19727 126.465 2.19727C129.98 2.19727 132.275 0.0976562 132.275-3.75977L132.275-35.6445C132.275-46.5332 123.73-53.7109 110.303-53.7109C99.6582-53.7109 91.4551-49.5605 88.7695-43.0176C88.2324-41.8457 87.9883-40.7715 87.9883-39.6484C87.9883-36.9141 89.9902-35.0098 93.0176-35.0098C95.1172-35.0098 96.6797-35.791 97.9004-37.4023C100.928-42.4805 104.443-44.6289 109.814-44.6289C116.406-44.6289 120.508-40.918 120.508-34.8633L120.508-30.957L105.713-30.127C92.4316-29.3945 85.1074-23.584 85.1074-14.0137C85.1074-4.3457 92.7246 2.14844 103.32 2.14844ZM106.787-6.5918C101.074-6.5918 97.0703-9.76562 97.0703-14.5508C97.0703-19.1406 100.781-22.2168 107.373-22.6074L120.508-23.4863L120.508-18.7012C120.508-11.8164 114.404-6.5918 106.787-6.5918Z"/>
  </g>
  <g id="Medium-M" transform="matrix(1 0 0 1 1675.9 1126)">
   <path d="M18.0176 1.31836C21.3379 1.31836 23.0957-0.0488281 24.1699-3.56445L29.4922-18.6035L57.3242-18.6035L62.6465-3.56445C63.7207-0.0488281 65.4785 1.31836 68.7988 1.31836C72.3145 1.31836 74.5605-0.78125 74.5605-4.05273C74.5605-5.27344 74.3652-6.29883 73.877-7.66602L52.3926-65.7715C50.8789-70.0195 48.0469-72.0215 43.457-72.0215C39.0625-72.0215 36.2305-70.0195 34.7656-65.8203L13.1348-7.37305C12.6465-6.10352 12.4512-5.0293 12.4512-3.95508C12.4512-0.683594 14.5508 1.31836 18.0176 1.31836ZM32.3242-27.7832L43.3105-59.4238L43.6035-59.4238L54.5898-27.7832ZM101.318 1.70898C108.691 1.70898 115.625-2.24609 118.652-8.49609L118.848-8.49609L118.848-3.02734C118.945-0.0488281 120.947 1.75781 123.828 1.75781C126.807 1.75781 128.857-0.146484 128.857-3.4668L128.857-35.6445C128.857-46.4355 120.605-53.4668 107.617-53.4668C97.6074-53.4668 89.6484-49.3652 86.9141-42.9199C86.377-41.748 86.084-40.625 86.084-39.5508C86.084-37.0605 87.9395-35.4004 90.5273-35.4004C92.3828-35.4004 93.7988-36.084 94.8242-37.5977C97.6562-42.9199 101.465-45.2637 107.275-45.2637C114.307-45.2637 118.604-41.3086 118.604-34.9121L118.604-30.9082L103.369-30.0293C90.4785-29.3457 83.3984-23.584 83.3984-14.209C83.3984-4.6875 90.8203 1.70898 101.318 1.70898ZM104.102-6.20117C97.998-6.20117 93.7988-9.52148 93.7988-14.5996C93.7988-19.4336 97.7051-22.6562 104.785-23.0957L118.604-24.0234L118.604-19.0918C118.604-11.8164 112.158-6.20117 104.102-6.20117Z"/>
  </g>
  <g id="Regular-M" transform="matrix(1 0 0 1 1381.44 1126)">
   <path d="M16.5527 0.634766C19.1406 0.634766 20.4102-0.341797 21.3379-3.02734L27.6367-20.3125L56.4453-20.3125L62.7441-3.02734C63.6719-0.341797 64.9414 0.634766 67.4805 0.634766C70.0684 0.634766 71.7285-0.927734 71.7285-3.36914C71.7285-4.19922 71.582-4.93164 71.1914-6.00586L48.291-66.9434C47.168-69.9707 45.166-71.4355 42.041-71.4355C39.0137-71.4355 36.9629-69.9707 35.8887-66.9922L12.9883-5.95703C12.5977-4.88281 12.4512-4.15039 12.4512-3.32031C12.4512-0.878906 14.0137 0.634766 16.5527 0.634766ZM30.0293-27.6855L41.8945-60.5469L42.1387-60.5469L54.0039-27.6855ZM98.6328 1.12305C106.152 1.12305 113.184-2.97852 116.211-9.32617L116.406-9.32617L116.406-2.88086C116.406-0.439453 118.066 1.17188 120.361 1.17188C122.705 1.17188 124.365-0.439453 124.365-3.07617L124.365-35.6445C124.365-46.2891 116.553-53.1738 104.15-53.1738C94.9707-53.1738 87.3047-49.1211 84.5215-42.8223C83.9844-41.6016 83.5938-40.4297 83.5938-39.4043C83.5938-37.2559 85.2051-35.8398 87.3047-35.8398C88.8184-35.8398 89.9902-36.4258 90.7227-37.793C93.457-43.457 97.6074-46.0938 103.955-46.0938C111.572-46.0938 116.113-41.8457 116.113-35.0098L116.113-30.8105L100.342-29.9316C87.9883-29.248 81.1035-23.5352 81.1035-14.4531C81.1035-5.12695 88.2812 1.12305 98.6328 1.12305ZM100.635-5.66406C94.043-5.66406 89.5508-9.27734 89.5508-14.6484C89.5508-19.8242 93.7012-23.291 101.367-23.7793L116.113-24.707L116.113-19.5312C116.113-11.7676 109.229-5.66406 100.635-5.66406Z"/>
  </g>
  <g id="Light-M" transform="matrix(1 0 0 1 1085.58 1126)">
   <path d="M15.5762 0.439453C17.5293 0.439453 18.457-0.341797 19.1895-2.34375L26.5625-22.0215L56.8848-22.0215L64.2578-2.34375C64.9902-0.341797 65.918 0.439453 67.8223 0.439453C69.7754 0.439453 71.0449-0.732422 71.0449-2.63672C71.0449-3.27148 70.8984-3.85742 70.6543-4.63867L46.3379-68.2617C45.5078-70.459 44.043-71.582 41.748-71.582C39.4531-71.582 37.9395-70.459 37.1582-68.2617L12.8418-4.63867C12.5977-3.80859 12.4512-3.22266 12.4512-2.58789C12.4512-0.732422 13.6719 0.439453 15.5762 0.439453ZM28.418-27.6855L41.5527-63.0859L41.8457-63.0859L54.9805-27.6855ZM97.9004 0.732422C106.055 0.732422 113.574-3.75977 116.406-10.498L116.504-10.498L116.504-2.34375C116.504-0.439453 117.773 0.78125 119.58 0.78125C121.387 0.78125 122.656-0.439453 122.656-2.49023L122.656-35.8398C122.656-46.6309 115.137-53.5645 102.979-53.5645C93.457-53.5645 86.1328-49.3164 83.4473-42.4316C83.0078-41.3086 82.666-40.1855 82.666-39.209C82.666-37.5977 83.8867-36.4746 85.498-36.4746C86.7676-36.4746 87.6465-37.0117 88.2324-38.1836C90.5762-44.6289 95.4102-48.0957 102.832-48.0957C111.328-48.0957 116.309-43.1152 116.309-35.3516L116.309-30.957L99.4141-29.8828C87.0117-29.1504 80.3711-23.5352 80.3711-14.5508C80.3711-5.41992 87.5488 0.732422 97.9004 0.732422ZM99.2188-4.54102C91.9434-4.54102 86.8164-8.69141 86.8164-14.7461C86.8164-20.5566 91.3574-24.4141 100.195-25L116.309-26.1719L116.309-19.7754C116.309-11.377 108.643-4.54102 99.2188-4.54102Z"/>
  </g>
  <g id="Thin-M" transform="matrix(1 0 0 1 789.992 1126)">
   <path d="M14.3066 0.146484C15.3809 0.146484 15.918-0.292969 16.3574-1.46484L25.0977-24.2676L57.4707-24.2676L66.2109-1.46484C66.6992-0.292969 67.1875 0.146484 68.2617 0.146484C69.3848 0.146484 70.166-0.537109 70.166-1.61133C70.166-2.00195 70.0684-2.39258 69.873-2.88086L43.7988-69.9219C43.3594-71.0449 42.627-71.7773 41.3086-71.7773C40.0391-71.7773 39.209-71.0938 38.7695-69.9219L12.6953-2.88086C12.5488-2.39258 12.4512-2.00195 12.4512-1.61133C12.4512-0.537109 13.1836 0.146484 14.3066 0.146484ZM26.2695-27.6855L41.1621-66.4062L41.4062-66.4062L56.2988-27.6855ZM96.875 0.244141C105.957 0.244141 114.014-4.73633 116.602-12.0605L116.699-12.0605L116.699-1.66016C116.699-0.488281 117.432 0.244141 118.506 0.244141C119.629 0.244141 120.41-0.488281 120.41-1.70898L120.41-36.084C120.41-47.0703 113.232-54.1016 101.416-54.1016C91.5039-54.1016 84.5703-49.5605 82.0312-41.9922C81.7383-40.918 81.3965-39.7949 81.3965-38.9648C81.3965-37.9883 82.1777-37.3535 83.1543-37.3535C84.082-37.3535 84.6191-37.8418 84.8633-38.6719C86.7676-46.1914 92.4805-50.7324 101.318-50.7324C110.986-50.7324 116.65-44.7754 116.65-35.8398L116.65-31.1035L98.1445-29.8828C85.791-29.0039 79.3945-23.5352 79.3945-14.6973C79.3945-5.81055 86.6211 0.244141 96.875 0.244141ZM97.4121-3.07617C89.209-3.07617 83.2031-7.91016 83.2031-14.8926C83.2031-21.4844 88.3301-25.8789 98.6816-26.709L116.65-28.0762L116.65-20.0684C116.65-10.8398 107.91-3.07617 97.4121-3.07617Z"/>
  </g>
  <g id="Ultralight-M" transform="matrix(1 0 0 1 493.866 1126)">
   <path d="M13.623 0C14.3066 0 14.5996-0.292969 14.8926-1.02539L24.3652-25.4395L57.7637-25.4395L67.2363-1.02539C67.5781-0.292969 67.8711 0 68.5059 0C69.1895 0 69.6777-0.390625 69.6777-1.12305C69.6777-1.36719 69.6289-1.66016 69.5312-1.95312L42.5293-70.8008C42.2852-71.3867 41.8945-71.875 41.1133-71.875C40.332-71.875 39.8438-71.4355 39.6484-70.8008L12.6465-1.95312C12.5-1.66016 12.4512-1.36719 12.4512-1.12305C12.4512-0.390625 12.9395 0 13.623 0ZM25.1953-27.6367L40.9668-68.1152L41.1621-68.1152L56.9336-27.6367ZM96.3379 0C105.859 0 114.258-5.27344 116.748-12.8906L116.797-12.8906L116.797-1.31836C116.797-0.488281 117.285 0 117.969 0C118.701 0 119.238-0.488281 119.238-1.31836L119.238-36.1816C119.238-47.3145 112.256-54.3457 100.635-54.3457C90.5273-54.3457 83.7402-49.6582 81.3477-41.6992C81.1035-40.7227 80.7617-39.5996 80.7617-38.8672C80.7617-38.1836 81.2988-37.793 81.9824-37.793C82.7148-37.793 83.0566-38.2324 83.1543-38.916C84.8145-46.9727 90.9668-52.0508 100.586-52.0508C110.791-52.0508 116.797-45.6055 116.797-36.084L116.797-31.2012L97.4609-29.834C85.1074-28.9551 78.9062-23.5352 78.9062-14.7461C78.9062-6.05469 86.1328 0 96.3379 0ZM96.4355-2.29492C87.793-2.29492 81.3477-7.4707 81.3477-14.9414C81.3477-21.9727 86.7188-26.6602 97.9004-27.5391L116.797-29.0527L116.797-20.166C116.797-10.5469 107.52-2.29492 96.4355-2.29492Z"/>
  </g>
  <g id="Black-S" transform="matrix(1 0 0 1 2870.27 696)">
   <path d="M19.0918-4.29688C24.4141-4.29688 27.3926-6.73828 28.7109-12.3047L29.6387-16.1621L47.9004-16.1621L48.8281-12.3047C50.1465-6.73828 53.125-4.29688 58.4473-4.29688C64.4043-4.29688 68.2617-7.86133 68.2617-13.2812C68.2617-15.5273 67.9688-17.2852 67.2363-19.4336L55.3223-54.9805C52.7832-62.5488 47.6074-66.1133 38.9648-66.1133C30.8594-66.1133 25.7812-62.5 23.1934-54.9805L10.7422-18.457C10.1074-16.5527 9.76562-14.6484 9.76562-12.9883C9.76562-7.61719 13.3301-4.29688 19.0918-4.29688ZM88.5742-4.29688C93.8965-4.29688 98.9746-6.83594 101.367-11.377L101.66-11.377L101.66-10.5957C102.051-6.34766 104.736-4.29688 109.033-4.29688C113.574-4.29688 116.504-6.68945 116.504-11.6699L116.504-35.5469C116.504-44.4824 108.643-50.5859 96.3379-50.5859C85.791-50.5859 78.3691-47.2168 76.4648-41.6504C76.123-40.7715 76.0254-40.0391 76.0254-39.0625C76.0254-35.9375 78.3691-33.6914 82.2266-33.6914C84.8145-33.6914 86.7188-34.6191 88.4277-36.3281C91.2109-39.3066 92.9199-40.1855 95.6055-40.1855C99.0234-40.1855 101.562-38.2324 101.562-34.668L101.562-32.1289L91.5527-31.543C79.6387-30.8594 73.2422-26.1719 73.2422-17.8711C73.2422-9.81445 79.8828-4.29688 88.5742-4.29688ZM33.3984-29.7363L38.8672-50.2441L39.209-50.2441L44.6777-29.7363ZM93.6523-14.3066C90.625-14.3066 88.3301-16.0156 88.3301-18.8477C88.3301-21.4844 90.4785-23.2422 93.8477-23.4863L101.562-24.0234L101.562-20.9473C101.562-17.041 98.0957-14.3066 93.6523-14.3066Z"/>
  </g>
  <g id="Heavy-S" transform="matrix(1 0 0 1 2575.7 696)">
   <path d="M17.7734-4.93164C22.3633-4.93164 24.9023-7.03125 26.123-11.8652L27.8809-17.7246L46.9727-17.7246L48.7305-11.8652C49.9512-7.03125 52.4902-4.93164 57.0801-4.93164C62.207-4.93164 65.4785-8.00781 65.4785-12.6465C65.4785-14.5508 65.2344-16.0645 64.5996-17.9199L51.416-56.0547C49.2188-62.4512 44.8242-65.5273 37.5977-65.5273C30.7617-65.5273 26.416-62.4512 24.2188-56.0547L10.6445-17.1387C10.0586-15.4785 9.76562-13.8672 9.76562-12.4023C9.76562-7.8125 12.8418-4.93164 17.7734-4.93164ZM31.25-29.6387L37.4512-51.0742L37.793-51.0742L43.9941-29.6387ZM85.9863-4.83398C91.3574-4.83398 96.5332-7.4707 98.9258-12.0605L99.1699-12.0605L99.1699-10.498C99.4629-6.73828 101.904-4.83398 105.664-4.83398C109.619-4.83398 112.207-6.98242 112.207-11.3281L112.207-35.5469C112.207-44.2871 104.736-50.2441 93.0176-50.2441C83.252-50.2441 76.1719-46.9238 74.1699-41.6016C73.7793-40.6738 73.6328-39.8926 73.6328-38.9648C73.6328-36.1328 75.7812-34.082 79.1504-34.082C81.4453-34.082 83.1543-34.9121 84.6191-36.5234C87.3047-39.7461 89.3066-40.8203 92.3828-40.8203C96.3379-40.8203 99.0234-38.623 99.0234-34.7168L99.0234-32.0312L88.623-31.4453C77.1973-30.8105 71.0449-26.1719 71.0449-18.1152C71.0449-10.2051 77.4414-4.83398 85.9863-4.83398ZM90.332-13.916C86.8652-13.916 84.375-15.8203 84.375-18.8965C84.375-21.7773 86.7188-23.7305 90.5762-23.9746L99.0234-24.5605L99.0234-21.3867C99.0234-17.041 95.2148-13.916 90.332-13.916Z"/>
  </g>
  <g id="Bold-S" transform="matrix(1 0 0 1 2281.41 696)">
   <path d="M16.2598-5.66406C20.0684-5.66406 22.168-7.32422 23.2422-11.3281L25.9277-19.4336L45.9473-19.4336L48.6328-11.3281C49.707-7.32422 51.8066-5.66406 55.6152-5.66406C59.7168-5.66406 62.4023-8.1543 62.4023-11.9629C62.4023-13.4766 62.1582-14.6484 61.6699-16.2109L47.0215-57.2266C45.2637-62.4023 41.748-64.8438 36.0352-64.8438C30.6152-64.8438 27.1484-62.3535 25.3418-57.2754L10.498-15.6738C10.0098-14.2578 9.76562-12.9883 9.76562-11.7676C9.76562-8.00781 12.2559-5.66406 16.2598-5.66406ZM28.8574-29.541L35.9375-52.0508L36.1816-52.0508L43.2617-29.541ZM83.1055-5.41992C88.5742-5.41992 93.75-8.20312 96.1914-12.8418L96.3867-12.8418L96.3867-10.3516C96.582-7.17773 98.6816-5.41992 101.855-5.41992C105.176-5.41992 107.373-7.32422 107.373-10.9863L107.373-35.498C107.373-44.1406 100.342-49.8535 89.2578-49.8535C80.4688-49.8535 73.6816-46.6309 71.582-41.5039C71.1914-40.5762 70.9961-39.7461 70.9961-38.8184C70.9961-36.3281 72.8516-34.5703 75.7324-34.5703C77.6855-34.5703 79.1504-35.2539 80.3711-36.7188C82.9102-40.1855 85.2539-41.5039 88.8184-41.5039C93.3105-41.5039 96.1914-39.0137 96.1914-34.7656L96.1914-31.9336L85.3027-31.2988C74.5117-30.7129 68.5547-26.123 68.5547-18.4082C68.5547-10.6445 74.707-5.41992 83.1055-5.41992ZM86.5723-13.4766C82.666-13.4766 79.9316-15.625 79.9316-18.9453C79.9316-22.168 82.5195-24.2676 86.9141-24.5605L96.1914-25.1465L96.1914-21.875C96.1914-17.041 91.9922-13.4766 86.5723-13.4766Z"/>
  </g>
  <g id="Semibold-S" transform="matrix(1 0 0 1 1986.36 696)">
   <path d="M15.2344-6.15234C18.5059-6.15234 20.2637-7.51953 21.2402-10.9863L24.5605-20.6543L45.2637-20.6543L48.5352-10.9863C49.5605-7.51953 51.3184-6.15234 54.541-6.15234C58.0078-6.15234 60.2539-8.25195 60.2539-11.4746C60.2539-12.6953 60.0586-13.7207 59.6191-15.0391L44.043-58.0566C42.5293-62.3535 39.6484-64.3555 34.9609-64.3555C30.5176-64.3555 27.6367-62.3047 26.1719-58.0566L10.4004-14.6973C9.96094-13.4277 9.76562-12.4023 9.76562-11.3281C9.76562-8.1543 11.8652-6.15234 15.2344-6.15234ZM27.1973-29.4922L34.8633-52.6855L35.1074-52.6855L42.7734-29.4922ZM81.1523-5.85938C86.6211-5.85938 91.8457-8.69141 94.2871-13.3789L94.4824-13.3789L94.4824-10.2539C94.6289-7.4707 96.4844-5.81055 99.2676-5.81055C102.148-5.81055 104.053-7.56836 104.053-10.7422L104.053-35.498C104.053-43.9941 97.3145-49.5605 86.6699-49.5605C78.5156-49.5605 71.9727-46.3867 69.8242-41.4551C69.3848-40.5273 69.1895-39.6484 69.1895-38.7207C69.1895-36.4258 70.8496-34.8633 73.3887-34.8633C75.0977-34.8633 76.416-35.498 77.4414-36.8164C79.8828-40.5273 82.4219-41.9434 86.3281-41.9434C91.2109-41.9434 94.2383-39.3066 94.2383-34.8145L94.2383-31.8359L83.0566-31.25C72.6562-30.6641 66.8945-26.123 66.8945-18.6035C66.8945-10.9375 72.8027-5.85938 81.1523-5.85938ZM84.0332-13.1348C79.7363-13.1348 76.8555-15.4297 76.8555-18.9941C76.8555-22.4121 79.5898-24.6582 84.4238-24.9512L94.2383-25.5859L94.2383-22.2168C94.2383-17.041 89.7461-13.1348 84.0332-13.1348Z"/>
  </g>
  <g id="Medium-S" transform="matrix(1 0 0 1 1690.89 696)">
   <path d="M14.502-6.54297C17.334-6.54297 18.7988-7.71484 19.7266-10.6934L23.5352-21.5332L44.7266-21.5332L48.4863-10.6934C49.4141-7.71484 50.9277-6.54297 53.7598-6.54297C56.7383-6.54297 58.6426-8.30078 58.6426-11.084C58.6426-12.1094 58.4961-12.9883 58.0566-14.1602L41.748-58.6426C40.4297-62.3047 38.0371-64.0137 34.1797-64.0137C30.4199-64.0137 28.0273-62.3047 26.7578-58.6914L10.3027-13.916C9.96094-12.793 9.76562-11.9141 9.76562-11.0352C9.76562-8.25195 11.5723-6.54297 14.502-6.54297ZM25.9277-29.3945L34.0332-53.2227L34.2773-53.2227L42.3828-29.3945ZM79.6387-6.15234C85.1562-6.15234 90.4297-9.08203 92.8711-13.8184L93.0176-13.8184L93.0176-10.2051C93.1152-7.66602 94.8242-6.10352 97.2656-6.10352C99.8535-6.10352 101.562-7.71484 101.562-10.5469L101.562-35.498C101.562-43.8965 95.0195-49.3652 84.7168-49.3652C77.0508-49.3652 70.7031-46.2402 68.5059-41.4062C68.0176-40.4297 67.7734-39.5508 67.7734-38.6719C67.7734-36.5234 69.3359-35.1074 71.582-35.1074C73.1445-35.1074 74.3164-35.6445 75.1953-36.9141C77.5879-40.7715 80.3223-42.334 84.4727-42.334C89.5996-42.334 92.7734-39.502 92.7734-34.8145L92.7734-31.7871L81.3477-31.2012C71.2402-30.6641 65.5762-26.0742 65.5762-18.7012C65.5762-11.1816 71.3867-6.15234 79.6387-6.15234ZM82.0801-12.9395C77.5391-12.9395 74.5117-15.332 74.5117-19.043C74.5117-22.5586 77.3926-24.9512 82.4707-25.2441L92.7734-25.8789L92.7734-22.5098C92.7734-17.041 88.0371-12.9395 82.0801-12.9395Z"/>
  </g>
  <g id="Regular-S" transform="matrix(1 0 0 1 1395.82 696)">
   <path d="M13.4766-7.03125C15.7715-7.03125 16.9434-7.91016 17.7734-10.3516L22.2168-22.7051L43.9941-22.7051L48.4375-10.3516C49.2676-7.91016 50.4395-7.03125 52.7344-7.03125C55.0293-7.03125 56.543-8.39844 56.543-10.6445C56.543-11.377 56.3965-12.0605 56.0547-12.9883L38.7695-59.4727C37.7441-62.207 35.9375-63.5254 33.1055-63.5254C30.3223-63.5254 28.5156-62.2559 27.5391-59.5215L10.2539-12.9395C9.91211-12.0117 9.76562-11.3281 9.76562-10.5957C9.76562-8.39844 11.1816-7.03125 13.4766-7.03125ZM24.3164-29.3457L32.959-53.8574L33.2031-53.8574L41.8457-29.3457ZM77.6855-6.54297C83.252-6.54297 88.5254-9.57031 91.0156-14.3555L91.1133-14.3555L91.1133-10.1074C91.1133-7.95898 92.627-6.49414 94.6777-6.49414C96.8262-6.49414 98.291-7.95898 98.291-10.3027L98.291-35.498C98.291-43.75 91.9922-49.0723 82.1777-49.0723C75.0977-49.0723 68.9941-46.0449 66.748-41.3574C66.2598-40.3809 65.9668-39.4531 65.9668-38.5742C65.9668-36.6699 67.3828-35.4004 69.2383-35.4004C70.6055-35.4004 71.6309-35.8887 72.3145-37.0605C74.6094-41.1133 77.5391-42.7734 81.9824-42.7734C87.5488-42.7734 90.8691-39.7949 90.8691-34.8633L90.8691-31.6895L79.1016-31.1035C69.3848-30.6152 63.916-26.0742 63.916-18.8965C63.916-11.4746 69.5312-6.54297 77.6855-6.54297ZM79.541-12.5977C74.6582-12.5977 71.4844-15.1855 71.4844-19.043C71.4844-22.8027 74.5605-25.3418 79.9805-25.6348L90.8691-26.3184L90.8691-22.8516C90.8691-17.041 85.8398-12.5977 79.541-12.5977Z"/>
  </g>
  <g id="Light-S" transform="matrix(1 0 0 1 1099.86 696)">
   <path d="M12.5977-7.22656C14.3555-7.22656 15.2344-7.91016 15.8691-9.76562L21.2402-24.2188L44.4336-24.2188L49.7559-9.76562C50.4395-7.91016 51.2695-7.22656 53.0273-7.22656C54.7852-7.22656 55.957-8.25195 55.957-9.96094C55.957-10.5469 55.8105-11.084 55.5664-11.7676L37.0605-60.5957C36.2793-62.6465 34.9609-63.6719 32.8125-63.6719C30.7617-63.6719 29.3457-62.6465 28.6133-60.6445L10.1562-11.7676C9.86328-11.0352 9.76562-10.498 9.76562-9.91211C9.76562-8.25195 10.8398-7.22656 12.5977-7.22656ZM22.9004-29.3457L32.7148-56.1035L32.9102-56.1035L42.7246-29.3457ZM77.002-6.88477C83.1543-6.88477 88.8184-10.2539 91.1621-15.3809L91.2598-15.3809L91.2598-9.66797C91.2598-7.95898 92.3828-6.83594 93.9941-6.83594C95.6055-6.83594 96.7773-7.95898 96.7773-9.81445L96.7773-35.6445C96.7773-44.043 90.7715-49.4141 81.1523-49.4141C73.8281-49.4141 67.9688-46.1914 65.7715-41.0156C65.4297-40.1367 65.1367-39.209 65.1367-38.4277C65.1367-36.9629 66.2109-35.9863 67.6758-35.9863C68.7988-35.9863 69.5801-36.4258 70.0684-37.4023C72.0703-42.1387 75.5859-44.5312 81.0059-44.5312C87.3047-44.5312 91.0645-40.918 91.0645-35.2051L91.0645-31.8359L78.2715-31.0547C68.5547-30.5176 63.2324-26.0742 63.2324-18.9941C63.2324-11.7676 68.8965-6.88477 77.002-6.88477ZM78.2715-11.6211C72.8516-11.6211 69.0918-14.6484 69.0918-19.1406C69.0918-23.4375 72.5098-26.3184 78.9551-26.7578L91.0645-27.5879L91.0645-23.0469C91.0645-16.6992 85.3516-11.6211 78.2715-11.6211Z"/>
  </g>
  <g id="Thin-S" transform="matrix(1 0 0 1 804.152 696)">
   <path d="M11.4746-7.4707C12.4512-7.4707 12.9395-7.86133 13.3789-8.93555L19.9707-26.2207L44.9219-26.2207L51.5137-8.93555C51.9043-7.86133 52.3926-7.4707 53.418-7.4707C54.4434-7.4707 55.127-8.10547 55.127-9.08203C55.127-9.42383 55.0781-9.81445 54.9316-10.2051L34.8145-62.1094C34.4238-63.1836 33.6914-63.8184 32.4707-63.8184C31.25-63.8184 30.4688-63.2324 30.0781-62.1094L10.0098-10.2051C9.86328-9.76562 9.76562-9.42383 9.76562-9.08203C9.76562-8.05664 10.4492-7.4707 11.4746-7.4707ZM20.9961-29.2969L32.373-59.0332L32.5195-59.0332L43.8477-29.2969ZM76.123-7.32422C83.0566-7.32422 89.2578-11.1328 91.3086-16.7969L91.4062-16.7969L91.4062-9.08203C91.4062-8.00781 92.0898-7.32422 93.0664-7.32422C94.043-7.32422 94.7754-8.00781 94.7754-9.13086L94.7754-35.8398C94.7754-44.4336 89.1113-49.9023 79.7852-49.9023C72.0703-49.9023 66.5527-46.3867 64.5508-40.625C64.3066-39.7949 64.0137-38.8672 64.0137-38.2324C64.0137-37.3047 64.7461-36.7188 65.625-36.7188C66.4062-36.7188 66.8945-37.1094 67.1387-37.793C68.7012-43.5059 72.998-46.875 79.6875-46.875C87.0117-46.875 91.3086-42.3828 91.3086-35.5957L91.3086-31.9824L77.1484-31.0547C67.4316-30.4199 62.4023-26.0742 62.4023-19.0918C62.4023-12.1094 68.0664-7.32422 76.123-7.32422ZM76.6602-10.3027C70.4102-10.3027 65.8691-13.9648 65.8691-19.2383C65.8691-24.2676 69.7754-27.6367 77.6367-28.2227L91.3086-29.248L91.3086-23.291C91.3086-16.2109 84.7168-10.3027 76.6602-10.3027Z"/>
  </g>
  <g id="Ultralight-S" transform="matrix(1 0 0 1 507.953 696)">
   <path d="M10.8887-7.56836C11.5234-7.56836 11.7676-7.86133 12.0605-8.54492L19.2871-27.2461L45.2148-27.2461L52.4414-8.54492C52.6855-7.86133 52.9785-7.56836 53.6133-7.56836C54.2969-7.56836 54.7363-7.95898 54.7363-8.64258C54.7363-8.88672 54.6875-9.13086 54.5898-9.42383L33.6426-62.8418C33.4473-63.4766 33.0078-63.916 32.2754-63.916C31.543-63.916 31.0547-63.5254 30.8105-62.8418L9.91211-9.42383C9.81445-9.13086 9.76562-8.88672 9.76562-8.64258C9.76562-7.95898 10.2051-7.56836 10.8887-7.56836ZM20.0684-29.2969L32.1777-60.5469L32.3242-60.5469L44.4336-29.2969ZM75.6348-7.56836C82.959-7.56836 89.4531-11.6211 91.4551-17.5293L91.5039-17.5293L91.5039-8.74023C91.5039-8.00781 91.9434-7.56836 92.5781-7.56836C93.2617-7.56836 93.75-8.00781 93.75-8.78906L93.75-35.9375C93.75-44.6289 88.2324-50.1465 79.0527-50.1465C71.1914-50.1465 65.8203-46.4844 63.916-40.3809C63.7207-39.5996 63.4766-38.7207 63.4766-38.1348C63.4766-37.5 63.9648-37.1094 64.5508-37.1094C65.1855-37.1094 65.4785-37.4512 65.625-38.0371C66.9922-44.2383 71.6797-48.0469 79.0039-48.0469C86.8652-48.0469 91.4551-43.1152 91.4551-35.8398L91.4551-32.0801L76.5625-31.0059C66.8945-30.3223 61.9629-26.0742 61.9629-19.1895C61.9629-12.3047 67.627-7.56836 75.6348-7.56836ZM75.8301-9.61914C69.1895-9.61914 64.2578-13.623 64.2578-19.3359C64.2578-24.707 68.4082-28.3203 76.9043-28.9551L91.4551-30.127L91.4551-23.3887C91.4551-15.9668 84.375-9.61914 75.8301-9.61914Z"/>
  </g>
 </g>
</svg>
