<?xml version="1.0" encoding="UTF-8"?>
<!--Generator: Apple Native CoreSVG 149-->
<!DOCTYPE svg
PUBLIC "-//W3C//DTD SVG 1.1//EN"
       "http://www.w3.org/Graphics/SVG/1.1/DTD/svg11.dtd">
<svg version="1.1" xmlns="http://www.w3.org/2000/svg" xmlns:xlink="http://www.w3.org/1999/xlink" width="3300" height="2200">
 <!--glyph: "uni1002FD.medium", point size: 100.000000, font version: "Version 16.0d18e1", template writer version: "8"-->
 <g id="Notes">
  <rect height="2200" id="artboard" style="fill:white;opacity:1" width="3300" x="0" y="0"/>
  <line id="" style="fill:none;stroke:black;opacity:1;stroke-width:0.5;" x1="263" x2="3036" y1="292" y2="292"/>
  <text style="stroke:none;fill:black;font-family:-apple-system,&quot;SF Pro Display&quot;,&quot;SF Pro Text&quot;,Helvetica,sans-serif;font-weight:bold;" transform="matrix(1 0 0 1 263 322)">Weight/Scale Variations</text>
  <text style="stroke:none;fill:black;font-family:-apple-system,&quot;SF Pro Display&quot;,&quot;SF Pro Text&quot;,Helvetica,sans-serif;text-anchor:middle;" transform="matrix(1 0 0 1 559.711 322)">Ultralight</text>
  <text style="stroke:none;fill:black;font-family:-apple-system,&quot;SF Pro Display&quot;,&quot;SF Pro Text&quot;,Helvetica,sans-serif;text-anchor:middle;" transform="matrix(1 0 0 1 856.422 322)">Thin</text>
  <text style="stroke:none;fill:black;font-family:-apple-system,&quot;SF Pro Display&quot;,&quot;SF Pro Text&quot;,Helvetica,sans-serif;text-anchor:middle;" transform="matrix(1 0 0 1 1153.13 322)">Light</text>
  <text style="stroke:none;fill:black;font-family:-apple-system,&quot;SF Pro Display&quot;,&quot;SF Pro Text&quot;,Helvetica,sans-serif;text-anchor:middle;" transform="matrix(1 0 0 1 1449.84 322)">Regular</text>
  <text style="stroke:none;fill:black;font-family:-apple-system,&quot;SF Pro Display&quot;,&quot;SF Pro Text&quot;,Helvetica,sans-serif;text-anchor:middle;" transform="matrix(1 0 0 1 1746.56 322)">Medium</text>
  <text style="stroke:none;fill:black;font-family:-apple-system,&quot;SF Pro Display&quot;,&quot;SF Pro Text&quot;,Helvetica,sans-serif;text-anchor:middle;" transform="matrix(1 0 0 1 2043.27 322)">Semibold</text>
  <text style="stroke:none;fill:black;font-family:-apple-system,&quot;SF Pro Display&quot;,&quot;SF Pro Text&quot;,Helvetica,sans-serif;text-anchor:middle;" transform="matrix(1 0 0 1 2339.98 322)">Bold</text>
  <text style="stroke:none;fill:black;font-family:-apple-system,&quot;SF Pro Display&quot;,&quot;SF Pro Text&quot;,Helvetica,sans-serif;text-anchor:middle;" transform="matrix(1 0 0 1 2636.69 322)">Heavy</text>
  <text style="stroke:none;fill:black;font-family:-apple-system,&quot;SF Pro Display&quot;,&quot;SF Pro Text&quot;,Helvetica,sans-serif;text-anchor:middle;" transform="matrix(1 0 0 1 2933.4 322)">Black</text>
  <line id="" style="fill:none;stroke:black;opacity:1;stroke-width:0.5;" x1="263" x2="3036" y1="1903" y2="1903"/>
  <g id="" transform="matrix(1 0 0 1 263 1933)">
   <path d="M9.24805 0.830078C13.5547 0.830078 17.1387-2.74414 17.1387-7.05078C17.1387-11.3574 13.5449-14.9316 9.23828-14.9316C4.94141-14.9316 1.36719-11.3574 1.36719-7.05078C1.36719-2.74414 4.95117 0.830078 9.24805 0.830078ZM9.24805-0.654297C5.70312-0.654297 2.87109-3.49609 2.87109-7.05078C2.87109-10.6055 5.69336-13.4473 9.23828-13.4473C12.793-13.4473 15.6348-10.6055 15.6445-7.05078C15.6543-3.49609 12.8027-0.654297 9.24805-0.654297ZM6.39648-6.31836L8.50586-6.31836L8.50586-4.19922C8.50586-3.75977 8.79883-3.45703 9.22852-3.45703C9.67773-3.45703 9.9707-3.75977 9.9707-4.19922L9.9707-6.31836L12.0996-6.31836C12.5391-6.31836 12.8418-6.61133 12.8418-7.04102C12.8418-7.48047 12.5391-7.7832 12.0996-7.7832L9.9707-7.7832L9.9707-9.89258C9.9707-10.3418 9.67773-10.6445 9.22852-10.6445C8.79883-10.6445 8.50586-10.3418 8.50586-9.89258L8.50586-7.7832L6.39648-7.7832C5.94727-7.7832 5.64453-7.48047 5.64453-7.04102C5.64453-6.61133 5.94727-6.31836 6.39648-6.31836Z"/>
  </g>
  <g id="" transform="matrix(1 0 0 1 281.506 1933)">
   <path d="M11.709 2.91016C17.1582 2.91016 21.6699-1.61133 21.6699-7.05078C21.6699-12.5 17.1484-17.0117 11.6992-17.0117C6.25977-17.0117 1.74805-12.5 1.74805-7.05078C1.74805-1.61133 6.26953 2.91016 11.709 2.91016ZM11.709 1.25C7.09961 1.25 3.41797-2.44141 3.41797-7.05078C3.41797-11.6602 7.08984-15.3516 11.6992-15.3516C16.3086-15.3516 20-11.6602 20.0098-7.05078C20.0195-2.44141 16.3184 1.25 11.709 1.25ZM7.98828-6.23047L10.8789-6.23047L10.8789-3.32031C10.8789-2.83203 11.2109-2.5 11.6895-2.5C12.1777-2.5 12.5195-2.83203 12.5195-3.32031L12.5195-6.23047L15.4297-6.23047C15.918-6.23047 16.25-6.5625 16.25-7.04102C16.25-7.5293 15.918-7.87109 15.4297-7.87109L12.5195-7.87109L12.5195-10.7617C12.5195-11.2695 12.1777-11.6016 11.6895-11.6016C11.2109-11.6016 10.8789-11.2598 10.8789-10.7617L10.8789-7.87109L7.98828-7.87109C7.48047-7.87109 7.14844-7.5293 7.14844-7.04102C7.14844-6.5625 7.49023-6.23047 7.98828-6.23047Z"/>
  </g>
  <g id="" transform="matrix(1 0 0 1 304.924 1933)">
   <path d="M14.9707 5.66406C21.9336 5.66406 27.6953-0.0976562 27.6953-7.05078C27.6953-14.0137 21.9238-19.7754 14.9609-19.7754C8.00781-19.7754 2.25586-14.0137 2.25586-7.05078C2.25586-0.0976562 8.01758 5.66406 14.9707 5.66406ZM14.9707 3.84766C8.93555 3.84766 4.08203-1.01562 4.08203-7.05078C4.08203-13.0957 8.92578-17.9492 14.9609-17.9492C21.0059-17.9492 25.8594-13.0957 25.8691-7.05078C25.8789-1.01562 21.0156 3.84766 14.9707 3.84766ZM10.0586-6.14258L14.0625-6.14258L14.0625-2.12891C14.0625-1.5918 14.4336-1.2207 14.9512-1.2207C15.4883-1.2207 15.8594-1.5918 15.8594-2.12891L15.8594-6.14258L19.8828-6.14258C20.4102-6.14258 20.791-6.51367 20.791-7.03125C20.791-7.56836 20.4199-7.94922 19.8828-7.94922L15.8594-7.94922L15.8594-11.9531C15.8594-12.5098 15.4883-12.8809 14.9512-12.8809C14.4336-12.8809 14.0625-12.5 14.0625-11.9531L14.0625-7.94922L10.0586-7.94922C9.50195-7.94922 9.13086-7.56836 9.13086-7.03125C9.13086-6.51367 9.51172-6.14258 10.0586-6.14258Z"/>
  </g>
  <text style="stroke:none;fill:black;font-family:-apple-system,&quot;SF Pro Display&quot;,&quot;SF Pro Text&quot;,Helvetica,sans-serif;font-weight:bold;" transform="matrix(1 0 0 1 263 1953)">Design Variations</text>
  <text style="stroke:none;fill:black;font-family:-apple-system,&quot;SF Pro Display&quot;,&quot;SF Pro Text&quot;,Helvetica,sans-serif;" transform="matrix(1 0 0 1 263 1971)">Symbols are supported in up to nine weights and three scales.</text>
  <text style="stroke:none;fill:black;font-family:-apple-system,&quot;SF Pro Display&quot;,&quot;SF Pro Text&quot;,Helvetica,sans-serif;" transform="matrix(1 0 0 1 263 1989)">For optimal layout with text and other symbols, vertically align</text>
  <text style="stroke:none;fill:black;font-family:-apple-system,&quot;SF Pro Display&quot;,&quot;SF Pro Text&quot;,Helvetica,sans-serif;" transform="matrix(1 0 0 1 263 2007)">symbols with the adjacent text.</text>
  <line id="" style="fill:none;stroke:#00AEEF;stroke-width:0.5;opacity:1.0;" x1="776" x2="776" y1="1919" y2="1933"/>
  <g id="" transform="matrix(1 0 0 1 776 1933)">
   <path d="M3.31055 0.126953C3.82812 0.126953 4.08203-0.0683594 4.26758-0.605469L5.52734-4.0625L11.2891-4.0625L12.5488-0.605469C12.7344-0.0683594 12.9883 0.126953 13.4961 0.126953C14.0137 0.126953 14.3457-0.185547 14.3457-0.673828C14.3457-0.839844 14.3164-0.986328 14.2383-1.20117L9.6582-13.3887C9.43359-13.9941 9.0332-14.2871 8.4082-14.2871C7.80273-14.2871 7.39258-13.9941 7.17773-13.3984L2.59766-1.19141C2.51953-0.976562 2.49023-0.830078 2.49023-0.664062C2.49023-0.175781 2.80273 0.126953 3.31055 0.126953ZM6.00586-5.53711L8.37891-12.1094L8.42773-12.1094L10.8008-5.53711Z"/>
  </g>
  <line id="" style="fill:none;stroke:#00AEEF;stroke-width:0.5;opacity:1.0;" x1="792.836" x2="792.836" y1="1919" y2="1933"/>
  <text style="stroke:none;fill:black;font-family:-apple-system,&quot;SF Pro Display&quot;,&quot;SF Pro Text&quot;,Helvetica,sans-serif;font-weight:bold;" transform="matrix(1 0 0 1 776 1953)">Margins</text>
  <text style="stroke:none;fill:black;font-family:-apple-system,&quot;SF Pro Display&quot;,&quot;SF Pro Text&quot;,Helvetica,sans-serif;" transform="matrix(1 0 0 1 776 1971)">Leading and trailing margins on the left and right side of each symbol</text>
  <text style="stroke:none;fill:black;font-family:-apple-system,&quot;SF Pro Display&quot;,&quot;SF Pro Text&quot;,Helvetica,sans-serif;" transform="matrix(1 0 0 1 776 1989)">can be adjusted by modifying the x-location of the margin guidelines.</text>
  <text style="stroke:none;fill:black;font-family:-apple-system,&quot;SF Pro Display&quot;,&quot;SF Pro Text&quot;,Helvetica,sans-serif;" transform="matrix(1 0 0 1 776 2007)">Modifications are automatically applied proportionally to all</text>
  <text style="stroke:none;fill:black;font-family:-apple-system,&quot;SF Pro Display&quot;,&quot;SF Pro Text&quot;,Helvetica,sans-serif;" transform="matrix(1 0 0 1 776 2025)">scales and weights.</text>
  <g id="" transform="matrix(1 0 0 1 1289 1933)">
   <path d="M2.8418 1.86523L4.54102 3.57422C5.40039 4.44336 6.38672 4.38477 7.31445 3.35938L17.4902-7.85156C17.7539-7.76367 18.0273-7.7832 18.3398-7.8418L19.4043-8.03711L20.0684-7.36328L20.0293-6.80664C19.9902-6.30859 20.1172-5.92773 20.6055-5.44922L21.3672-4.70703C21.8457-4.22852 22.4609-4.19922 22.9297-4.66797L25.8398-7.58789C26.3086-8.05664 26.2891-8.65234 25.8105-9.13086L25.0391-9.89258C24.5605-10.3711 24.1895-10.5273 23.7109-10.4883L23.1348-10.4395L22.4902-11.0742L22.7344-12.1973C22.8613-12.7637 22.7051-13.2031 22.1191-13.7891L19.9219-15.9766C16.582-19.2969 12.1484-19.2188 9.25781-16.3281C8.83789-15.918 8.80859-15.3418 9.04297-14.9512C9.27734-14.5898 9.73633-14.3555 10.3809-14.5215C11.8457-14.8633 13.3691-14.9219 14.7949-13.9844L14.209-12.5293C14.0137-12.0508 13.9844-11.6504 14.1113-11.2891L3.04688-0.898438C2.06055 0.0195312 1.98242 0.996094 2.8418 1.86523ZM10.752-15.957C13.1836-17.7344 16.4746-17.4316 18.7012-15.2051L21.1328-12.793C21.3672-12.5586 21.4062-12.373 21.3379-12.0312L21.0156-10.5469L22.5195-9.0625L23.5059-9.12109C23.7598-9.13086 23.8379-9.11133 24.0332-8.91602L24.6094-8.33984L22.168-5.89844L21.5918-6.47461C21.3965-6.66992 21.3672-6.74805 21.377-7.01172L21.4453-7.98828L19.9512-9.47266L18.4277-9.21875C18.1055-9.15039 17.959-9.17969 17.7148-9.41406L15.7129-11.416C15.459-11.6504 15.4297-11.8164 15.5859-12.1875L16.4648-14.2773C14.9023-15.7324 12.8711-16.3574 10.8398-15.7617C10.6836-15.7227 10.625-15.8496 10.752-15.957ZM5.27344 2.30469L4.10156 1.14258C3.63281 0.683594 3.74023 0.341797 4.14062-0.0195312L14.9512-10.1953L16.416-8.71094L6.42578 2.27539C6.07422 2.67578 5.74219 2.77344 5.27344 2.30469Z"/>
  </g>
  <text style="stroke:none;fill:black;font-family:-apple-system,&quot;SF Pro Display&quot;,&quot;SF Pro Text&quot;,Helvetica,sans-serif;font-weight:bold;" transform="matrix(1 0 0 1 1289 1953)">Exporting</text>
  <text style="stroke:none;fill:black;font-family:-apple-system,&quot;SF Pro Display&quot;,&quot;SF Pro Text&quot;,Helvetica,sans-serif;" transform="matrix(1 0 0 1 1289 1971)">Symbols should be outlined when exporting to ensure the</text>
  <text style="stroke:none;fill:black;font-family:-apple-system,&quot;SF Pro Display&quot;,&quot;SF Pro Text&quot;,Helvetica,sans-serif;" transform="matrix(1 0 0 1 1289 1989)">design is preserved when submitting to Xcode.</text>
  <text id="template-version" style="stroke:none;fill:black;font-family:-apple-system,&quot;SF Pro Display&quot;,&quot;SF Pro Text&quot;,Helvetica,sans-serif;text-anchor:end;" transform="matrix(1 0 0 1 3036 1933)">Template v.2.0</text>
  <text style="stroke:none;fill:black;font-family:-apple-system,&quot;SF Pro Display&quot;,&quot;SF Pro Text&quot;,Helvetica,sans-serif;text-anchor:end;" transform="matrix(1 0 0 1 3036 1951)">Requires Xcode 12 or greater</text>
  <text style="stroke:none;fill:black;font-family:-apple-system,&quot;SF Pro Display&quot;,&quot;SF Pro Text&quot;,Helvetica,sans-serif;text-anchor:end;" transform="matrix(1 0 0 1 3036 1969)">Generated from text.insert</text>
  <text style="stroke:none;fill:black;font-family:-apple-system,&quot;SF Pro Display&quot;,&quot;SF Pro Text&quot;,Helvetica,sans-serif;text-anchor:end;" transform="matrix(1 0 0 1 3036 1987)">Typeset at 100 points</text>
  <text style="stroke:none;fill:black;font-family:-apple-system,&quot;SF Pro Display&quot;,&quot;SF Pro Text&quot;,Helvetica,sans-serif;" transform="matrix(1 0 0 1 263 726)">Small</text>
  <text style="stroke:none;fill:black;font-family:-apple-system,&quot;SF Pro Display&quot;,&quot;SF Pro Text&quot;,Helvetica,sans-serif;" transform="matrix(1 0 0 1 263 1156)">Medium</text>
  <text style="stroke:none;fill:black;font-family:-apple-system,&quot;SF Pro Display&quot;,&quot;SF Pro Text&quot;,Helvetica,sans-serif;" transform="matrix(1 0 0 1 263 1586)">Large</text>
 </g>
 <g id="Guides">
  <g id="H-reference" style="fill:#27AAE1;stroke:none;" transform="matrix(1 0 0 1 339 696)">
   <path d="M0.976562 0L3.66211 0L12.9883-24.4629L45.752-24.4629L55.127 0L57.7637 0L30.6152-70.459L28.125-70.459ZM29.3457-67.1387L29.4434-67.1387L44.873-26.709L13.8672-26.709Z"/>
  </g>
  <line id="Baseline-S" style="fill:none;stroke:#27AAE1;opacity:1;stroke-width:0.5;" x1="263" x2="3036" y1="696" y2="696"/>
  <line id="Capline-S" style="fill:none;stroke:#27AAE1;opacity:1;stroke-width:0.5;" x1="263" x2="3036" y1="625.541" y2="625.541"/>
  <g id="H-reference" style="fill:#27AAE1;stroke:none;" transform="matrix(1 0 0 1 339 1126)">
   <path d="M0.976562 0L3.66211 0L12.9883-24.4629L45.752-24.4629L55.127 0L57.7637 0L30.6152-70.459L28.125-70.459ZM29.3457-67.1387L29.4434-67.1387L44.873-26.709L13.8672-26.709Z"/>
  </g>
  <line id="Baseline-M" style="fill:none;stroke:#27AAE1;opacity:1;stroke-width:0.5;" x1="263" x2="3036" y1="1126" y2="1126"/>
  <line id="Capline-M" style="fill:none;stroke:#27AAE1;opacity:1;stroke-width:0.5;" x1="263" x2="3036" y1="1055.54" y2="1055.54"/>
  <g id="H-reference" style="fill:#27AAE1;stroke:none;" transform="matrix(1 0 0 1 339 1556)">
   <path d="M0.976562 0L3.66211 0L12.9883-24.4629L45.752-24.4629L55.127 0L57.7637 0L30.6152-70.459L28.125-70.459ZM29.3457-67.1387L29.4434-67.1387L44.873-26.709L13.8672-26.709Z"/>
  </g>
  <line id="Baseline-L" style="fill:none;stroke:#27AAE1;opacity:1;stroke-width:0.5;" x1="263" x2="3036" y1="1556" y2="1556"/>
  <line id="Capline-L" style="fill:none;stroke:#27AAE1;opacity:1;stroke-width:0.5;" x1="263" x2="3036" y1="1485.54" y2="1485.54"/>
  <line id="left-margin" style="fill:none;stroke:#00AEEF;stroke-width:0.5;opacity:1.0;" x1="1388.2" x2="1388.2" y1="1030.79" y2="1150.12"/>
  <line id="right-margin" style="fill:none;stroke:#00AEEF;stroke-width:0.5;opacity:1.0;" x1="1511.49" x2="1511.49" y1="1030.79" y2="1150.12"/>
 </g>
 <g id="Symbols">
  <g id="Black-L" transform="matrix(1 0 0 1 2847.17 1556)">
   <path d="M98.9746-76.6113L147.998-76.6113C152.686-76.6113 156.396-80.3223 156.396-84.9609C156.396-89.6484 152.686-93.3594 147.998-93.3594L98.9746-93.3594C94.3359-93.3594 90.625-89.6484 90.625-84.9609C90.625-80.3223 94.3359-76.6113 98.9746-76.6113ZM16.1133-50.2441C16.1133-42.9199 20.752-38.8672 26.8555-38.8672C33.0078-38.8672 37.6465-43.5059 37.6465-49.6582L37.6465-55.0781C37.6465-57.1777 38.916-58.4961 41.0645-58.4961L48.5352-58.4961L48.5352-51.7578C48.5352-45.3125 55.0293-42.9688 59.9121-46.9238L81.1035-64.2578C84.2773-66.7969 84.1797-71.2402 81.1035-73.7793L59.9121-91.1621C54.9316-95.2148 48.5352-92.8711 48.5352-86.1816L48.5352-80.0293L37.5488-80.0293C23.6816-80.0293 16.1133-72.8516 16.1133-59.0332ZM98.9746-43.6035L147.998-43.6035C152.686-43.6035 156.396-47.3633 156.396-52.002C156.396-56.6406 152.686-60.3516 147.998-60.3516L98.9746-60.3516C94.3359-60.3516 90.625-56.6406 90.625-52.002C90.625-47.3633 94.3359-43.6035 98.9746-43.6035ZM24.4629-10.6445L147.998-10.6445C152.686-10.6445 156.396-14.3555 156.396-19.043C156.396-23.6816 152.686-27.3926 147.998-27.3926L24.4629-27.3926C19.7754-27.3926 16.0645-23.6816 16.0645-19.043C16.0645-14.3555 19.7754-10.6445 24.4629-10.6445ZM24.4629 22.3145L147.998 22.3145C152.686 22.3145 156.396 18.6035 156.396 13.9648C156.396 9.27734 152.686 5.56641 147.998 5.56641L24.4629 5.56641C19.7754 5.56641 16.0645 9.27734 16.0645 13.9648C16.0645 18.6035 19.7754 22.3145 24.4629 22.3145Z"/>
  </g>
  <g id="Heavy-L" transform="matrix(1 0 0 1 2552.19 1556)">
   <path d="M97.8027-77.5879L145.557-77.5879C149.658-77.5879 152.93-80.8594 152.93-84.9609C152.93-89.0625 149.658-92.334 145.557-92.334L97.8027-92.334C93.7012-92.334 90.4785-89.0625 90.4785-84.9609C90.4785-80.8594 93.7012-77.5879 97.8027-77.5879ZM16.1133-49.0723C16.1133-42.4316 20.166-38.6719 25.8301-38.6719C31.4453-38.6719 35.5469-42.8711 35.5469-48.584L35.5469-56.2012C35.5469-58.0566 36.6211-59.2285 38.5742-59.2285L48.7305-59.2285L48.7305-52.5391C48.7305-46.5332 54.834-44.2871 59.375-47.9492L79.4434-64.2578C82.4707-66.6992 82.373-70.9473 79.4434-73.291L59.375-89.6973C54.6875-93.457 48.7305-91.2598 48.7305-85.0098L48.7305-78.6621L35.498-78.6621C23.1445-78.6621 16.1133-72.0703 16.1133-59.7656ZM97.8027-44.6289L145.557-44.6289C149.658-44.6289 152.93-47.9004 152.93-51.9531C152.93-56.0547 149.658-59.3262 145.557-59.3262L97.8027-59.3262C93.7012-59.3262 90.4785-56.0547 90.4785-51.9531C90.4785-47.9004 93.7012-44.6289 97.8027-44.6289ZM23.4375-11.6211L145.557-11.6211C149.658-11.6211 152.93-14.8926 152.93-18.9941C152.93-23.0957 149.658-26.3672 145.557-26.3672L23.4375-26.3672C19.3359-26.3672 16.0645-23.0957 16.0645-18.9941C16.0645-14.8926 19.3359-11.6211 23.4375-11.6211ZM23.4375 21.3379L145.557 21.3379C149.658 21.3379 152.93 18.1152 152.93 14.0137C152.93 9.91211 149.658 6.64062 145.557 6.64062L23.4375 6.64062C19.3359 6.64062 16.0645 9.91211 16.0645 14.0137C16.0645 18.1152 19.3359 21.3379 23.4375 21.3379Z"/>
  </g>
  <g id="Bold-L" transform="matrix(1 0 0 1 2257.43 1556)">
   <path d="M96.4844-78.7109L142.773-78.7109C146.24-78.7109 149.023-81.4941 149.023-84.9609C149.023-88.4277 146.24-91.1621 142.773-91.1621L96.4844-91.1621C93.0176-91.1621 90.2832-88.4277 90.2832-84.9609C90.2832-81.4941 93.0176-78.7109 96.4844-78.7109ZM16.1133-47.7051C16.1133-41.8945 19.5801-38.4766 24.6094-38.4766C29.6875-38.4766 33.1543-42.1875 33.1543-47.4121L33.1543-57.4707C33.1543-59.082 34.082-60.0586 35.7422-60.0586L48.9746-60.0586L48.9746-53.3691C48.9746-47.8516 54.5898-45.752 58.7891-49.1699L77.5879-64.3066C80.4199-66.5527 80.3711-70.6055 77.5879-72.8027L58.7891-88.0371C54.4922-91.5039 48.9746-89.4043 48.9746-83.7402L48.9746-77.1484L33.2031-77.1484C22.5586-77.1484 16.1133-71.1914 16.1133-60.5469ZM96.4844-45.7031L142.773-45.7031C146.24-45.7031 149.023-48.4863 149.023-51.9531C149.023-55.4199 146.24-58.1543 142.773-58.1543L96.4844-58.1543C93.0176-58.1543 90.2832-55.4199 90.2832-51.9531C90.2832-48.4863 93.0176-45.7031 96.4844-45.7031ZM22.3145-12.7441L142.773-12.7441C146.24-12.7441 149.023-15.4785 149.023-18.9453C149.023-22.4121 146.24-25.1953 142.773-25.1953L22.3145-25.1953C18.7988-25.1953 16.0645-22.4121 16.0645-18.9453C16.0645-15.4785 18.7988-12.7441 22.3145-12.7441ZM22.3145 20.2637L142.773 20.2637C146.24 20.2637 149.023 17.5293 149.023 14.0625C149.023 10.5957 146.24 7.8125 142.773 7.8125L22.3145 7.8125C18.7988 7.8125 16.0645 10.5957 16.0645 14.0625C16.0645 17.5293 18.7988 20.2637 22.3145 20.2637Z"/>
  </g>
  <g id="Semibold-L" transform="matrix(1 0 0 1 1962.07 1556)">
   <path d="M95.6055-79.4922L140.869-79.4922C143.896-79.4922 146.338-81.8848 146.338-84.9609C146.338-87.9883 143.896-90.3809 140.869-90.3809L95.6055-90.3809C92.5293-90.3809 90.1367-87.9883 90.1367-84.9609C90.1367-81.8848 92.5293-79.4922 95.6055-79.4922ZM16.1133-46.7773C16.1133-41.5039 19.1406-38.3301 23.8281-38.3301C28.4668-38.3301 31.4941-41.6992 31.4941-46.6309L31.4941-58.3496C31.4941-59.7656 32.3242-60.6445 33.8379-60.6445L49.1211-60.6445L49.1211-53.9551C49.1211-48.7793 54.3945-46.7773 58.3984-50L76.3184-64.3066C79.0527-66.5039 79.0039-70.3125 76.3184-72.4609L58.3984-86.8652C54.2969-90.1855 49.1211-88.1836 49.1211-82.8125L49.1211-76.0742L31.6406-76.0742C22.168-76.0742 16.1133-70.6055 16.1133-61.084ZM95.6055-46.4844L140.869-46.4844C143.896-46.4844 146.338-48.877 146.338-51.9531C146.338-54.9805 143.896-57.373 140.869-57.373L95.6055-57.373C92.5293-57.373 90.1367-54.9805 90.1367-51.9531C90.1367-48.877 92.5293-46.4844 95.6055-46.4844ZM21.5332-13.4766L140.869-13.4766C143.896-13.4766 146.338-15.8691 146.338-18.8965C146.338-21.9727 143.896-24.3652 140.869-24.3652L21.5332-24.3652C18.457-24.3652 16.0645-21.9727 16.0645-18.8965C16.0645-15.8691 18.457-13.4766 21.5332-13.4766ZM21.5332 19.5312L140.869 19.5312C143.896 19.5312 146.338 17.1387 146.338 14.1113C146.338 11.0352 143.896 8.64258 140.869 8.64258L21.5332 8.64258C18.457 8.64258 16.0645 11.0352 16.0645 14.1113C16.0645 17.1387 18.457 19.5312 21.5332 19.5312Z"/>
  </g>
  <g id="Medium-L" transform="matrix(1 0 0 1 1666.38 1556)">
   <path d="M94.9219-80.0781L139.404-80.0781C142.139-80.0781 144.287-82.2266 144.287-84.9609C144.287-87.6465 142.139-89.7949 139.404-89.7949L94.9219-89.7949C92.1875-89.7949 90.0391-87.6465 90.0391-84.9609C90.0391-82.2266 92.1875-80.0781 94.9219-80.0781ZM16.1133-46.0938C16.1133-41.2109 18.8477-38.2324 23.1934-38.2324C27.5391-38.2324 30.2734-41.3574 30.2734-45.9961L30.2734-58.9844C30.2734-60.3027 30.957-61.084 32.373-61.084L49.2188-61.084L49.2188-54.3945C49.2188-49.4629 54.2969-47.5586 58.0566-50.5859L75.3418-64.3555C77.9785-66.4062 77.9785-70.166 75.3418-72.2168L58.0566-86.0352C54.1504-89.1602 49.2188-87.207 49.2188-82.1289L49.2188-75.2441L30.4199-75.2441C21.875-75.2441 16.1133-70.1172 16.1133-61.5234ZM94.9219-47.0703L139.404-47.0703C142.139-47.0703 144.287-49.2188 144.287-51.9043C144.287-54.6387 142.139-56.7871 139.404-56.7871L94.9219-56.7871C92.1875-56.7871 90.0391-54.6387 90.0391-51.9043C90.0391-49.2188 92.1875-47.0703 94.9219-47.0703ZM20.8984-14.0625L139.404-14.0625C142.139-14.0625 144.287-16.1621 144.287-18.8965C144.287-21.6309 142.139-23.7305 139.404-23.7305L20.8984-23.7305C18.2129-23.7305 16.0645-21.6309 16.0645-18.8965C16.0645-16.1621 18.2129-14.0625 20.8984-14.0625ZM20.8984 18.9941L139.404 18.9941C142.139 18.9941 144.287 16.8457 144.287 14.1113C144.287 11.4258 142.139 9.27734 139.404 9.27734L20.8984 9.27734C18.2129 9.27734 16.0645 11.4258 16.0645 14.1113C16.0645 16.8457 18.2129 18.9941 20.8984 18.9941Z"/>
  </g>
  <g id="Regular-L" transform="matrix(1 0 0 1 1370.99 1556)">
   <path d="M93.9941-80.8594L137.5-80.8594C139.795-80.8594 141.65-82.6172 141.65-84.9609C141.65-87.2559 139.795-89.0137 137.5-89.0137L93.9941-89.0137C91.6992-89.0137 89.9414-87.2559 89.9414-84.9609C89.9414-82.6172 91.6992-80.8594 93.9941-80.8594ZM16.1133-45.166C16.1133-40.8691 18.4082-38.0859 22.3633-38.0859C26.3184-38.0859 28.6621-40.8691 28.6621-45.166L28.6621-59.8633C28.6621-60.9863 29.248-61.6699 30.4688-61.6699L49.3652-61.6699L49.3652-54.9805C49.3652-50.3906 54.1016-48.584 57.666-51.416L74.0723-64.3555C76.6113-66.3086 76.6113-69.9219 74.0723-71.875L57.666-84.8633C54.0039-87.793 49.3652-85.9863 49.3652-81.25L49.3652-74.2188L28.9062-74.2188C21.4355-74.2188 16.1133-69.5312 16.1133-62.0605ZM93.9941-47.8027L137.5-47.8027C139.795-47.8027 141.65-49.6094 141.65-51.9043C141.65-54.1992 139.795-56.0059 137.5-56.0059L93.9941-56.0059C91.6992-56.0059 89.9414-54.1992 89.9414-51.9043C89.9414-49.6094 91.6992-47.8027 93.9941-47.8027ZM20.166-14.7949L137.5-14.7949C139.795-14.7949 141.65-16.5527 141.65-18.8477C141.65-21.1914 139.795-22.9492 137.5-22.9492L20.166-22.9492C17.8223-22.9492 16.0645-21.1914 16.0645-18.8477C16.0645-16.5527 17.8223-14.7949 20.166-14.7949ZM20.166 18.2617L137.5 18.2617C139.795 18.2617 141.65 16.4551 141.65 14.1602C141.65 11.8652 139.795 10.1074 137.5 10.1074L20.166 10.1074C17.8223 10.1074 16.0645 11.8652 16.0645 14.1602C16.0645 16.4551 17.8223 18.2617 20.166 18.2617Z"/>
  </g>
  <g id="Light-L" transform="matrix(1 0 0 1 1075.2 1556)">
   <path d="M92.5293-81.7871L136.621-81.7871C138.379-81.7871 139.795-83.1055 139.795-84.9121C139.795-86.7188 138.379-88.0859 136.621-88.0859L92.5293-88.0859C90.7227-88.0859 89.3555-86.7188 89.3555-84.9121C89.3555-83.1055 90.7227-81.7871 92.5293-81.7871ZM16.1133-43.2617C16.1133-39.9902 17.9688-37.8418 21.0938-37.8418C24.1699-37.8418 26.0742-39.9902 26.0742-43.2617L26.0742-61.4746C26.0742-62.3047 26.5137-62.8418 27.4414-62.8418L48.6816-62.8418L48.6816-55.6152C48.6816-51.5137 53.0273-49.8047 56.2988-52.3438L71.7773-64.4043C74.2188-66.3086 74.2188-69.7754 71.7773-71.6797L56.2988-83.7891C52.9785-86.377 48.6816-84.668 48.6816-80.4688L48.6816-72.8027L25.5859-72.8027C20.166-72.8027 16.1133-69.1895 16.1133-63.7207ZM92.5293-48.6816L136.621-48.6816C138.379-48.6816 139.795-50.0488 139.795-51.8555C139.795-53.6621 138.379-54.9805 136.621-54.9805L92.5293-54.9805C90.7227-54.9805 89.3555-53.6621 89.3555-51.8555C89.3555-50.0488 90.7227-48.6816 92.5293-48.6816ZM19.2383-15.625L136.621-15.625C138.379-15.625 139.795-16.9922 139.795-18.7988C139.795-20.5566 138.379-21.9238 136.621-21.9238L19.2383-21.9238C17.4316-21.9238 16.0645-20.5566 16.0645-18.7988C16.0645-16.9922 17.4316-15.625 19.2383-15.625ZM19.2383 17.4316L136.621 17.4316C138.379 17.4316 139.795 16.1133 139.795 14.3066C139.795 12.5 138.379 11.1328 136.621 11.1328L19.2383 11.1328C17.4316 11.1328 16.0645 12.5 16.0645 14.3066C16.0645 16.1133 17.4316 17.4316 19.2383 17.4316Z"/>
  </g>
  <g id="Thin-L" transform="matrix(1 0 0 1 779.713 1556)">
   <path d="M90.5762-82.959L135.4-82.959C136.523-82.959 137.354-83.7402 137.354-84.9121C137.354-86.0352 136.523-86.8164 135.4-86.8164L90.5762-86.8164C89.4531-86.8164 88.623-86.0352 88.623-84.9121C88.623-83.7402 89.4531-82.959 90.5762-82.959ZM16.1133-40.7715C16.1133-38.8184 17.3828-37.4512 19.3848-37.4512C21.3379-37.4512 22.6562-38.8184 22.6562-40.7715L22.6562-63.5742C22.6562-64.0625 22.9004-64.3555 23.4375-64.3555L47.8027-64.3555L47.8027-56.4453C47.8027-52.9785 51.6113-51.416 54.4434-53.6133L68.7012-64.4531C71.0449-66.2598 71.0449-69.6289 68.7012-71.4355L54.4434-82.3242C51.6113-84.5215 47.8027-82.959 47.8027-79.4434L47.8027-70.8984L21.1914-70.8984C18.4082-70.8984 16.1133-68.75 16.1133-65.918ZM90.5762-49.8535L135.4-49.8535C136.523-49.8535 137.354-50.6348 137.354-51.7578C137.354-52.9297 136.523-53.7109 135.4-53.7109L90.5762-53.7109C89.4531-53.7109 88.623-52.9297 88.623-51.7578C88.623-50.6348 89.4531-49.8535 90.5762-49.8535ZM18.0176-16.6992L135.4-16.6992C136.523-16.6992 137.354-17.5293 137.354-18.6523C137.354-19.7754 136.523-20.6055 135.4-20.6055L18.0176-20.6055C16.8457-20.6055 16.0645-19.7754 16.0645-18.6523C16.0645-17.5293 16.8457-16.6992 18.0176-16.6992ZM18.0176 16.4062L135.4 16.4062C136.523 16.4062 137.354 15.625 137.354 14.4531C137.354 13.3301 136.523 12.5488 135.4 12.5488L18.0176 12.5488C16.8457 12.5488 16.0645 13.3301 16.0645 14.4531C16.0645 15.625 16.8457 16.4062 18.0176 16.4062Z"/>
  </g>
  <g id="Ultralight-L" transform="matrix(1 0 0 1 483.637 1556)">
   <path d="M89.5508-83.5938L134.766-83.5938C135.596-83.5938 136.084-84.082 136.084-84.8633C136.084-85.6934 135.596-86.1816 134.766-86.1816L89.5508-86.1816C88.7695-86.1816 88.2812-85.6934 88.2812-84.8633C88.2812-84.082 88.7695-83.5938 89.5508-83.5938ZM16.1133-39.4531C16.1133-38.1836 17.0898-37.2559 18.5059-37.2559C19.9219-37.2559 20.8984-38.1836 20.8984-39.4531L20.8984-64.6484C20.8984-64.9902 21.0938-65.1855 21.3867-65.1855L47.3145-65.1855L47.3145-56.8848C47.3145-53.7109 50.8789-52.2461 53.5156-54.248L67.1387-64.4531C69.4336-66.2109 69.4336-69.5801 67.1387-71.3379L53.5156-81.543C50.9277-83.5449 47.3145-82.0312 47.3145-78.9062L47.3145-69.9707L18.9453-69.9707C17.5293-69.9707 16.1133-68.5547 16.1133-66.9922ZM89.5508-50.4395L134.766-50.4395C135.596-50.4395 136.084-50.9277 136.084-51.7578C136.084-52.5391 135.596-53.0273 134.766-53.0273L89.5508-53.0273C88.7695-53.0273 88.2812-52.5391 88.2812-51.7578C88.2812-50.9277 88.7695-50.4395 89.5508-50.4395ZM17.3828-17.2852L134.766-17.2852C135.596-17.2852 136.084-17.7734 136.084-18.6035C136.084-19.3848 135.596-19.9219 134.766-19.9219L17.3828-19.9219C16.5527-19.9219 16.0645-19.3848 16.0645-18.6035C16.0645-17.7734 16.5527-17.2852 17.3828-17.2852ZM17.3828 15.8691L134.766 15.8691C135.596 15.8691 136.084 15.332 136.084 14.5508C136.084 13.7695 135.596 13.2324 134.766 13.2324L17.3828 13.2324C16.5527 13.2324 16.0645 13.7695 16.0645 14.5508C16.0645 15.332 16.5527 15.8691 17.3828 15.8691Z"/>
  </g>
  <g id="Black-M" transform="matrix(1 0 0 1 2864.7 1126)">
   <path d="M12.5-47.4609C12.5-41.4062 16.5527-38.1348 21.582-38.1348C26.5625-38.1348 30.6641-42.041 30.6641-46.8262L30.6641-50C30.6641-51.7578 31.8359-52.8809 33.5449-52.8809L36.9629-52.8809L36.9629-47.3633C36.9629-42.041 42.3828-40.0879 46.3867-43.3594L63.8672-57.7148C66.5039-59.8145 66.3574-63.5254 63.8672-65.5762L46.3867-79.9805C42.334-83.3008 36.9629-81.3965 36.9629-75.8789L36.9629-71.0449L30.0781-71.0449C18.3594-71.0449 12.5-65.2344 12.5-53.5645ZM77.5391-66.4062L117.578-66.4062C121.68-66.4062 124.951-69.6777 124.951-73.7793C124.951-77.8809 121.68-81.1523 117.578-81.1523L77.5391-81.1523C73.4375-81.1523 70.166-77.8809 70.166-73.7793C70.166-69.6777 73.4375-66.4062 77.5391-66.4062ZM77.5391-40.8691L117.578-40.8691C121.68-40.8691 124.951-44.1406 124.951-48.2422C124.951-52.2949 121.68-55.5664 117.578-55.5664L77.5391-55.5664C73.4375-55.5664 70.166-52.2949 70.166-48.2422C70.166-44.1406 73.4375-40.8691 77.5391-40.8691ZM19.8242-15.2832L117.578-15.2832C121.68-15.2832 124.951-18.6035 124.951-22.6562C124.951-26.7578 121.68-30.0293 117.578-30.0293L19.8242-30.0293C15.7227-30.0293 12.4512-26.7578 12.4512-22.6562C12.4512-18.6035 15.7227-15.2832 19.8242-15.2832ZM19.8242 10.2539L117.578 10.2539C121.68 10.2539 124.951 6.98242 124.951 2.88086C124.951-1.2207 121.68-4.49219 117.578-4.49219L19.8242-4.49219C15.7227-4.49219 12.4512-1.2207 12.4512 2.88086C12.4512 6.98242 15.7227 10.2539 19.8242 10.2539Z"/>
  </g>
  <g id="Heavy-M" transform="matrix(1 0 0 1 2569.65 1126)">
   <path d="M76.6113-67.2852L115.088-67.2852C118.701-67.2852 121.631-70.166 121.631-73.7793C121.631-77.3926 118.701-80.2734 115.088-80.2734L76.6113-80.2734C72.998-80.2734 70.1172-77.3926 70.1172-73.7793C70.1172-70.166 72.998-67.2852 76.6113-67.2852ZM12.5-46.6309C12.5-41.0645 16.1133-37.9883 20.752-37.9883C25.4395-37.9883 29.0039-41.5527 29.0039-46.1426L29.0039-50.7812C29.0039-52.3926 30.0293-53.3691 31.6406-53.3691L37.4023-53.3691L37.4023-48.0469C37.4023-43.0664 42.4316-41.2109 46.1914-44.2871L62.6465-57.7148C65.1367-59.7168 65.0391-63.1836 62.6465-65.1367L46.1914-78.6621C42.334-81.7871 37.4023-79.9316 37.4023-74.8047L37.4023-69.9219L28.7109-69.9219C18.1152-69.9219 12.5-64.502 12.5-53.9551ZM76.6113-41.6992L115.088-41.6992C118.701-41.6992 121.631-44.5801 121.631-48.1934C121.631-51.8066 118.701-54.6875 115.088-54.6875L76.6113-54.6875C72.998-54.6875 70.1172-51.8066 70.1172-48.1934C70.1172-44.5801 72.998-41.6992 76.6113-41.6992ZM18.9453-16.1621L115.088-16.1621C118.701-16.1621 121.631-19.043 121.631-22.6562C121.631-26.2695 118.701-29.1504 115.088-29.1504L18.9453-29.1504C15.332-29.1504 12.4512-26.2695 12.4512-22.6562C12.4512-19.043 15.332-16.1621 18.9453-16.1621ZM18.9453 9.42383L115.088 9.42383C118.701 9.42383 121.631 6.49414 121.631 2.88086C121.631-0.732422 118.701-3.61328 115.088-3.61328L18.9453-3.61328C15.332-3.61328 12.4512-0.732422 12.4512 2.88086C12.4512 6.49414 15.332 9.42383 18.9453 9.42383Z"/>
  </g>
  <g id="Bold-M" transform="matrix(1 0 0 1 2274.82 1126)">
   <path d="M75.5859-68.2617L112.354-68.2617C115.43-68.2617 117.871-70.7031 117.871-73.7793C117.871-76.8555 115.43-79.2969 112.354-79.2969L75.5859-79.2969C72.5098-79.2969 70.0684-76.8555 70.0684-73.7793C70.0684-70.7031 72.5098-68.2617 75.5859-68.2617ZM12.5-45.752C12.5-40.7227 15.5273-37.8906 19.8242-37.8906C24.1211-37.8906 27.1973-41.0645 27.1973-45.4102L27.1973-51.6602C27.1973-53.0762 28.0273-53.9551 29.4434-53.9551L37.8418-53.9551L37.8418-48.7793C37.8418-44.1895 42.4805-42.4805 45.9473-45.3125L61.2793-57.7637C63.623-59.5703 63.5254-62.8418 61.2793-64.6484L45.9473-77.1484C42.3828-80.0293 37.8418-78.3203 37.8418-73.584L37.8418-68.6523L27.1973-68.6523C17.8711-68.6523 12.5-63.623 12.5-54.3457ZM75.5859-42.6758L112.354-42.6758C115.43-42.6758 117.871-45.1172 117.871-48.1934C117.871-51.2695 115.43-53.7109 112.354-53.7109L75.5859-53.7109C72.5098-53.7109 70.0684-51.2695 70.0684-48.1934C70.0684-45.1172 72.5098-42.6758 75.5859-42.6758ZM17.9688-17.0898L112.354-17.0898C115.43-17.0898 117.871-19.5801 117.871-22.6562C117.871-25.7324 115.43-28.1738 112.354-28.1738L17.9688-28.1738C14.8926-28.1738 12.4512-25.7324 12.4512-22.6562C12.4512-19.5801 14.8926-17.0898 17.9688-17.0898ZM17.9688 8.44727L112.354 8.44727C115.43 8.44727 117.871 6.00586 117.871 2.92969C117.871-0.146484 115.43-2.58789 112.354-2.58789L17.9688-2.58789C14.8926-2.58789 12.4512-0.146484 12.4512 2.92969C12.4512 6.00586 14.8926 8.44727 17.9688 8.44727Z"/>
  </g>
  <g id="Semibold-M" transform="matrix(1 0 0 1 1979.38 1126)">
   <path d="M74.9023-68.8965L110.4-68.8965C113.135-68.8965 115.332-71.0449 115.332-73.7793C115.332-76.4648 113.135-78.6133 110.4-78.6133L74.9023-78.6133C72.2168-78.6133 70.0684-76.4648 70.0684-73.7793C70.0684-71.0449 72.2168-68.8965 74.9023-68.8965ZM12.5-45.1172C12.5-40.5273 15.1855-37.793 19.1895-37.793C23.1934-37.793 25.9277-40.7227 25.9277-44.9219L25.9277-52.2949C25.9277-53.5645 26.6113-54.3457 27.9785-54.3457L38.1348-54.3457L38.1348-49.2676C38.1348-44.9707 42.4805-43.3594 45.8008-45.9961L60.3516-57.7637C62.5488-59.5215 62.5-62.5977 60.3516-64.3066L45.8008-76.123C42.4316-78.8574 38.1348-77.2461 38.1348-72.8027L38.1348-67.7734L26.123-67.7734C17.6758-67.7734 12.5-63.0371 12.5-54.6387ZM74.9023-43.3594L110.4-43.3594C113.135-43.3594 115.332-45.5078 115.332-48.1934C115.332-50.9277 113.135-53.0762 110.4-53.0762L74.9023-53.0762C72.2168-53.0762 70.0684-50.9277 70.0684-48.1934C70.0684-45.5078 72.2168-43.3594 74.9023-43.3594ZM17.2852-17.7734L110.4-17.7734C113.135-17.7734 115.332-19.9219 115.332-22.6074C115.332-25.3418 113.135-27.4902 110.4-27.4902L17.2852-27.4902C14.5996-27.4902 12.4512-25.3418 12.4512-22.6074C12.4512-19.9219 14.5996-17.7734 17.2852-17.7734ZM17.2852 7.8125L110.4 7.8125C113.135 7.8125 115.332 5.66406 115.332 2.92969C115.332 0.244141 113.135-1.9043 110.4-1.9043L17.2852-1.9043C14.5996-1.9043 12.4512 0.244141 12.4512 2.92969C12.4512 5.66406 14.5996 7.8125 17.2852 7.8125Z"/>
  </g>
  <g id="Medium-M" transform="matrix(1 0 0 1 1683.64 1126)">
   <path d="M74.3652-69.4336L108.984-69.4336C111.426-69.4336 113.379-71.3379 113.379-73.7793C113.379-76.1719 111.426-78.125 108.984-78.125L74.3652-78.125C71.9727-78.125 70.0195-76.1719 70.0195-73.7793C70.0195-71.3379 71.9727-69.4336 74.3652-69.4336ZM12.5-44.6289C12.5-40.332 14.8926-37.6953 18.7012-37.6953C22.5098-37.6953 24.9512-40.4297 24.9512-44.5312L24.9512-52.7832C24.9512-53.9551 25.5859-54.6875 26.8066-54.6875L38.3789-54.6875L38.3789-49.6582C38.3789-45.5566 42.5293-43.9941 45.6543-46.5332L59.668-57.7637C61.7676-59.4238 61.7188-62.4023 59.668-64.0625L45.6543-75.3418C42.4316-77.9785 38.3789-76.416 38.3789-72.168L38.3789-67.1387L25.293-67.1387C17.5293-67.1387 12.5-62.5977 12.5-54.834ZM74.3652-43.8477L108.984-43.8477C111.426-43.8477 113.379-45.752 113.379-48.1934C113.379-50.6348 111.426-52.5391 108.984-52.5391L74.3652-52.5391C71.9727-52.5391 70.0195-50.6348 70.0195-48.1934C70.0195-45.752 71.9727-43.8477 74.3652-43.8477ZM16.7969-18.2617L108.984-18.2617C111.426-18.2617 113.379-20.166 113.379-22.6074C113.379-25.0488 111.426-26.9531 108.984-26.9531L16.7969-26.9531C14.3555-26.9531 12.4512-25.0488 12.4512-22.6074C12.4512-20.166 14.3555-18.2617 16.7969-18.2617ZM16.7969 7.32422L108.984 7.32422C111.426 7.32422 113.379 5.37109 113.379 2.97852C113.379 0.537109 111.426-1.36719 108.984-1.36719L16.7969-1.36719C14.3555-1.36719 12.4512 0.537109 12.4512 2.97852C12.4512 5.37109 14.3555 7.32422 16.7969 7.32422Z"/>
  </g>
  <g id="Regular-M" transform="matrix(1 0 0 1 1388.2 1126)">
   <path d="M73.6816-70.0684L107.08-70.0684C109.131-70.0684 110.84-71.6797 110.84-73.7793C110.84-75.8301 109.131-77.4414 107.08-77.4414L73.6816-77.4414C71.6309-77.4414 70.0195-75.8301 70.0195-73.7793C70.0195-71.6797 71.6309-70.0684 73.6816-70.0684ZM12.5-44.043C12.5-40.0879 14.502-37.5977 18.0664-37.5977C21.6309-37.5977 23.6816-40.0879 23.6816-44.043L23.6816-53.3691C23.6816-54.4434 24.2188-55.0781 25.3418-55.0781L38.6719-55.0781L38.6719-50.1953C38.6719-46.3379 42.5293-44.873 45.5078-47.2168L58.7402-57.7637C60.7422-59.375 60.7422-62.1582 58.7402-63.7207L45.5078-74.3164C42.4316-76.8066 38.6719-75.293 38.6719-71.3379L38.6719-66.2598L24.2676-66.2598C17.3828-66.2598 12.5-62.0117 12.5-55.0781ZM73.6816-44.4824L107.08-44.4824C109.131-44.4824 110.84-46.0938 110.84-48.1934C110.84-50.2441 109.131-51.8555 107.08-51.8555L73.6816-51.8555C71.6309-51.8555 70.0195-50.2441 70.0195-48.1934C70.0195-46.0938 71.6309-44.4824 73.6816-44.4824ZM16.1133-18.8965L107.08-18.8965C109.131-18.8965 110.84-20.5566 110.84-22.6074C110.84-24.6582 109.131-26.2695 107.08-26.2695L16.1133-26.2695C14.0625-26.2695 12.4512-24.6582 12.4512-22.6074C12.4512-20.5566 14.0625-18.8965 16.1133-18.8965ZM16.1133 6.64062L107.08 6.64062C109.131 6.64062 110.84 5.0293 110.84 2.97852C110.84 0.927734 109.131-0.732422 107.08-0.732422L16.1133-0.732422C14.0625-0.732422 12.4512 0.927734 12.4512 2.97852C12.4512 5.0293 14.0625 6.64062 16.1133 6.64062Z"/>
  </g>
  <g id="Light-M" transform="matrix(1 0 0 1 1092.32 1126)">
   <path d="M72.3633-70.8984L106.25-70.8984C107.91-70.8984 109.18-72.1191 109.18-73.7305C109.18-75.3418 107.91-76.6113 106.25-76.6113L72.3633-76.6113C70.752-76.6113 69.5312-75.3418 69.5312-73.7305C69.5312-72.1191 70.752-70.8984 72.3633-70.8984ZM12.5-42.334C12.5-39.3066 14.1113-37.3535 16.9434-37.3535C19.7266-37.3535 21.3379-39.3066 21.3379-42.334L21.3379-54.834C21.3379-55.6152 21.7773-56.1035 22.6074-56.1035L38.0371-56.1035L38.0371-50.7324C38.0371-47.3633 41.6016-45.9961 44.2383-48.0957L56.6406-57.8125C58.5938-59.3262 58.5938-62.0605 56.6406-63.5742L44.2383-73.3398C41.5039-75.4883 38.0371-74.1211 38.0371-70.6543L38.0371-64.9902L21.2891-64.9902C16.2109-64.9902 12.5-61.7188 12.5-56.5918ZM72.3633-45.2637L106.25-45.2637C107.91-45.2637 109.18-46.5332 109.18-48.1445C109.18-49.7559 107.91-50.9766 106.25-50.9766L72.3633-50.9766C70.752-50.9766 69.5312-49.7559 69.5312-48.1445C69.5312-46.5332 70.752-45.2637 72.3633-45.2637ZM15.332-19.6777L106.25-19.6777C107.91-19.6777 109.18-20.8984 109.18-22.5098C109.18-24.1211 107.91-25.3906 106.25-25.3906L15.332-25.3906C13.6719-25.3906 12.4512-24.1211 12.4512-22.5098C12.4512-20.8984 13.6719-19.6777 15.332-19.6777ZM15.332 5.95703L106.25 5.95703C107.91 5.95703 109.18 4.6875 109.18 3.07617C109.18 1.46484 107.91 0.244141 106.25 0.244141L15.332 0.244141C13.6719 0.244141 12.4512 1.46484 12.4512 3.07617C12.4512 4.6875 13.6719 5.95703 15.332 5.95703Z"/>
  </g>
  <g id="Thin-M" transform="matrix(1 0 0 1 796.705 1126)">
   <path d="M70.6055-71.9727L105.176-71.9727C106.201-71.9727 106.982-72.7051 106.982-73.7305C106.982-74.7559 106.201-75.4883 105.176-75.4883L70.6055-75.4883C69.5801-75.4883 68.8477-74.7559 68.8477-73.7305C68.8477-72.7051 69.5801-71.9727 70.6055-71.9727ZM12.5-40.0391C12.5-38.2324 13.623-37.0117 15.3809-37.0117C17.1875-37.0117 18.3105-38.2324 18.3105-40.0391L18.3105-56.7383C18.3105-57.2266 18.5547-57.4707 19.043-57.4707L37.2559-57.4707L37.2559-51.4648C37.2559-48.6816 40.332-47.4121 42.627-49.1699L53.9062-57.8613C55.7617-59.2773 55.7617-61.9141 53.9062-63.3301L42.627-72.0215C40.2832-73.8281 37.2559-72.5586 37.2559-69.7266L37.2559-63.2812L17.3828-63.2812C14.6484-63.2812 12.5-61.3281 12.5-58.5449ZM70.6055-46.2891L105.176-46.2891C106.201-46.2891 106.982-47.0215 106.982-48.0469C106.982-49.0723 106.201-49.8535 105.176-49.8535L70.6055-49.8535C69.5801-49.8535 68.8477-49.0723 68.8477-48.0469C68.8477-47.0215 69.5801-46.2891 70.6055-46.2891ZM14.209-20.6543L105.176-20.6543C106.201-20.6543 106.982-21.3867 106.982-22.4121C106.982-23.4375 106.201-24.1699 105.176-24.1699L14.209-24.1699C13.1836-24.1699 12.4512-23.4375 12.4512-22.4121C12.4512-21.3867 13.1836-20.6543 14.209-20.6543ZM14.209 5.0293L105.176 5.0293C106.201 5.0293 106.982 4.24805 106.982 3.22266C106.982 2.19727 106.201 1.46484 105.176 1.46484L14.209 1.46484C13.1836 1.46484 12.4512 2.19727 12.4512 3.22266C12.4512 4.24805 13.1836 5.0293 14.209 5.0293Z"/>
  </g>
  <g id="Ultralight-M" transform="matrix(1 0 0 1 500.556 1126)">
   <path d="M69.7266-72.5098L104.639-72.5098C105.371-72.5098 105.859-72.998 105.859-73.7305C105.859-74.4141 105.371-74.9023 104.639-74.9023L69.7266-74.9023C68.9941-74.9023 68.5059-74.4141 68.5059-73.7305C68.5059-72.998 68.9941-72.5098 69.7266-72.5098ZM12.5-38.916C12.5-37.6953 13.3301-36.8652 14.5996-36.8652C15.8691-36.8652 16.6992-37.6953 16.6992-38.916L16.6992-57.7148C16.6992-58.0078 16.8945-58.2031 17.1875-58.2031L36.8164-58.2031L36.8164-51.8555C36.8164-49.3164 39.6484-48.1445 41.748-49.7559L52.4902-57.9102C54.2969-59.2773 54.2969-61.8652 52.4902-63.2324L41.748-71.3379C39.6484-72.9492 36.8164-71.7773 36.8164-69.2383L36.8164-62.4023L15.3809-62.4023C13.8672-62.4023 12.5-61.1328 12.5-59.5215ZM69.7266-46.8262L104.639-46.8262C105.371-46.8262 105.859-47.3145 105.859-48.0469C105.859-48.7793 105.371-49.2188 104.639-49.2188L69.7266-49.2188C68.9941-49.2188 68.5059-48.7793 68.5059-48.0469C68.5059-47.3145 68.9941-46.8262 69.7266-46.8262ZM13.6719-21.1426L104.639-21.1426C105.371-21.1426 105.859-21.6309 105.859-22.3633C105.859-23.0957 105.371-23.5352 104.639-23.5352L13.6719-23.5352C12.9395-23.5352 12.4512-23.0957 12.4512-22.3633C12.4512-21.6309 12.9395-21.1426 13.6719-21.1426ZM13.6719 4.54102L104.639 4.54102C105.371 4.54102 105.859 4.05273 105.859 3.32031C105.859 2.58789 105.371 2.09961 104.639 2.09961L13.6719 2.09961C12.9395 2.09961 12.4512 2.58789 12.4512 3.32031C12.4512 4.05273 12.9395 4.54102 13.6719 4.54102Z"/>
  </g>
  <g id="Black-S" transform="matrix(1 0 0 1 2879.69 696)">
   <path d="M9.76562-44.7754C9.76562-40.0391 12.9395-37.5 16.8457-37.5C20.752-37.5 23.9258-40.5273 23.9258-44.2871L23.9258-46.8262C23.9258-48.1934 24.8047-49.0723 26.1719-49.0723L29.0039-49.0723L29.0039-44.7754C29.0039-40.625 33.2031-39.1113 36.3281-41.6504L49.9512-52.832C52.002-54.4922 51.9043-57.373 49.9512-58.9844L36.3281-70.2148C33.1543-72.8027 29.0039-71.2891 29.0039-66.9922L29.0039-63.2324L23.4863-63.2324C14.3555-63.2324 9.76562-58.6914 9.76562-49.6094ZM60.6934-59.7168L91.9434-59.7168C95.1172-59.7168 97.6562-62.2559 97.6562-65.4297C97.6562-68.6035 95.1172-71.1426 91.9434-71.1426L60.6934-71.1426C57.5195-71.1426 54.9805-68.6035 54.9805-65.4297C54.9805-62.2559 57.5195-59.7168 60.6934-59.7168ZM60.6934-39.6973L91.9434-39.6973C95.1172-39.6973 97.6562-42.2363 97.6562-45.4102C97.6562-48.584 95.1172-51.123 91.9434-51.123L60.6934-51.123C57.5195-51.123 54.9805-48.584 54.9805-45.4102C54.9805-42.2363 57.5195-39.6973 60.6934-39.6973ZM15.4785-19.6777L91.9434-19.6777C95.1172-19.6777 97.6562-22.2168 97.6562-25.3906C97.6562-28.5645 95.1172-31.1035 91.9434-31.1035L15.4785-31.1035C12.3047-31.1035 9.76562-28.5645 9.76562-25.3906C9.76562-22.2168 12.3047-19.6777 15.4785-19.6777ZM15.4785 0.341797L91.9434 0.341797C95.1172 0.341797 97.6562-2.19727 97.6562-5.37109C97.6562-8.54492 95.1172-11.084 91.9434-11.084L15.4785-11.084C12.3047-11.084 9.76562-8.54492 9.76562-5.37109C9.76562-2.19727 12.3047 0.341797 15.4785 0.341797Z"/>
  </g>
  <g id="Heavy-S" transform="matrix(1 0 0 1 2584.15 696)">
   <path d="M60.1562-60.3027L90.1367-60.3027C93.0176-60.3027 95.3125-62.5488 95.3125-65.4297C95.3125-68.3105 93.0176-70.5566 90.1367-70.5566L60.1562-70.5566C57.2754-70.5566 55.0293-68.3105 55.0293-65.4297C55.0293-62.5488 57.2754-60.3027 60.1562-60.3027ZM9.76562-44.3359C9.76562-39.8926 12.5977-37.4512 16.3574-37.4512C20.0684-37.4512 22.9004-40.2832 22.9004-43.9941L22.9004-47.2656C22.9004-48.5352 23.6816-49.3652 25-49.3652L29.3945-49.3652L29.3945-45.2148C29.3945-41.3086 33.3496-39.8438 36.3281-42.2363L49.2676-52.832C51.2207-54.3945 51.123-57.1289 49.2676-58.6914L36.3281-69.2871C33.3008-71.7773 29.3945-70.3125 29.3945-66.2598L29.3945-62.5L22.7539-62.5C14.3066-62.5 9.76562-58.1543 9.76562-49.707ZM60.1562-40.2832L90.1367-40.2832C93.0176-40.2832 95.3125-42.5293 95.3125-45.4102C95.3125-48.2422 93.0176-50.5371 90.1367-50.5371L60.1562-50.5371C57.2754-50.5371 55.0293-48.2422 55.0293-45.4102C55.0293-42.5293 57.2754-40.2832 60.1562-40.2832ZM14.8926-20.2637L90.1367-20.2637C93.0176-20.2637 95.3125-22.5098 95.3125-25.3906C95.3125-28.2227 93.0176-30.5176 90.1367-30.5176L14.8926-30.5176C12.0605-30.5176 9.76562-28.2227 9.76562-25.3906C9.76562-22.5098 12.0605-20.2637 14.8926-20.2637ZM14.8926-0.244141L90.1367-0.244141C93.0176-0.244141 95.3125-2.49023 95.3125-5.37109C95.3125-8.20312 93.0176-10.498 90.1367-10.498L14.8926-10.498C12.0605-10.498 9.76562-8.20312 9.76562-5.37109C9.76562-2.49023 12.0605-0.244141 14.8926-0.244141Z"/>
  </g>
  <g id="Bold-S" transform="matrix(1 0 0 1 2288.78 696)">
   <path d="M59.5215-60.9375L88.1348-60.9375C90.625-60.9375 92.627-62.9395 92.627-65.4297C92.627-67.9199 90.625-69.9219 88.1348-69.9219L59.5215-69.9219C57.0312-69.9219 55.0293-67.9199 55.0293-65.4297C55.0293-62.9395 57.0312-60.9375 59.5215-60.9375ZM9.76562-43.8477C9.76562-39.7461 12.2559-37.3535 15.7715-37.3535C19.2871-37.3535 21.7773-39.9902 21.7773-43.6035L21.7773-47.8027C21.7773-48.9258 22.4609-49.6582 23.6816-49.6582L29.7852-49.6582L29.7852-45.7031C29.7852-42.041 33.4961-40.6738 36.2793-42.9199L48.4863-52.8809C50.293-54.2969 50.2441-56.8848 48.4863-58.3008L36.2793-68.2617C33.4473-70.6055 29.7852-69.2383 29.7852-65.4297L29.7852-61.6699L21.9727-61.6699C14.2578-61.6699 9.76562-57.5195 9.76562-49.8535ZM59.5215-40.918L88.1348-40.918C90.625-40.918 92.627-42.9199 92.627-45.4102C92.627-47.9004 90.625-49.9023 88.1348-49.9023L59.5215-49.9023C57.0312-49.9023 55.0293-47.9004 55.0293-45.4102C55.0293-42.9199 57.0312-40.918 59.5215-40.918ZM14.2578-20.8984L88.1348-20.8984C90.625-20.8984 92.627-22.9004 92.627-25.3906C92.627-27.8809 90.625-29.8828 88.1348-29.8828L14.2578-29.8828C11.7676-29.8828 9.76562-27.8809 9.76562-25.3906C9.76562-22.9004 11.7676-20.8984 14.2578-20.8984ZM14.2578-0.878906L88.1348-0.878906C90.625-0.878906 92.627-2.88086 92.627-5.37109C92.627-7.86133 90.625-9.86328 88.1348-9.86328L14.2578-9.86328C11.7676-9.86328 9.76562-7.86133 9.76562-5.37109C9.76562-2.88086 11.7676-0.878906 14.2578-0.878906Z"/>
  </g>
  <g id="Semibold-S" transform="matrix(1 0 0 1 1992.97 696)">
   <path d="M59.1309-61.377L86.7188-61.377C89.0137-61.377 90.8203-63.1836 90.8203-65.4297C90.8203-67.6758 89.0137-69.4824 86.7188-69.4824L59.1309-69.4824C56.8848-69.4824 55.0781-67.6758 55.0781-65.4297C55.0781-63.1836 56.8848-61.377 59.1309-61.377ZM9.76562-43.5059C9.76562-39.5996 12.0117-37.3047 15.3809-37.3047C18.7988-37.3047 20.9961-39.7949 20.9961-43.3594L20.9961-48.1445C20.9961-49.2188 21.6309-49.9023 22.7539-49.9023L30.0781-49.9023L30.0781-46.0449C30.0781-42.5781 33.5938-41.2598 36.2793-43.4082L47.9492-52.8809C49.6582-54.248 49.6582-56.6895 47.9492-58.0566L36.2793-67.5781C33.5449-69.8242 30.0781-68.5059 30.0781-64.8438L30.0781-61.1328L21.3867-61.1328C14.209-61.1328 9.76562-57.0801 9.76562-49.9512ZM59.1309-41.3574L86.7188-41.3574C89.0137-41.3574 90.8203-43.1641 90.8203-45.4102C90.8203-47.6562 89.0137-49.4629 86.7188-49.4629L59.1309-49.4629C56.8848-49.4629 55.0781-47.6562 55.0781-45.4102C55.0781-43.1641 56.8848-41.3574 59.1309-41.3574ZM13.8184-21.3379L86.7188-21.3379C89.0137-21.3379 90.8203-23.1445 90.8203-25.3906C90.8203-27.6367 89.0137-29.4434 86.7188-29.4434L13.8184-29.4434C11.5723-29.4434 9.76562-27.6367 9.76562-25.3906C9.76562-23.1445 11.5723-21.3379 13.8184-21.3379ZM13.8184-1.31836L86.7188-1.31836C89.0137-1.31836 90.8203-3.07617 90.8203-5.37109C90.8203-7.61719 89.0137-9.42383 86.7188-9.42383L13.8184-9.42383C11.5723-9.42383 9.76562-7.61719 9.76562-5.37109C9.76562-3.07617 11.5723-1.31836 13.8184-1.31836Z"/>
  </g>
  <g id="Medium-S" transform="matrix(1 0 0 1 1696.95 696)">
   <path d="M58.7891-61.7188L85.6934-61.7188C87.7441-61.7188 89.4531-63.3301 89.4531-65.4297C89.4531-67.4805 87.7441-69.1406 85.6934-69.1406L58.7891-69.1406C56.7383-69.1406 55.0781-67.4805 55.0781-65.4297C55.0781-63.3301 56.7383-61.7188 58.7891-61.7188ZM9.76562-43.2617C9.76562-39.5508 11.8164-37.2559 15.0879-37.2559C18.4082-37.2559 20.4102-39.6484 20.4102-43.2129L20.4102-48.3887C20.4102-49.4141 20.9473-50.0488 22.0703-50.0488L30.2734-50.0488L30.2734-46.3379C30.2734-42.9688 33.6914-41.6992 36.2305-43.75L47.5098-52.8809C49.2188-54.1992 49.1699-56.543 47.5098-57.8613L36.2305-67.041C33.5938-69.1895 30.2734-67.9199 30.2734-64.4043L30.2734-60.6934L20.9961-60.6934C14.209-60.6934 9.76562-56.7871 9.76562-50ZM58.7891-41.6992L85.6934-41.6992C87.7441-41.6992 89.4531-43.3105 89.4531-45.4102C89.4531-47.4609 87.7441-49.1211 85.6934-49.1211L58.7891-49.1211C56.7383-49.1211 55.0781-47.4609 55.0781-45.4102C55.0781-43.3105 56.7383-41.6992 58.7891-41.6992ZM13.4766-21.6309L85.6934-21.6309C87.7441-21.6309 89.4531-23.291 89.4531-25.3906C89.4531-27.4414 87.7441-29.1016 85.6934-29.1016L13.4766-29.1016C11.4258-29.1016 9.76562-27.4414 9.76562-25.3906C9.76562-23.291 11.4258-21.6309 13.4766-21.6309ZM13.4766-1.61133L85.6934-1.61133C87.7441-1.61133 89.4531-3.27148 89.4531-5.37109C89.4531-7.42188 87.7441-9.08203 85.6934-9.08203L13.4766-9.08203C11.4258-9.08203 9.76562-7.42188 9.76562-5.37109C9.76562-3.27148 11.4258-1.61133 13.4766-1.61133Z"/>
  </g>
  <g id="Regular-S" transform="matrix(1 0 0 1 1401.14 696)">
   <path d="M58.3984-62.1582L84.2773-62.1582C86.1328-62.1582 87.6465-63.5742 87.6465-65.4297C87.6465-67.2852 86.1328-68.7012 84.2773-68.7012L58.3984-68.7012C56.543-68.7012 55.0781-67.2852 55.0781-65.4297C55.0781-63.5742 56.543-62.1582 58.3984-62.1582ZM9.76562-42.9688C9.76562-39.4043 11.5723-37.207 14.6973-37.207C17.8711-37.207 19.6777-39.4043 19.6777-42.9688L19.6777-48.7793C19.6777-49.707 20.1172-50.2441 21.1426-50.2441L30.5664-50.2441L30.5664-46.6797C30.5664-43.457 33.7891-42.2363 36.2305-44.2383L46.9727-52.8809C48.584-54.1504 48.584-56.3965 46.9727-57.6172L36.2305-66.3574C33.6914-68.4082 30.5664-67.1875 30.5664-63.8672L30.5664-60.1562L20.459-60.1562C14.1602-60.1562 9.76562-56.3477 9.76562-50.0977ZM58.3984-42.0898L84.2773-42.0898C86.1328-42.0898 87.6465-43.5547 87.6465-45.4102C87.6465-47.2168 86.1328-48.6816 84.2773-48.6816L58.3984-48.6816C56.543-48.6816 55.0781-47.2168 55.0781-45.4102C55.0781-43.5547 56.543-42.0898 58.3984-42.0898ZM13.0371-22.0703L84.2773-22.0703C86.1328-22.0703 87.6465-23.5352 87.6465-25.3906C87.6465-27.1973 86.1328-28.6621 84.2773-28.6621L13.0371-28.6621C11.2305-28.6621 9.76562-27.1973 9.76562-25.3906C9.76562-23.5352 11.2305-22.0703 13.0371-22.0703ZM13.0371-2.05078L84.2773-2.05078C86.1328-2.05078 87.6465-3.51562 87.6465-5.37109C87.6465-7.17773 86.1328-8.64258 84.2773-8.64258L13.0371-8.64258C11.2305-8.64258 9.76562-7.17773 9.76562-5.37109C9.76562-3.51562 11.2305-2.05078 13.0371-2.05078Z"/>
  </g>
  <g id="Light-S" transform="matrix(1 0 0 1 1105.16 696)">
   <path d="M57.2266-62.8418L83.5938-62.8418C85.0098-62.8418 86.1816-63.9648 86.1816-65.4297C86.1816-66.8457 85.0098-67.9688 83.5938-67.9688L57.2266-67.9688C55.7617-67.9688 54.6387-66.8457 54.6387-65.4297C54.6387-63.9648 55.7617-62.8418 57.2266-62.8418ZM9.76562-41.4551C9.76562-38.7207 11.2305-37.0117 13.6719-37.0117C16.1621-37.0117 17.627-38.7207 17.627-41.4551L17.627-50.0488C17.627-50.7324 17.9688-51.1719 18.75-51.1719L30.0293-51.1719L30.0293-47.168C30.0293-44.3359 32.959-43.2129 35.1562-44.9707L45.166-52.9297C46.6797-54.1016 46.6797-56.2988 45.166-57.4707L35.1562-65.4785C32.8613-67.2852 30.0293-66.1621 30.0293-63.2324L30.0293-59.0332L17.8223-59.0332C13.1348-59.0332 9.76562-56.1035 9.76562-51.3672ZM57.2266-42.8223L83.5938-42.8223C85.0098-42.8223 86.1816-43.8965 86.1816-45.3613C86.1816-46.7773 85.0098-47.9004 83.5938-47.9004L57.2266-47.9004C55.7617-47.9004 54.6387-46.7773 54.6387-45.3613C54.6387-43.8965 55.7617-42.8223 57.2266-42.8223ZM12.3047-22.7539L83.5938-22.7539C85.0098-22.7539 86.1816-23.877 86.1816-25.293C86.1816-26.7578 85.0098-27.8809 83.5938-27.8809L12.3047-27.8809C10.8887-27.8809 9.76562-26.7578 9.76562-25.293C9.76562-23.877 10.8887-22.7539 12.3047-22.7539ZM12.3047-2.68555L83.5938-2.68555C85.0098-2.68555 86.1816-3.80859 86.1816-5.27344C86.1816-6.68945 85.0098-7.8125 83.5938-7.8125L12.3047-7.8125C10.8887-7.8125 9.76562-6.68945 9.76562-5.27344C9.76562-3.80859 10.8887-2.68555 12.3047-2.68555Z"/>
  </g>
  <g id="Thin-S" transform="matrix(1 0 0 1 809.425 696)">
   <path d="M55.6641-63.8184L82.6172-63.8184C83.5449-63.8184 84.2285-64.4531 84.2285-65.3809C84.2285-66.3086 83.5449-66.9922 82.6172-66.9922L55.6641-66.9922C54.7363-66.9922 54.1016-66.3086 54.1016-65.3809C54.1016-64.4531 54.7363-63.8184 55.6641-63.8184ZM9.76562-39.4531C9.76562-37.793 10.7422-36.7188 12.3535-36.7188C13.916-36.7188 14.8926-37.793 14.8926-39.4531L14.8926-51.709C14.8926-52.1484 15.1367-52.3926 15.5762-52.3926L29.2969-52.3926L29.2969-47.8027C29.2969-45.5078 31.8359-44.4824 33.6914-45.9473L42.7246-52.9297C44.1895-54.1016 44.1895-56.2012 42.7246-57.3242L33.6914-64.3066C31.7871-65.7715 29.2969-64.7949 29.2969-62.4512L29.2969-57.5195L14.3555-57.5195C11.7676-57.5195 9.76562-55.7617 9.76562-53.125ZM55.6641-43.7012L82.6172-43.7012C83.5449-43.7012 84.2285-44.3848 84.2285-45.3125C84.2285-46.2402 83.5449-46.875 82.6172-46.875L55.6641-46.875C54.7363-46.875 54.1016-46.2402 54.1016-45.3125C54.1016-44.3848 54.7363-43.7012 55.6641-43.7012ZM11.377-23.6328L82.6172-23.6328C83.5449-23.6328 84.2285-24.2676 84.2285-25.1953C84.2285-26.123 83.5449-26.8066 82.6172-26.8066L11.377-26.8066C10.4492-26.8066 9.76562-26.123 9.76562-25.1953C9.76562-24.2676 10.4492-23.6328 11.377-23.6328ZM11.377-3.51562L82.6172-3.51562C83.5449-3.51562 84.2285-4.19922 84.2285-5.12695C84.2285-6.05469 83.5449-6.68945 82.6172-6.68945L11.377-6.68945C10.4492-6.68945 9.76562-6.05469 9.76562-5.12695C9.76562-4.19922 10.4492-3.51562 11.377-3.51562Z"/>
  </g>
  <g id="Ultralight-S" transform="matrix(1 0 0 1 513.202 696)">
   <path d="M54.8828-64.3066L82.1289-64.3066C82.8125-64.3066 83.252-64.7461 83.252-65.3809C83.252-66.0156 82.8125-66.4551 82.1289-66.4551L54.8828-66.4551C54.1992-66.4551 53.7598-66.0156 53.7598-65.3809C53.7598-64.7461 54.1992-64.3066 54.8828-64.3066ZM9.76562-38.4277C9.76562-37.3047 10.498-36.5723 11.6211-36.5723C12.7441-36.5723 13.5254-37.3047 13.5254-38.4277L13.5254-52.5879C13.5254-52.8809 13.6719-53.0273 13.9648-53.0273L28.9551-53.0273L28.9551-48.1445C28.9551-46.0938 31.25-45.166 32.959-46.4844L41.5039-52.9785C42.9199-54.0527 42.9199-56.1035 41.5039-57.1777L32.959-63.7207C31.25-65.0391 28.9551-64.0625 28.9551-62.0117L28.9551-56.7871L12.5488-56.7871C11.0352-56.7871 9.76562-55.5664 9.76562-54.0039ZM54.8828-44.1895L82.1289-44.1895C82.8125-44.1895 83.252-44.6289 83.252-45.2637C83.252-45.8984 82.8125-46.3379 82.1289-46.3379L54.8828-46.3379C54.1992-46.3379 53.7598-45.8984 53.7598-45.2637C53.7598-44.6289 54.1992-44.1895 54.8828-44.1895ZM10.8398-24.0723L82.1289-24.0723C82.8125-24.0723 83.252-24.5117 83.252-25.1465C83.252-25.7812 82.8125-26.2695 82.1289-26.2695L10.8398-26.2695C10.2051-26.2695 9.76562-25.7812 9.76562-25.1465C9.76562-24.5117 10.2051-24.0723 10.8398-24.0723ZM10.8398-3.95508L82.1289-3.95508C82.8125-3.95508 83.252-4.39453 83.252-5.0293C83.252-5.71289 82.8125-6.15234 82.1289-6.15234L10.8398-6.15234C10.2051-6.15234 9.76562-5.71289 9.76562-5.0293C9.76562-4.39453 10.2051-3.95508 10.8398-3.95508Z"/>
  </g>
 </g>
</svg>
